<?xml version="1.0" encoding="utf-8"?>
<!-- Generator: Adobe Illustrator 22.1.0, SVG Export Plug-In . SVG Version: 6.00 Build 0)  -->
<svg version="1.1" id="Layer_1" xmlns="http://www.w3.org/2000/svg" xmlns:xlink="http://www.w3.org/1999/xlink" wide="200px" height="200px"
	 viewBox="0 0 200 200" style="enable-background:new 0 0 200 200;" xml:space="preserve">
<style type="text/css">
	.st0{fill:#DD3B32;}
</style>
<g>
	<path class="st0" d="M67.8,18.7c21.4-8.5,43.1-8.5,64.5,0c21.5,8.5,37,23.6,47.1,44.3c3.7-1.7,7.5-3.5,11.2-5.2c0-0.1,0-0.1,0-0.1
		c-0.2-0.3-0.3-0.7-0.5-1c-5.4-11.1-12.5-20.9-21.5-29.4c-7.6-7.1-16-13-25.4-17.5c-12.5-6-25.7-9.2-39.6-9.7
		c-0.4,0-0.8-0.1-1.2-0.1c-1.6,0-3.2,0-4.8,0c-0.2,0-0.3,0.1-0.5,0.1c-4,0.1-7.9,0.4-11.8,1c-6,0.9-12,2.3-17.7,4.3
		C52.8,10.5,40,18.6,29,29.6c-7.1,7.1-13,15.2-17.6,24.1c-0.7,1.3-1.3,2.6-2,4c3.8,1.8,7.6,3.5,11.3,5.3
		C30.8,42.3,46.3,27.2,67.8,18.7z"/>
	<path class="st0" d="M132.2,181.4c-21.4,8.5-43.1,8.5-64.5,0c-21.5-8.5-37-23.6-47.1-44.3c-3.7,1.7-7.5,3.5-11.2,5.2
		C21.9,170.2,53.3,199,97.8,200c43.8,1,78.3-25.9,92.8-57.7c-3.8-1.8-7.5-3.5-11.2-5.2C169.2,157.8,153.7,172.9,132.2,181.4z"/>
	<path class="st0" d="M65,117.5c6.7,2,13.4,3.1,20.4,2.2c2.3-0.3,4.6-0.9,6.7-2c3.7-1.9,5.8-5.1,6.9-9c1-3.5,1.1-7.1,1-10.7
		c-0.1-2.6-0.4-5.1-1.2-7.6c-1.6-5.2-5-8.6-10.4-9.8c-3.6-0.8-7.2-0.8-10.8-0.1c-0.8,0.1-1.6,0.3-2.5,0.5c0-7,0-13.9,0-20.9
		c-0.2,0-0.3,0-0.3,0c-3.1,0.3-6.2,0.7-9.3,1c-0.8,0.1-0.8,0.1-0.8,0.8c0,17.6,0,35.3,0,52.9c0,0.7,0,1.4,0,2.1
		C64.6,117.3,64.7,117.4,65,117.5z M75.6,89.6c2.1-0.4,4.2-0.7,6.3-0.6c2.3,0.2,4.3,0.9,5.6,2.9c0.8,1.3,1.2,2.7,1.4,4.2
		c0.4,3.1,0.4,6.2-0.3,9.3c-0.4,1.8-1.2,3.5-2.8,4.5c-1.1,0.7-2.2,1-3.5,1.1c-2.3,0.2-4.6-0.1-6.9-0.6c-0.4-0.1-0.5-0.3-0.5-0.6
		c0-3.3,0-6.5,0-9.8c0-3.2,0-6.4,0-9.6C75,89.9,75.1,89.7,75.6,89.6z"/>
	<path class="st0" d="M46.8,95c-2.7,0.1-5.3,0.3-8,0.4c-2.2,0.1-4.5,0.4-6.6,1.1c-3.1,1-5.4,2.8-6.4,5.9c-0.8,2.5-0.8,5.1-0.5,7.7
		c0.5,3.8,2.5,6.5,6,8.1c2.7,1.2,5.5,1.5,8.3,1.7c5.9,0.3,11.6-0.7,17.2-2.4c0.5-0.2,0.7-0.3,0.7-0.9c0-7.8,0-15.6,0-23.4
		c0-1.1-0.1-2.1-0.2-3.2c-0.4-2.5-1.4-4.7-3.3-6.5c-2-1.8-4.5-2.7-7.1-3.1c-3-0.6-6.1-0.6-9.1-0.4c-2.9,0.2-5.8,0.7-8.7,1.5
		c-0.2,0-0.4,0.3-0.4,0.4c-0.1,1.2-0.3,2.4-0.4,3.6c-0.1,1.5-0.3,3.1-0.4,4.6c0.1,0,0.2,0,0.2,0c1.9-0.3,3.8-0.7,5.7-1
		c3-0.4,6.1-0.6,9.2-0.3c1,0.1,1.9,0.3,2.7,0.9c1.1,0.8,1.8,3.4,1.3,5C46.9,95,46.8,95,46.8,95z M47,110.8c-2,0.4-4.1,0.7-6.1,0.5
		c-0.8-0.1-1.7-0.2-2.5-0.4c-2-0.6-3-2.2-2.9-4.2c0-0.3,0-0.6,0.1-0.9c0.2-1.4,1-2.2,2.3-2.5c1.3-0.3,2.6-0.4,3.9-0.5
		c1.7-0.1,3.4-0.2,5.2-0.3C47,105.2,47,108,47,110.8z"/>
	<path class="st0" d="M164.2,95.1c-2.6,0.1-5.3,0.3-7.9,0.4c-2.2,0.1-4.4,0.4-6.5,1c-3.6,1-6,3.1-6.8,6.8c-0.5,2.1-0.5,4.3-0.3,6.5
		c0.2,1.7,0.7,3.4,1.6,4.9c1.5,2.3,3.7,3.6,6.2,4.4c3.4,1,6.9,1.2,10.5,1c4.6-0.2,9-1.1,13.4-2.4c0.5-0.1,0.6-0.4,0.6-0.9
		c0-7.8,0-15.7,0-23.5c0-1.1-0.1-2.1-0.2-3.2c-0.6-3.8-2.6-6.6-6.2-8.2c-1.2-0.5-2.4-0.9-3.7-1.2c-3.2-0.7-6.5-0.8-9.8-0.5
		c-2.8,0.2-5.6,0.7-8.4,1.5c-0.4,0.1-0.5,0.2-0.5,0.6c-0.1,1.3-0.2,2.5-0.4,3.8c-0.1,1.4-0.3,2.8-0.4,4.2c3.1-0.4,6.1-0.8,9.1-1.2
		c2.2-0.2,4.4-0.2,6.6,0.1c1.5,0.3,2.8,0.9,3.2,2.6c0.2,0.9,0.2,1.9,0.3,2.9C164.6,95,164.4,95,164.2,95.1z M164.6,102.9
		c0,2.4,0,4.9,0,7.3c0,0.4-0.1,0.6-0.5,0.7c-2.5,0.4-5,0.7-7.6,0.2c-3.6-0.8-3.9-3.7-3.2-6c0.3-1,1.2-1.6,2.2-1.8
		c1.4-0.3,2.8-0.4,4.2-0.5c1.5-0.1,3.1-0.2,4.6-0.3c0.1,0,0.1,0,0.3,0C164.6,102.6,164.6,102.8,164.6,102.9z"/>
	<path class="st0" d="M125.6,110.2c-0.6,0.3-1.3,0.6-2,0.6c-2,0.2-4,0.2-6,0.2c-2.6,0-5.2-0.3-7.7-0.8c-1.3-0.3-2.6-0.6-3.9-0.9
		c0.1,0.7,0.1,1.4,0.2,2.1c0.2,2,0.4,4,0.6,6c0,0.3,0.1,0.5,0.4,0.6c2.6,0.9,5.3,1.5,8.1,1.8c2.8,0.3,5.6,0.3,8.4,0.1
		c2.3-0.2,4.6-0.5,6.7-1.3c3.7-1.3,6.1-3.7,6.9-7.6c0.5-2.6,0.5-5.3-0.1-7.9c-0.5-2.2-1.6-4-3.5-5.3c-1.4-1-2.9-1.5-4.5-1.8
		c-2.6-0.6-5.3-0.5-7.9-0.6c-1.3-0.1-2.6-0.2-3.9-0.4c-0.8-0.1-1.5-0.6-1.7-1.4c-0.3-1.7,0.1-3.4,2.1-4c1-0.3,2-0.4,3-0.5
		c3.7-0.2,7.4,0.1,11,0.8c1,0.2,1.9,0.4,2.9,0.6c0-0.1,0-0.2,0-0.3c-0.2-2.6-0.5-5.2-0.7-7.7c0-0.5-0.2-0.6-0.6-0.8
		c-4.6-1.2-9.3-1.8-14.1-1.4c-2.2,0.2-4.4,0.5-6.5,1.3c-3.3,1.2-5.8,3.2-6.9,6.6c-0.9,2.8-1,5.6-0.4,8.5c0.6,2.8,2.2,4.7,4.9,5.8
		c1.2,0.5,2.4,0.8,3.7,1c2.1,0.3,4.2,0.3,6.3,0.4c1.3,0.1,2.7,0.1,4,0.3c1.7,0.2,2.6,1,2.8,2.4c0.1,0.5,0.1,1,0,1.4
		C127.1,108.8,126.6,109.7,125.6,110.2z"/>
	<path class="st0" d="M17.7,70.1c-3.9-1.4-7.8-2.8-11.7-4.3c-8,22.9-8,45.6,0,68.5c4-1.5,7.9-2.9,11.7-4.3
		C10.7,110,10.7,90,17.7,70.1z"/>
	<path class="st0" d="M194,65.8c-4,1.5-7.9,2.9-11.7,4.3c7,20,7,39.9,0,59.9c3.9,1.4,7.8,2.8,11.8,4.3C202,111.4,202,88.6,194,65.8z
		"/>
</g>
</svg>
