<svg id="svg" version="1.1" width="400" height="429.98986828774065" viewBox="0 0 400 429.98986828774065" xmlns="http://www.w3.org/2000/svg" xmlns:xlink="http://www.w3.org/1999/xlink" ><g id="svgg"><path id="path0" d="M143.600 0.800 L 146.600 1.056 142.800 1.175 C 140.710 1.240,137.830 1.425,136.400 1.586 L 133.800 1.878 136.200 2.005 C 138.618 2.133,135.810 2.427,128.400 2.824 L 126.200 2.941 129.000 3.200 C 131.429 3.424,131.059 3.477,126.200 3.595 C 121.875 3.699,121.101 3.792,122.800 4.000 L 125.000 4.270 122.000 4.382 C 120.350 4.443,117.830 4.625,116.400 4.786 L 113.800 5.078 116.200 5.209 C 118.376 5.328,118.432 5.351,116.800 5.464 C 109.481 5.971,108.154 6.158,110.000 6.422 C 111.604 6.652,111.484 6.686,108.900 6.740 C 107.273 6.774,106.000 6.976,106.000 7.200 C 106.000 7.420,105.595 7.597,105.100 7.594 C 104.372 7.589,104.315 7.514,104.800 7.200 C 105.210 6.935,104.009 6.790,101.000 6.743 C 97.791 6.693,97.141 6.609,98.600 6.434 C 100.864 6.161,97.154 5.671,91.840 5.540 C 89.438 5.481,89.428 5.476,91.200 5.225 C 92.697 5.014,92.250 4.916,88.542 4.644 C 83.948 4.308,81.004 4.577,82.047 5.237 C 82.468 5.504,82.405 5.589,81.781 5.594 C 81.331 5.597,80.521 6.145,79.981 6.810 C 79.442 7.476,78.431 8.632,77.736 9.380 C 77.041 10.128,76.576 10.843,76.703 10.970 C 76.830 11.096,76.633 11.200,76.267 11.200 C 75.900 11.200,75.600 11.470,75.600 11.800 C 75.600 12.130,75.330 12.400,75.000 12.400 C 74.670 12.400,74.400 12.670,74.400 13.000 C 74.400 13.330,74.220 13.600,74.000 13.600 C 73.780 13.600,73.600 13.870,73.600 14.200 C 73.600 14.530,73.432 14.800,73.227 14.800 C 73.022 14.800,72.740 15.160,72.600 15.600 C 72.460 16.040,72.088 16.400,71.773 16.400 C 71.458 16.400,71.200 16.588,71.200 16.817 C 71.200 17.046,71.017 17.451,70.793 17.717 C 69.225 19.575,68.800 20.166,68.800 20.485 C 68.800 20.684,68.620 20.736,68.400 20.600 C 68.180 20.464,68.000 20.734,68.000 21.200 C 68.000 21.666,67.833 21.944,67.629 21.818 C 67.425 21.692,67.142 21.954,67.000 22.400 C 66.858 22.846,66.563 23.101,66.344 22.966 C 66.125 22.830,65.847 23.098,65.726 23.560 C 65.606 24.022,65.348 24.400,65.153 24.400 C 64.959 24.400,64.800 24.771,64.800 25.224 C 64.800 25.705,64.623 25.938,64.373 25.783 C 64.138 25.638,63.848 25.896,63.728 26.355 C 63.607 26.815,63.355 27.096,63.166 26.979 C 62.978 26.863,62.698 27.268,62.544 27.880 C 62.240 29.091,61.505 30.000,60.829 30.000 C 60.593 30.000,60.400 30.360,60.400 30.800 C 60.400 31.285,60.124 31.611,59.700 31.628 C 59.095 31.652,59.106 31.698,59.781 31.962 C 60.437 32.218,60.341 32.312,59.181 32.546 C 58.215 32.740,57.962 32.925,58.338 33.159 C 58.729 33.403,58.571 33.571,57.759 33.775 C 56.887 33.993,56.769 34.135,57.221 34.421 C 57.720 34.737,57.717 34.789,57.196 34.794 C 56.863 34.797,56.143 35.355,55.596 36.034 C 55.048 36.712,54.108 37.837,53.506 38.534 C 52.905 39.230,52.410 40.205,52.406 40.700 C 52.401 41.436,52.177 41.600,51.176 41.600 C 50.463 41.600,50.056 41.767,50.200 42.000 C 50.336 42.220,50.167 42.400,49.824 42.400 C 49.481 42.400,49.200 42.670,49.200 43.000 C 49.200 43.330,48.924 43.600,48.587 43.600 C 48.251 43.600,47.871 43.870,47.745 44.200 C 47.618 44.530,47.346 44.800,47.140 44.800 C 46.695 44.800,46.152 45.242,43.819 47.500 C 42.853 48.435,41.869 49.200,41.632 49.200 C 41.394 49.200,41.200 49.470,41.200 49.800 C 41.200 50.130,40.930 50.400,40.600 50.400 C 40.270 50.400,40.000 50.580,40.000 50.800 C 40.000 51.020,39.730 51.200,39.400 51.200 C 39.070 51.200,38.800 51.470,38.800 51.800 C 38.800 52.130,38.620 52.400,38.400 52.400 C 37.995 52.400,37.624 52.686,35.327 54.767 C 34.627 55.401,33.952 55.818,33.827 55.694 C 33.702 55.569,33.600 55.767,33.600 56.133 C 33.600 56.500,33.330 56.800,33.000 56.800 C 32.670 56.800,32.400 56.980,32.400 57.200 C 32.400 57.420,32.130 57.600,31.800 57.600 C 31.470 57.600,31.200 57.804,31.200 58.054 C 31.200 58.618,29.618 60.108,28.010 61.057 C 27.345 61.451,26.800 62.004,26.800 62.286 C 26.800 62.569,26.530 62.800,26.200 62.800 C 25.870 62.800,25.600 62.977,25.600 63.192 C 25.600 63.408,25.133 63.702,24.562 63.845 C 23.898 64.012,23.695 64.212,24.000 64.400 C 24.301 64.586,24.065 64.797,23.359 64.975 C 22.581 65.170,22.399 65.352,22.759 65.575 C 23.119 65.797,22.936 65.979,22.159 66.175 C 21.287 66.393,21.169 66.535,21.621 66.821 C 22.108 67.130,22.096 67.189,21.543 67.194 C 20.975 67.199,20.493 67.804,20.185 68.900 C 20.138 69.065,20.078 70.010,20.050 71.000 C 20.010 72.426,19.855 72.801,19.300 72.806 C 18.702 72.811,18.687 72.869,19.200 73.200 C 19.570 73.439,19.615 73.590,19.318 73.594 C 19.053 73.597,18.712 74.275,18.560 75.100 C 18.409 75.925,18.120 76.707,17.920 76.837 C 17.719 76.968,17.450 78.093,17.322 79.337 C 17.193 80.582,16.933 81.600,16.744 81.600 C 16.555 81.600,16.400 81.949,16.400 82.376 C 16.400 82.803,16.225 83.261,16.012 83.393 C 15.798 83.525,15.505 84.525,15.360 85.616 C 15.215 86.707,14.940 87.600,14.748 87.600 C 14.557 87.600,14.400 88.320,14.400 89.200 C 14.400 90.080,14.233 90.800,14.029 90.800 C 13.825 90.800,13.528 91.835,13.370 93.100 C 13.156 94.810,13.002 95.195,12.769 94.600 C 12.510 93.938,12.443 94.025,12.378 95.100 C 12.335 95.815,12.255 96.580,12.200 96.800 C 12.145 97.020,12.078 97.571,12.050 98.024 C 12.023 98.477,11.820 98.736,11.600 98.600 C 11.348 98.444,11.200 99.396,11.200 101.176 C 11.200 103.588,11.098 104.004,10.500 104.028 C 9.901 104.052,9.916 104.106,10.600 104.400 C 11.284 104.694,11.299 104.748,10.700 104.772 C 10.155 104.794,10.000 105.154,10.000 106.400 C 10.000 107.556,9.833 108.000,9.400 108.000 C 8.956 108.000,8.800 108.467,8.800 109.800 C 8.800 111.133,8.644 111.600,8.200 111.600 C 7.822 111.600,7.600 111.981,7.600 112.629 C 7.600 113.194,7.330 113.927,7.000 114.257 C 6.670 114.587,6.387 115.429,6.372 116.129 C 6.350 117.140,6.281 117.241,6.039 116.621 C 5.668 115.673,5.219 116.944,5.199 119.000 C 5.190 119.923,5.098 120.061,4.800 119.600 C 4.519 119.165,4.398 119.549,4.359 121.000 C 4.313 122.718,4.265 122.831,4.016 121.800 C 3.766 120.761,3.682 120.949,3.391 123.200 C 3.133 125.198,2.993 125.568,2.784 124.800 C 2.575 124.030,2.434 124.398,2.171 126.400 C 1.859 128.789,1.810 128.886,1.568 127.600 C 1.422 126.823,1.294 128.513,1.281 131.400 C 1.266 134.632,1.386 136.297,1.600 135.800 C 1.933 135.026,1.945 135.028,1.972 135.867 C 2.013 137.120,2.428 138.030,2.842 137.774 C 3.039 137.652,3.200 137.929,3.200 138.389 C 3.200 138.849,3.470 139.329,3.800 139.455 C 4.130 139.582,4.400 140.026,4.400 140.443 C 4.400 140.859,4.580 141.200,4.800 141.200 C 5.020 141.200,5.200 141.457,5.200 141.771 C 5.200 142.086,5.446 142.589,5.747 142.890 C 6.048 143.191,6.421 143.837,6.576 144.324 C 6.731 144.812,7.025 145.108,7.229 144.982 C 7.433 144.856,7.600 145.129,7.600 145.589 C 7.600 146.049,7.870 146.529,8.200 146.655 C 8.542 146.787,8.800 147.383,8.800 148.043 C 8.800 148.805,9.005 149.200,9.400 149.200 C 9.730 149.200,10.000 149.380,10.000 149.600 C 10.000 149.820,10.315 150.003,10.700 150.006 C 11.298 150.011,11.313 150.069,10.800 150.400 C 10.400 150.658,10.367 150.790,10.700 150.794 C 10.975 150.797,11.200 151.160,11.200 151.600 C 11.200 152.040,11.425 152.403,11.700 152.406 C 12.033 152.410,12.000 152.542,11.600 152.800 C 11.254 153.024,11.198 153.190,11.468 153.194 C 11.726 153.197,12.060 153.764,12.212 154.453 C 12.388 155.255,12.596 155.530,12.791 155.215 C 12.992 154.889,13.182 155.072,13.355 155.762 C 13.498 156.333,13.792 156.800,14.008 156.800 C 14.223 156.800,14.400 157.070,14.400 157.400 C 14.400 157.730,14.625 158.003,14.900 158.006 C 15.233 158.010,15.200 158.142,14.800 158.400 C 14.400 158.658,14.367 158.790,14.700 158.794 C 14.975 158.797,15.200 159.070,15.200 159.400 C 15.200 159.730,15.515 160.003,15.900 160.006 C 16.455 160.011,16.486 160.085,16.047 160.362 C 15.617 160.635,15.695 160.776,16.400 161.000 C 17.105 161.224,17.183 161.365,16.753 161.638 C 16.354 161.890,16.339 161.989,16.700 161.994 C 16.975 161.997,17.200 162.180,17.200 162.400 C 17.200 162.620,17.560 163.160,18.000 163.600 C 18.440 164.040,18.800 164.670,18.800 165.000 C 18.800 165.330,19.031 165.600,19.313 165.600 C 19.595 165.600,19.863 166.056,19.909 166.613 C 20.013 167.868,21.084 170.000,21.610 170.000 C 21.825 170.000,22.000 170.338,22.000 170.751 C 22.000 171.164,22.270 171.726,22.600 172.000 C 22.930 172.274,23.201 172.701,23.203 172.949 C 23.204 173.197,24.193 174.930,25.400 176.800 C 26.607 178.670,27.596 180.425,27.597 180.700 C 27.599 180.975,27.856 181.200,28.168 181.200 C 28.481 181.200,28.855 181.742,29.001 182.403 C 29.146 183.065,29.430 183.505,29.633 183.380 C 29.835 183.255,30.000 183.439,30.000 183.789 C 30.000 184.139,30.270 184.529,30.600 184.655 C 30.930 184.782,31.200 185.136,31.200 185.443 C 31.200 185.749,31.451 186.000,31.757 186.000 C 32.064 186.000,32.422 186.281,32.554 186.625 C 32.686 186.969,32.961 187.148,33.165 187.022 C 33.369 186.896,33.807 187.064,34.139 187.396 C 34.471 187.728,34.981 188.003,35.271 188.006 C 35.692 188.011,35.687 188.084,35.247 188.362 C 34.819 188.634,34.904 188.779,35.628 189.009 C 36.142 189.172,36.809 189.552,37.110 189.853 C 37.411 190.154,37.959 190.403,38.329 190.406 C 38.908 190.411,38.918 190.465,38.400 190.800 C 37.932 191.102,38.043 191.189,38.900 191.194 C 39.608 191.198,40.000 191.414,40.000 191.800 C 40.000 192.204,40.424 192.409,41.300 192.428 C 42.389 192.452,42.470 192.512,41.800 192.800 C 41.111 193.096,41.098 193.148,41.704 193.172 C 42.091 193.187,42.716 193.560,43.093 194.000 C 43.470 194.440,43.931 194.800,44.117 194.800 C 44.304 194.800,44.708 195.025,45.015 195.300 C 46.464 196.600,46.842 196.803,47.883 196.840 L 49.000 196.880 48.000 197.158 C 46.870 197.473,47.628 197.969,49.333 198.032 C 49.810 198.049,49.986 198.150,49.725 198.257 C 49.227 198.459,50.476 200.000,51.138 200.000 C 51.324 200.000,51.999 200.450,52.638 201.000 C 53.277 201.549,54.104 201.999,54.476 202.000 C 54.848 202.000,55.264 202.180,55.400 202.400 C 55.536 202.620,57.156 202.800,59.000 202.800 C 60.844 202.800,62.464 202.620,62.600 202.400 C 62.752 202.155,66.127 201.992,71.324 201.979 C 75.986 201.968,81.060 201.785,82.600 201.573 C 84.140 201.360,87.020 201.081,89.000 200.951 C 90.980 200.821,92.771 200.554,92.980 200.358 C 93.189 200.161,93.999 199.994,94.780 199.987 C 95.561 199.980,96.549 199.710,96.976 199.387 C 97.404 199.064,98.394 198.774,99.176 198.743 L 100.600 198.686 99.000 198.400 L 97.400 198.114 98.841 198.057 C 99.634 198.026,101.434 197.868,102.841 197.706 L 105.400 197.412 103.600 197.166 C 101.980 196.945,102.080 196.914,104.600 196.854 C 106.573 196.807,107.223 196.673,106.800 196.400 C 106.349 196.109,106.548 196.009,107.600 196.001 C 109.826 195.982,111.164 195.547,110.179 195.161 C 109.674 194.963,110.214 194.846,111.713 194.828 C 113.307 194.809,114.092 194.626,114.240 194.239 C 114.386 193.860,115.517 193.577,117.728 193.366 C 120.288 193.122,120.739 192.993,119.800 192.774 C 118.705 192.519,118.751 192.491,120.324 192.447 C 121.381 192.418,121.952 192.555,121.800 192.800 C 121.664 193.020,121.812 193.200,122.130 193.200 C 122.447 193.200,122.806 193.578,122.926 194.040 C 123.047 194.503,123.338 194.762,123.573 194.617 C 123.809 194.471,124.000 194.645,124.000 195.005 C 124.000 195.743,124.925 196.800,125.571 196.800 C 125.807 196.800,126.000 197.070,126.000 197.400 C 126.000 197.730,126.270 198.000,126.600 198.000 C 126.930 198.000,127.200 198.194,127.200 198.432 C 127.200 199.370,131.921 203.600,132.968 203.600 C 133.619 203.600,134.000 203.822,134.000 204.200 C 134.000 204.530,134.135 204.779,134.300 204.753 C 135.667 204.537,137.200 204.879,137.200 205.400 C 137.200 205.730,137.526 206.000,137.924 206.000 C 138.321 206.000,138.996 206.264,139.424 206.587 C 139.851 206.910,140.592 207.180,141.071 207.187 C 141.551 207.194,142.181 207.435,142.471 207.723 C 142.762 208.010,143.760 208.595,144.690 209.023 C 146.711 209.953,146.740 210.195,145.367 214.800 C 143.142 222.266,142.814 223.846,142.807 227.100 C 142.802 229.474,142.940 230.402,143.300 230.406 C 143.633 230.410,143.600 230.542,143.200 230.800 C 142.800 231.058,142.767 231.190,143.100 231.194 C 143.375 231.197,143.600 231.427,143.600 231.705 C 143.600 231.983,144.190 233.108,144.911 234.205 C 145.633 235.302,146.574 236.875,147.002 237.700 C 147.431 238.525,147.921 239.200,148.091 239.200 C 148.261 239.200,148.400 239.399,148.400 239.642 C 148.400 239.885,148.850 240.619,149.400 241.273 C 149.950 241.927,150.400 242.808,150.400 243.231 C 150.400 243.654,150.667 244.000,150.992 244.000 C 151.318 244.000,151.694 244.437,151.828 244.971 C 151.963 245.505,152.326 246.039,152.636 246.159 C 152.950 246.279,153.218 246.958,153.240 247.687 C 153.277 248.926,153.298 248.944,153.600 248.000 L 153.920 247.000 153.960 248.067 C 154.022 249.719,154.435 250.587,154.850 249.934 C 155.080 249.570,155.190 249.765,155.194 250.543 C 155.198 251.393,155.354 251.627,155.800 251.455 C 156.250 251.283,156.400 251.521,156.400 252.413 C 156.400 253.066,156.554 253.600,156.742 253.600 C 156.930 253.600,157.272 254.185,157.501 254.900 C 157.808 255.856,157.942 255.988,158.006 255.400 C 158.069 254.833,158.175 254.950,158.370 255.800 C 158.521 256.460,158.859 256.955,159.122 256.900 C 159.385 256.845,159.600 257.160,159.600 257.600 C 159.600 258.040,159.780 258.400,160.000 258.400 C 160.220 258.400,160.400 258.850,160.400 259.400 C 160.400 259.988,160.630 260.400,160.957 260.400 C 161.263 260.400,161.632 260.872,161.776 261.448 C 162.061 262.584,162.673 263.337,163.607 263.704 C 164.074 263.888,164.052 263.944,163.500 263.968 C 162.649 264.007,162.554 264.800,163.400 264.800 C 163.730 264.800,164.000 265.070,164.000 265.400 C 164.000 265.730,164.315 266.003,164.700 266.006 C 165.298 266.011,165.313 266.069,164.800 266.400 C 164.400 266.658,164.367 266.790,164.700 266.794 C 164.975 266.797,165.200 267.250,165.200 267.800 C 165.200 268.350,165.380 268.800,165.600 268.800 C 165.820 268.800,166.000 269.151,166.000 269.580 C 166.000 270.009,166.298 270.527,166.663 270.731 C 167.116 270.985,167.385 271.816,167.513 273.351 C 167.615 274.588,167.857 275.600,168.050 275.600 C 168.242 275.600,168.400 276.860,168.400 278.400 C 168.400 280.000,168.571 281.200,168.800 281.200 C 169.052 281.200,169.200 283.933,169.200 288.600 C 169.200 293.267,169.052 296.000,168.800 296.000 C 168.580 296.000,168.400 296.450,168.400 297.000 C 168.400 297.550,168.220 298.000,168.000 298.000 C 167.421 298.000,167.507 299.496,168.100 299.735 C 168.399 299.856,168.318 299.950,167.900 299.968 C 167.390 299.991,167.192 300.352,167.172 301.300 C 167.150 302.334,167.081 302.439,166.837 301.815 C 166.618 301.254,166.459 301.710,166.284 303.408 C 166.149 304.717,165.850 305.850,165.619 305.927 C 165.389 306.004,165.197 307.087,165.194 308.333 C 165.190 309.944,165.076 310.426,164.800 310.000 C 164.495 309.528,164.400 309.635,164.356 310.500 C 164.325 311.105,164.255 311.780,164.200 312.000 C 164.145 312.220,164.056 313.165,164.003 314.100 C 163.912 315.684,163.887 315.718,163.635 314.600 L 163.365 313.400 163.087 315.000 C 162.934 315.880,162.804 317.230,162.798 318.000 C 162.791 318.914,162.671 319.216,162.451 318.869 C 162.099 318.313,161.613 320.377,161.604 322.467 C 161.602 323.053,161.380 323.607,161.111 323.696 C 160.331 323.956,160.145 330.024,160.900 330.576 C 161.227 330.816,161.623 331.595,161.780 332.309 C 161.937 333.023,162.218 333.512,162.405 333.397 C 162.592 333.281,162.803 333.684,162.873 334.293 C 162.943 334.902,163.207 335.361,163.460 335.313 C 163.713 335.266,164.031 335.671,164.168 336.213 C 164.304 336.756,164.592 337.200,164.808 337.200 C 165.023 337.200,165.200 337.650,165.200 338.200 C 165.200 338.750,165.380 339.200,165.600 339.200 C 165.820 339.200,166.000 339.520,166.000 339.911 C 166.000 340.302,166.315 340.920,166.700 341.283 C 167.910 342.425,168.400 343.146,168.400 343.783 C 168.400 344.122,168.580 344.400,168.800 344.400 C 169.020 344.400,169.200 344.766,169.200 345.213 C 169.200 345.659,169.454 346.122,169.764 346.241 C 170.074 346.361,170.437 346.895,170.572 347.429 C 170.706 347.963,170.992 348.400,171.208 348.400 C 171.423 348.400,171.600 348.676,171.600 349.013 C 171.600 349.349,171.870 349.729,172.200 349.855 C 172.530 349.982,172.800 350.516,172.800 351.043 C 172.800 351.627,173.034 352.000,173.400 352.000 C 173.922 352.000,174.200 352.731,174.047 353.700 C 174.021 353.865,174.270 354.000,174.600 354.000 C 174.930 354.000,175.200 354.255,175.200 354.567 C 175.200 354.878,175.425 355.224,175.700 355.335 C 176.071 355.485,176.075 355.545,175.718 355.568 C 175.349 355.593,175.360 355.953,175.764 357.100 C 176.055 357.925,176.696 361.120,177.188 364.200 C 177.681 367.280,178.230 370.089,178.408 370.441 C 178.587 370.794,178.855 371.964,179.004 373.041 C 179.562 377.087,180.864 383.005,181.225 383.133 C 181.431 383.207,181.600 383.719,181.600 384.271 C 181.600 384.938,181.868 385.345,182.400 385.484 C 182.918 385.619,183.200 386.030,183.200 386.647 C 183.200 387.227,183.434 387.600,183.800 387.600 C 184.130 387.600,184.400 387.855,184.400 388.167 C 184.400 388.478,184.625 388.824,184.900 388.935 C 185.300 389.096,185.300 389.143,184.900 389.168 C 184.625 389.186,184.403 389.515,184.406 389.900 C 184.411 390.441,184.490 390.477,184.753 390.062 C 185.005 389.665,185.164 389.801,185.359 390.578 C 185.504 391.158,185.798 391.525,186.012 391.393 C 186.225 391.261,186.422 391.343,186.450 391.576 C 186.477 391.809,186.531 392.225,186.568 392.500 C 186.606 392.775,186.853 392.955,187.118 392.900 C 187.383 392.845,187.600 393.160,187.600 393.600 C 187.600 394.040,187.825 394.403,188.100 394.406 C 188.433 394.410,188.400 394.542,188.000 394.800 C 187.670 395.013,187.605 395.191,187.857 395.194 C 188.108 395.197,188.435 395.686,188.584 396.279 C 188.785 397.080,188.942 397.217,189.194 396.809 C 189.436 396.418,189.572 396.596,189.667 397.430 C 189.743 398.102,190.013 398.557,190.300 398.500 C 190.575 398.445,190.800 398.760,190.800 399.200 C 190.800 399.640,190.977 400.000,191.192 400.000 C 191.408 400.000,191.694 400.437,191.828 400.971 C 191.963 401.505,192.326 402.039,192.636 402.159 C 192.946 402.278,193.200 402.760,193.200 403.230 C 193.200 403.826,193.382 404.016,193.800 403.855 C 194.262 403.678,194.400 403.944,194.400 405.013 C 194.400 405.776,194.560 406.400,194.757 406.400 C 194.953 406.400,195.235 406.886,195.384 407.479 C 195.597 408.325,195.734 408.433,196.021 407.979 C 196.281 407.569,196.390 407.845,196.394 408.924 C 196.397 409.762,196.560 410.348,196.756 410.227 C 196.952 410.106,197.230 410.635,197.374 411.404 C 197.518 412.172,197.808 412.800,198.018 412.800 C 198.228 412.800,198.400 413.076,198.400 413.413 C 198.400 413.749,198.685 414.135,199.034 414.268 C 199.544 414.464,199.563 414.577,199.134 414.850 C 198.734 415.103,198.726 415.189,199.100 415.194 C 199.375 415.197,199.600 415.560,199.600 416.000 C 199.600 416.440,199.780 416.800,200.000 416.800 C 200.220 416.800,200.400 417.166,200.400 417.613 C 200.400 418.059,200.670 418.529,201.000 418.655 C 201.330 418.782,201.600 419.322,201.600 419.855 C 201.600 420.389,201.870 420.929,202.200 421.055 C 202.530 421.182,202.800 421.632,202.800 422.056 C 202.800 423.470,203.928 425.600,204.680 425.606 C 205.291 425.611,205.309 425.671,204.800 426.000 C 204.400 426.258,204.367 426.390,204.700 426.394 C 204.975 426.397,205.200 426.670,205.200 427.000 C 205.200 427.380,205.603 427.612,206.300 427.632 C 206.905 427.649,207.175 427.754,206.900 427.865 C 204.624 428.783,213.721 429.114,222.200 428.421 L 225.800 428.127 222.200 427.994 L 218.600 427.862 223.200 427.583 C 232.690 427.009,232.147 427.085,228.800 426.800 C 226.347 426.591,227.039 426.518,232.600 426.400 C 238.161 426.282,238.853 426.209,236.400 426.000 L 233.400 425.744 236.400 425.670 C 238.050 425.629,240.930 425.461,242.800 425.298 L 246.200 425.000 243.800 424.767 C 241.518 424.546,241.572 424.531,244.900 424.467 C 246.922 424.428,248.400 424.231,248.400 424.000 C 248.400 423.780,248.747 423.600,249.171 423.600 C 249.979 423.600,250.359 423.283,251.996 421.242 C 252.543 420.559,253.218 420.000,253.496 420.000 C 253.773 420.000,254.000 419.730,254.000 419.400 C 254.000 419.070,254.180 418.800,254.400 418.800 C 254.620 418.800,254.800 418.530,254.800 418.200 C 254.800 417.870,255.070 417.600,255.400 417.600 C 255.730 417.600,256.000 417.420,256.000 417.200 C 256.000 416.980,256.270 416.800,256.600 416.800 C 256.930 416.800,257.200 416.597,257.200 416.348 C 257.200 416.100,258.190 414.930,259.400 413.748 C 260.610 412.567,261.600 411.420,261.600 411.200 C 261.600 410.980,261.777 410.800,261.992 410.800 C 262.208 410.800,262.498 410.350,262.636 409.800 C 262.774 409.250,263.137 408.800,263.443 408.800 C 263.750 408.800,264.000 408.530,264.000 408.200 C 264.000 407.862,264.358 407.600,264.819 407.600 C 265.602 407.600,266.737 406.613,267.973 404.857 C 268.288 404.409,268.680 404.126,268.844 404.227 C 269.008 404.329,269.257 404.049,269.398 403.606 C 269.539 403.163,269.822 402.800,270.027 402.800 C 270.232 402.800,270.400 402.429,270.400 401.976 C 270.400 401.495,270.577 401.262,270.827 401.417 C 271.062 401.562,271.353 401.303,271.474 400.840 C 271.594 400.378,271.942 400.000,272.247 400.000 C 272.551 400.000,272.800 399.730,272.800 399.400 C 272.800 399.070,272.949 398.800,273.132 398.800 C 273.898 398.800,276.911 395.703,276.359 395.484 C 276.051 395.363,276.340 395.246,277.000 395.225 C 277.825 395.200,278.032 395.081,277.662 394.847 C 277.269 394.597,277.424 394.430,278.241 394.225 C 279.019 394.030,279.201 393.848,278.841 393.625 C 278.480 393.402,278.651 393.224,279.409 393.033 C 280.006 392.884,280.396 392.662,280.275 392.541 C 280.154 392.421,280.943 391.462,282.028 390.411 C 283.112 389.360,284.000 388.297,284.000 388.050 C 284.000 387.802,284.270 387.600,284.600 387.600 C 284.930 387.600,285.200 387.330,285.200 387.000 C 285.200 386.670,285.481 386.400,285.824 386.400 C 286.167 386.400,286.349 386.240,286.228 386.045 C 286.108 385.850,286.385 385.593,286.845 385.472 C 287.304 385.352,287.574 385.082,287.445 384.872 C 287.315 384.663,287.585 384.393,288.045 384.272 C 288.504 384.152,288.762 383.862,288.617 383.627 C 288.472 383.392,288.633 383.200,288.976 383.200 C 289.319 383.200,289.600 382.930,289.600 382.600 C 289.600 382.270,289.766 382.000,289.968 382.000 C 290.171 382.000,290.455 381.460,290.600 380.800 C 290.745 380.140,291.029 379.600,291.232 379.600 C 291.434 379.600,291.600 378.470,291.600 377.089 C 291.600 374.618,292.331 373.200,293.605 373.200 C 293.822 373.200,294.000 373.020,294.000 372.800 C 294.000 372.580,294.270 372.400,294.600 372.400 C 294.930 372.400,295.200 372.220,295.200 372.000 C 295.200 371.380,296.721 370.007,297.548 369.881 C 298.377 369.754,299.600 368.670,299.600 368.060 C 299.600 367.842,300.140 367.545,300.800 367.400 C 301.474 367.252,302.000 366.877,302.000 366.545 C 302.000 366.219,302.180 366.064,302.400 366.200 C 302.620 366.336,302.800 366.167,302.800 365.824 C 302.800 365.481,303.070 365.200,303.400 365.200 C 303.730 365.200,304.000 364.996,304.000 364.746 C 304.000 364.496,304.445 363.879,304.989 363.375 C 305.646 362.767,305.813 362.393,305.489 362.261 C 305.214 362.150,305.312 362.049,305.712 362.032 C 306.362 362.003,306.414 361.546,306.312 356.700 C 306.241 353.335,306.054 351.473,305.800 351.600 C 305.550 351.725,305.325 350.004,305.200 347.000 C 304.979 341.693,305.033 341.200,305.843 341.200 C 306.149 341.200,306.414 340.885,306.432 340.500 C 306.450 340.096,306.547 340.008,306.662 340.291 C 306.793 340.615,307.227 340.401,307.930 339.667 C 308.519 339.053,309.455 338.269,310.011 337.925 C 311.209 337.182,312.600 336.013,315.039 333.700 C 316.024 332.765,316.964 332.000,317.126 332.000 C 317.473 332.000,318.991 330.294,318.906 330.000 C 318.874 329.890,319.209 329.667,319.650 329.503 C 320.091 329.340,320.339 329.025,320.202 328.803 C 320.059 328.572,320.390 328.400,320.976 328.400 C 321.620 328.400,322.000 328.177,322.000 327.800 C 322.000 327.470,322.270 327.200,322.600 327.200 C 322.930 327.200,323.200 326.930,323.200 326.600 C 323.200 326.270,323.481 326.000,323.824 326.000 C 324.167 326.000,324.350 325.842,324.230 325.649 C 324.111 325.455,324.595 325.170,325.306 325.015 C 326.438 324.768,326.500 324.693,325.800 324.416 C 325.058 324.123,325.073 324.088,326.000 323.940 C 326.550 323.853,326.955 323.560,326.900 323.291 C 326.845 323.020,327.204 322.797,327.700 322.794 C 328.428 322.789,328.485 322.714,328.000 322.400 C 327.485 322.067,327.499 322.004,328.100 321.956 C 329.586 321.837,329.797 321.748,329.700 321.282 C 329.645 321.017,329.870 320.800,330.200 320.800 C 330.530 320.800,330.800 320.530,330.800 320.200 C 330.800 319.870,331.070 319.600,331.400 319.600 C 331.730 319.600,332.000 319.420,332.000 319.200 C 332.000 318.980,332.270 318.800,332.600 318.800 C 332.930 318.800,333.203 318.485,333.206 318.100 C 333.211 317.502,333.269 317.487,333.600 318.000 C 333.931 318.513,333.989 318.498,333.994 317.900 C 333.997 317.515,334.270 317.200,334.600 317.200 C 334.930 317.200,335.200 317.020,335.200 316.800 C 335.200 316.580,335.470 316.400,335.800 316.400 C 336.130 316.400,336.400 316.130,336.400 315.800 C 336.400 315.470,336.670 315.200,337.000 315.200 C 337.330 315.200,337.600 314.930,337.600 314.600 C 337.600 314.270,337.793 314.000,338.029 314.000 C 339.343 314.000,341.492 309.179,341.013 307.303 C 340.858 306.696,340.582 305.030,340.401 303.600 C 339.568 297.033,339.210 294.700,338.822 293.304 C 338.592 292.477,338.370 290.450,338.328 288.800 L 338.251 285.800 338.000 289.200 L 337.749 292.600 337.675 288.724 C 337.634 286.592,337.420 284.736,337.200 284.600 C 336.980 284.464,336.800 283.008,336.800 281.364 C 336.800 279.154,336.652 278.318,336.233 278.157 C 335.841 278.007,335.581 276.911,335.388 274.591 C 335.171 271.982,334.964 271.203,334.454 271.067 C 333.887 270.916,333.893 270.887,334.500 270.846 C 334.885 270.821,335.200 270.620,335.200 270.400 C 335.200 270.180,334.975 270.045,334.700 270.100 C 334.327 270.175,334.148 268.781,333.995 264.600 C 333.845 260.517,333.730 259.596,333.569 261.200 C 333.387 263.013,333.336 262.731,333.280 259.600 C 333.234 257.023,333.337 255.993,333.600 256.400 C 333.884 256.839,333.989 256.545,333.994 255.300 C 333.998 254.058,334.162 253.600,334.600 253.600 C 334.930 253.600,335.200 253.420,335.200 253.200 C 335.200 252.980,335.456 252.800,335.768 252.800 C 336.081 252.800,336.455 252.260,336.600 251.600 C 336.745 250.940,337.029 250.400,337.232 250.400 C 337.434 250.400,337.603 249.905,337.606 249.300 C 337.610 248.582,337.725 248.378,337.937 248.712 C 338.165 249.071,338.491 248.773,339.031 247.712 C 339.454 246.880,339.935 246.140,340.100 246.067 C 340.265 245.993,340.400 245.744,340.400 245.514 C 340.400 245.283,340.715 244.803,341.100 244.447 C 342.018 243.598,343.200 241.448,343.200 240.626 C 343.200 240.268,343.470 239.871,343.800 239.745 C 344.130 239.618,344.400 239.283,344.400 239.000 C 344.400 238.717,344.670 238.382,345.000 238.255 C 345.330 238.129,345.600 237.589,345.600 237.055 C 345.600 236.522,345.870 235.982,346.200 235.855 C 346.530 235.729,346.800 235.442,346.800 235.217 C 346.800 234.835,347.549 233.796,348.700 232.584 C 348.975 232.294,349.200 231.864,349.200 231.629 C 349.200 231.393,349.425 231.197,349.700 231.194 C 350.061 231.189,350.046 231.090,349.647 230.838 C 349.217 230.565,349.295 230.424,350.000 230.200 C 350.705 229.976,350.783 229.835,350.353 229.562 C 349.914 229.285,349.945 229.211,350.500 229.206 C 350.885 229.203,351.200 229.020,351.200 228.800 C 351.200 228.580,351.470 228.400,351.800 228.400 C 352.130 228.400,352.400 228.130,352.400 227.800 C 352.400 227.470,352.580 227.200,352.800 227.200 C 353.020 227.200,353.200 226.950,353.200 226.643 C 353.200 226.337,353.686 225.965,354.279 225.816 C 355.034 225.626,355.203 225.449,354.841 225.225 C 354.481 225.003,354.664 224.821,355.441 224.625 C 356.313 224.407,356.431 224.265,355.979 223.979 C 355.500 223.676,355.521 223.611,356.100 223.606 C 356.485 223.603,356.800 223.330,356.800 223.000 C 356.800 222.670,357.070 222.400,357.400 222.400 C 357.730 222.400,358.000 222.232,358.000 222.027 C 358.000 221.822,358.384 221.532,358.853 221.383 C 359.523 221.171,359.587 221.037,359.153 220.762 C 358.714 220.485,358.745 220.411,359.300 220.406 C 359.685 220.403,360.000 220.130,360.000 219.800 C 360.000 219.470,360.193 219.200,360.429 219.200 C 360.982 219.200,362.000 218.182,362.000 217.629 C 362.000 217.393,362.270 217.200,362.600 217.200 C 362.939 217.200,363.200 216.842,363.200 216.376 C 363.200 215.923,363.348 215.644,363.529 215.756 C 363.896 215.983,365.200 214.610,365.200 213.995 C 365.200 213.778,365.470 213.600,365.800 213.600 C 366.130 213.600,366.400 213.330,366.400 213.000 C 366.400 212.670,366.580 212.400,366.800 212.400 C 367.352 212.400,368.800 210.904,368.800 210.333 C 368.800 210.077,368.908 209.975,369.041 210.107 C 369.173 210.240,370.298 209.252,371.541 207.912 C 372.783 206.573,375.366 203.884,377.279 201.938 C 379.192 199.992,380.632 198.395,380.479 198.388 C 380.326 198.381,380.519 198.190,380.908 197.963 C 381.298 197.736,381.512 197.382,381.385 197.175 C 381.257 196.969,381.341 196.800,381.572 196.800 C 382.199 196.800,383.600 195.496,383.600 194.911 C 383.600 194.630,383.780 194.400,384.000 194.400 C 384.220 194.400,384.400 193.680,384.400 192.800 C 384.400 191.644,384.567 191.200,385.000 191.200 C 385.433 191.200,385.600 190.756,385.600 189.600 C 385.600 188.444,385.767 188.000,386.200 188.000 C 386.631 188.000,386.800 187.560,386.800 186.443 C 386.800 185.428,387.009 184.805,387.400 184.655 C 387.797 184.503,388.010 183.846,388.028 182.713 C 388.048 181.493,388.144 181.224,388.361 181.779 C 388.747 182.764,389.182 181.426,389.201 179.200 C 389.208 178.280,389.328 177.983,389.550 178.334 C 390.005 179.050,390.400 178.032,390.400 176.144 C 390.400 175.318,390.563 174.853,390.800 175.000 C 391.044 175.151,391.216 174.495,391.240 173.324 C 391.270 171.848,391.346 171.633,391.565 172.400 C 391.876 173.491,392.336 171.692,392.435 169.000 C 392.479 167.822,392.485 167.818,392.800 168.800 C 393.031 169.521,393.133 169.018,393.166 167.000 C 393.194 165.304,393.346 164.410,393.550 164.734 C 394.020 165.474,394.392 164.430,394.428 162.267 C 394.450 160.969,394.532 160.777,394.800 161.400 C 395.133 162.175,395.145 162.173,395.172 161.333 C 395.187 160.857,394.975 160.376,394.700 160.265 C 394.401 160.144,394.482 160.050,394.900 160.032 C 395.441 160.007,395.600 159.647,395.600 158.443 C 395.600 157.428,395.809 156.805,396.200 156.655 C 396.596 156.503,396.800 155.877,396.800 154.813 C 396.800 153.736,396.966 153.233,397.300 153.300 C 397.623 153.365,397.844 152.798,397.923 151.700 C 398.007 150.543,398.230 150.000,398.623 150.000 C 399.266 150.000,399.405 147.429,398.913 144.600 L 398.635 143.000 398.365 144.200 L 398.095 145.400 398.047 144.100 C 398.016 143.232,397.801 142.800,397.400 142.800 C 397.070 142.800,396.800 142.530,396.800 142.200 C 396.800 141.870,396.530 141.600,396.200 141.600 C 395.870 141.600,395.600 141.330,395.600 141.000 C 395.600 140.670,395.345 140.400,395.033 140.400 C 394.722 140.400,394.395 140.186,394.308 139.924 C 394.039 139.118,388.865 138.965,388.562 139.754 C 388.394 140.194,387.824 140.400,386.777 140.400 C 385.854 140.400,385.111 140.630,384.917 140.977 C 384.720 141.329,383.841 141.592,382.655 141.653 C 381.507 141.713,380.634 141.967,380.515 142.277 C 380.405 142.565,379.718 142.800,378.990 142.800 C 377.161 142.800,376.159 143.201,376.866 143.650 C 377.197 143.859,376.615 143.990,375.333 143.994 C 372.831 144.001,371.673 144.347,372.466 144.850 C 372.783 145.050,371.619 145.202,369.600 145.222 C 367.555 145.243,366.515 145.379,366.989 145.565 C 367.577 145.794,367.222 145.947,365.597 146.163 C 364.397 146.322,363.308 146.625,363.177 146.837 C 363.047 147.048,362.008 147.331,360.870 147.466 C 359.731 147.601,358.800 147.866,358.800 148.056 C 358.800 148.245,358.159 148.400,357.376 148.400 C 356.529 148.400,356.053 148.238,356.200 148.000 C 356.336 147.780,356.257 147.600,356.024 147.600 C 355.791 147.600,355.600 147.370,355.600 147.089 C 355.600 146.515,354.204 145.200,353.595 145.200 C 353.378 145.200,353.200 144.729,353.200 144.153 C 353.200 143.457,352.664 142.586,351.600 141.554 C 350.720 140.700,350.000 139.821,350.000 139.600 C 350.000 139.380,349.832 139.200,349.627 139.200 C 349.422 139.200,349.128 138.803,348.974 138.319 C 348.643 137.274,347.837 136.400,347.205 136.400 C 346.956 136.400,346.872 136.208,347.017 135.973 C 347.162 135.738,346.904 135.448,346.445 135.328 C 345.985 135.207,345.715 134.937,345.845 134.728 C 345.974 134.518,345.687 134.243,345.206 134.118 C 344.577 133.953,344.476 133.800,344.845 133.572 C 345.205 133.350,345.057 133.179,344.350 133.002 C 343.796 132.863,343.030 132.220,342.649 131.575 C 342.157 130.742,341.641 130.398,340.877 130.394 C 340.035 130.389,339.931 130.303,340.400 130.000 C 340.878 129.691,340.887 129.611,340.446 129.606 C 340.141 129.603,339.466 129.141,338.946 128.579 C 338.426 128.018,338.000 127.667,338.000 127.800 C 338.000 127.933,337.586 127.594,337.080 127.048 C 336.574 126.502,335.674 125.933,335.080 125.784 C 334.368 125.606,334.000 125.247,334.000 124.733 C 334.000 124.304,333.820 124.064,333.600 124.200 C 333.380 124.336,333.200 124.257,333.200 124.024 C 333.200 123.791,332.930 123.600,332.600 123.600 C 332.270 123.600,332.000 123.420,332.000 123.200 C 332.000 122.980,331.730 122.800,331.400 122.800 C 331.070 122.800,330.800 122.519,330.800 122.176 C 330.800 121.833,330.640 121.652,330.444 121.773 C 330.248 121.894,329.964 121.332,329.812 120.524 C 329.608 119.437,329.442 119.204,329.174 119.628 C 328.893 120.072,328.811 120.006,328.806 119.333 C 328.797 118.105,328.379 117.165,327.958 117.426 C 327.761 117.548,327.600 117.277,327.600 116.824 C 327.600 116.371,327.420 116.000,327.200 116.000 C 326.980 116.000,326.800 115.550,326.800 115.000 C 326.800 114.378,326.573 114.000,326.200 114.000 C 325.800 114.000,325.600 113.600,325.600 112.800 C 325.600 112.000,325.400 111.600,325.000 111.600 C 324.670 111.600,324.400 111.253,324.400 110.829 C 324.400 110.404,324.117 109.774,323.771 109.429 C 323.426 109.083,323.336 108.800,323.571 108.800 C 323.807 108.800,323.640 108.440,323.200 108.000 C 322.760 107.560,322.209 107.200,321.976 107.200 C 321.743 107.200,321.665 107.018,321.803 106.795 C 321.943 106.569,321.478 106.276,320.745 106.129 C 319.651 105.910,319.565 105.821,320.219 105.584 C 320.761 105.387,320.266 105.205,318.600 104.991 C 316.825 104.762,316.408 104.600,317.000 104.369 C 317.580 104.142,317.305 104.047,316.000 104.022 C 314.746 103.998,314.376 103.877,314.779 103.621 C 315.238 103.331,315.152 103.203,314.363 103.005 C 313.716 102.843,313.344 102.450,313.301 101.885 C 313.265 101.407,313.003 100.832,312.718 100.608 C 312.433 100.383,312.137 99.840,312.060 99.400 C 311.983 98.960,311.713 98.468,311.460 98.306 C 311.207 98.144,311.157 98.009,311.349 98.006 C 311.541 98.003,311.474 97.730,311.200 97.400 C 310.926 97.070,310.800 96.800,310.919 96.800 C 311.128 96.800,310.267 95.082,308.457 91.888 C 307.986 91.056,307.600 90.111,307.600 89.788 C 307.600 89.465,307.330 89.200,307.000 89.200 C 306.670 89.200,306.400 88.855,306.400 88.433 C 306.400 87.301,305.967 86.373,305.558 86.626 C 305.361 86.748,305.200 86.491,305.200 86.056 C 305.200 84.699,304.744 83.845,304.350 84.466 C 304.118 84.833,304.010 84.655,304.006 83.900 C 304.002 83.192,303.786 82.800,303.400 82.800 C 302.955 82.800,302.793 82.310,302.772 80.900 C 302.751 79.470,302.659 79.198,302.400 79.800 C 302.102 80.494,302.049 80.440,302.000 79.400 C 301.969 78.740,301.789 77.840,301.600 77.400 L 301.256 76.600 301.185 77.400 C 301.146 77.840,300.942 77.431,300.732 76.492 C 300.522 75.552,300.181 74.888,299.975 75.016 C 299.769 75.143,299.600 74.877,299.600 74.424 C 299.600 73.971,299.420 73.600,299.200 73.600 C 298.980 73.600,298.800 73.150,298.800 72.600 C 298.800 71.978,298.573 71.600,298.200 71.600 C 297.800 71.600,297.600 71.200,297.600 70.400 C 297.600 69.600,297.400 69.200,297.000 69.200 C 296.627 69.200,296.400 68.822,296.400 68.200 C 296.400 67.578,296.173 67.200,295.800 67.200 C 295.470 67.200,295.221 67.065,295.247 66.900 C 295.422 65.797,295.097 64.832,294.500 64.676 C 293.833 64.502,293.833 64.491,294.500 64.446 C 294.995 64.414,295.200 64.061,295.200 63.243 C 295.200 62.583,295.458 61.987,295.800 61.855 C 296.298 61.664,296.413 60.416,296.477 54.513 C 296.546 48.203,296.583 47.851,296.800 51.400 L 297.045 55.400 297.125 52.200 C 297.170 50.440,297.320 47.785,297.461 46.300 C 297.682 43.958,297.629 43.600,297.058 43.600 C 296.557 43.600,296.400 43.218,296.400 42.000 C 296.400 40.844,296.233 40.400,295.800 40.400 C 295.400 40.400,295.200 40.000,295.200 39.200 C 295.200 38.400,295.000 38.000,294.600 38.000 C 294.270 38.000,294.000 37.730,294.000 37.400 C 294.000 37.070,293.685 36.797,293.300 36.794 C 292.702 36.789,292.687 36.731,293.200 36.400 C 293.600 36.142,293.633 36.010,293.300 36.006 C 293.025 36.003,292.800 35.745,292.800 35.433 C 292.800 35.122,292.575 34.776,292.300 34.665 C 291.900 34.504,291.900 34.457,292.300 34.432 C 292.575 34.414,292.800 34.220,292.800 34.000 C 292.800 33.780,292.575 33.645,292.300 33.700 C 292.021 33.756,291.852 33.491,291.918 33.100 C 292.009 32.556,291.742 32.394,290.718 32.372 C 289.618 32.348,289.532 32.287,290.200 32.000 C 290.819 31.734,290.593 31.641,289.200 31.588 C 287.759 31.534,287.599 31.464,288.400 31.238 C 289.387 30.960,289.382 30.950,288.040 30.478 C 286.016 29.766,267.978 29.835,265.600 30.564 L 263.800 31.115 265.400 31.290 C 266.280 31.387,265.200 31.523,263.000 31.593 C 259.928 31.691,259.417 31.777,260.800 31.966 C 263.965 32.399,257.524 32.848,253.144 32.500 C 249.500 32.210,249.459 32.196,251.600 31.966 C 253.489 31.764,253.234 31.713,249.800 31.608 C 246.701 31.514,246.160 31.422,247.400 31.200 C 248.749 30.958,248.827 30.897,247.900 30.807 C 246.175 30.639,246.085 30.618,245.767 30.300 C 245.602 30.135,244.777 30.000,243.933 30.000 C 243.090 30.000,242.400 29.820,242.400 29.600 C 242.400 29.380,242.265 29.234,242.100 29.275 C 241.459 29.435,238.400 28.712,238.400 28.400 C 238.400 28.219,237.635 27.944,236.700 27.789 C 235.765 27.634,234.640 27.306,234.200 27.060 C 233.281 26.546,230.053 25.642,228.000 25.323 C 227.230 25.203,226.420 24.964,226.200 24.792 C 224.653 23.580,218.800 23.624,218.800 24.847 C 218.800 25.041,218.530 25.200,218.200 25.200 C 217.870 25.200,217.600 25.391,217.600 25.624 C 217.600 25.857,217.408 25.928,217.173 25.783 C 216.938 25.638,216.648 25.896,216.528 26.355 C 216.407 26.815,216.150 27.092,215.955 26.972 C 215.760 26.851,215.600 27.303,215.600 27.976 C 215.600 28.649,215.422 29.200,215.205 29.200 C 214.596 29.200,213.200 30.515,213.200 31.089 C 213.200 31.370,212.885 31.613,212.500 31.628 C 211.898 31.652,211.910 31.699,212.585 31.963 C 213.284 32.236,213.242 32.303,212.206 32.563 C 211.408 32.763,211.203 32.955,211.555 33.172 C 211.924 33.400,211.823 33.553,211.194 33.718 C 210.709 33.844,210.437 34.136,210.583 34.373 C 210.728 34.608,210.659 34.800,210.428 34.800 C 209.796 34.800,208.412 36.096,208.644 36.471 C 208.756 36.652,208.432 36.797,207.924 36.794 C 207.265 36.790,207.153 36.691,207.534 36.450 C 208.222 36.013,207.277 35.612,205.467 35.572 C 204.397 35.548,204.324 35.490,205.000 35.200 C 205.581 34.950,205.144 34.834,203.400 34.775 C 201.372 34.707,201.217 34.655,202.400 34.437 C 204.062 34.132,202.979 33.655,200.400 33.558 L 199.000 33.505 200.200 33.235 L 201.400 32.965 199.800 32.687 C 198.920 32.534,197.660 32.381,197.000 32.348 C 195.942 32.294,195.989 32.253,197.400 32.000 C 198.838 31.743,198.716 31.702,196.200 31.602 C 194.660 31.541,193.826 31.410,194.346 31.312 L 195.291 31.132 194.200 30.566 C 193.600 30.255,192.769 30.000,192.354 30.000 C 191.939 30.000,191.600 29.820,191.600 29.600 C 191.600 29.380,191.172 29.200,190.649 29.200 C 190.126 29.200,189.474 28.930,189.200 28.600 C 188.926 28.270,188.542 28.000,188.347 28.000 C 188.151 28.000,187.138 27.619,186.096 27.153 C 181.987 25.319,181.543 25.146,180.785 25.089 C 180.353 25.056,180.000 24.888,180.000 24.715 C 180.000 24.542,179.730 24.400,179.400 24.400 C 179.070 24.400,178.800 24.244,178.800 24.054 C 178.800 23.577,175.608 22.400,174.315 22.400 C 173.733 22.400,173.018 22.160,172.725 21.867 C 172.432 21.575,171.699 21.211,171.096 21.060 C 170.493 20.909,170.000 20.608,170.000 20.392 C 170.000 20.177,169.460 20.000,168.800 20.000 C 168.140 20.000,167.600 19.846,167.600 19.658 C 167.600 19.470,167.015 19.149,166.300 18.945 C 165.395 18.686,164.960 18.297,164.869 17.662 C 164.797 17.161,164.482 16.653,164.169 16.533 C 163.856 16.413,163.600 15.968,163.600 15.545 C 163.600 15.121,163.330 14.671,163.000 14.545 C 162.670 14.418,162.400 13.884,162.400 13.357 C 162.400 12.773,162.166 12.400,161.800 12.400 C 161.376 12.400,161.200 11.971,161.200 10.939 C 161.200 9.378,159.069 4.400,158.401 4.400 C 158.180 4.400,158.021 4.265,158.047 4.100 C 158.200 3.131,157.922 2.400,157.400 2.400 C 157.070 2.400,156.845 2.175,156.900 1.900 C 156.961 1.596,156.450 1.343,155.600 1.254 C 154.431 1.133,154.332 1.055,155.000 0.783 C 155.449 0.600,152.464 0.476,148.200 0.500 C 142.849 0.531,141.488 0.620,143.600 0.800 M150.400 9.000 C 150.400 9.330,150.670 9.600,151.000 9.600 C 151.375 9.600,151.600 9.979,151.600 10.613 C 151.600 11.169,151.866 11.727,152.191 11.852 C 152.548 11.989,152.895 12.896,153.065 14.140 C 153.300 15.861,153.394 16.036,153.633 15.200 C 153.911 14.231,153.922 14.237,153.966 15.400 C 154.046 17.538,154.476 18.707,154.839 17.779 C 155.100 17.112,155.148 17.154,155.172 18.067 C 155.215 19.704,155.632 20.591,156.050 19.934 C 156.263 19.596,156.392 20.061,156.400 21.200 C 156.408 22.336,156.537 22.804,156.750 22.468 C 156.978 22.107,157.172 22.462,157.348 23.566 C 157.492 24.463,157.742 25.176,157.904 25.151 C 158.924 24.993,159.760 25.238,159.266 25.550 C 158.646 25.943,159.449 26.372,160.933 26.440 C 161.730 26.477,161.720 26.506,160.800 26.800 C 160.065 27.035,160.542 27.143,162.600 27.207 C 164.605 27.270,165.059 27.369,164.200 27.558 C 162.676 27.893,163.705 28.397,165.933 28.406 C 166.888 28.410,167.214 28.530,166.866 28.750 C 166.210 29.167,167.123 29.600,168.656 29.600 C 169.201 29.600,169.549 29.760,169.428 29.955 C 169.189 30.341,170.421 30.763,172.000 30.834 L 173.000 30.880 172.000 31.186 C 171.151 31.446,171.322 31.539,173.133 31.802 C 174.534 32.006,175.083 32.228,174.733 32.450 C 174.401 32.660,175.031 32.808,176.400 32.841 C 178.176 32.884,178.369 32.948,177.400 33.172 L 176.200 33.450 177.500 33.757 C 178.215 33.925,178.800 34.229,178.800 34.432 C 178.800 34.634,179.214 34.800,179.720 34.800 C 180.226 34.800,180.816 34.976,181.031 35.191 C 181.562 35.722,185.998 37.227,186.006 36.878 C 186.009 36.725,186.144 36.780,186.306 37.000 C 186.771 37.634,190.013 39.104,192.200 39.673 C 193.300 39.959,194.438 40.419,194.729 40.696 C 195.019 40.973,195.514 41.200,195.829 41.200 C 196.143 41.200,196.400 41.378,196.400 41.595 C 196.400 41.813,197.120 42.106,198.000 42.246 C 198.880 42.387,199.600 42.615,199.600 42.753 C 199.600 42.892,200.185 43.254,200.900 43.559 C 201.615 43.864,202.955 44.448,203.878 44.857 C 204.801 45.266,205.836 45.600,206.178 45.600 C 206.520 45.600,206.800 45.780,206.800 46.000 C 206.800 46.220,207.205 46.406,207.700 46.413 C 208.195 46.420,208.949 46.690,209.376 47.013 C 210.568 47.914,212.400 47.785,212.400 46.800 C 212.400 46.356,212.667 46.000,213.000 46.000 C 213.333 46.000,213.600 45.644,213.600 45.200 C 213.600 44.756,213.867 44.400,214.200 44.400 C 214.586 44.400,214.802 44.008,214.806 43.300 C 214.811 42.465,214.902 42.342,215.185 42.789 C 215.498 43.284,215.604 43.256,215.853 42.607 C 216.212 41.671,217.036 40.598,218.500 39.160 C 219.105 38.565,219.600 37.926,219.601 37.740 C 219.601 37.553,220.131 36.781,220.778 36.024 C 221.424 35.268,221.875 34.522,221.780 34.367 C 221.509 33.929,223.486 33.556,224.600 33.836 C 225.150 33.974,225.600 34.247,225.600 34.443 C 225.600 34.640,226.261 34.800,227.069 34.800 C 227.876 34.800,228.821 35.042,229.169 35.337 C 229.516 35.632,231.150 36.111,232.800 36.401 C 234.450 36.691,236.286 37.170,236.880 37.464 C 237.474 37.759,238.389 38.000,238.913 38.000 C 239.438 38.000,239.992 38.125,240.145 38.278 C 240.298 38.431,240.643 38.590,240.912 38.631 C 241.180 38.672,242.570 38.998,244.000 39.355 C 245.430 39.712,247.095 40.043,247.700 40.089 C 248.305 40.136,248.800 40.301,248.800 40.455 C 248.800 40.610,249.385 40.854,250.100 40.998 C 250.815 41.142,252.013 41.538,252.761 41.878 C 254.292 42.573,259.955 42.458,260.878 41.714 C 261.165 41.482,261.985 41.167,262.700 41.014 C 263.415 40.862,264.000 40.590,264.000 40.410 C 264.000 39.828,267.232 39.543,276.100 39.342 C 284.317 39.155,284.800 39.184,284.806 39.872 C 284.811 40.488,284.872 40.508,285.200 40.000 C 285.516 39.511,285.589 39.561,285.594 40.267 C 285.602 41.447,286.015 42.438,286.399 42.200 C 286.573 42.093,286.827 42.454,286.965 43.003 C 287.103 43.551,287.392 44.000,287.608 44.000 C 287.849 44.000,287.976 46.198,287.937 49.700 C 287.893 53.667,287.791 54.792,287.600 53.400 L 287.326 51.400 287.263 53.500 C 287.191 55.900,287.103 55.968,285.835 54.600 C 285.325 54.050,284.704 53.600,284.454 53.600 C 284.204 53.600,284.000 53.330,284.000 53.000 C 284.000 52.670,283.809 52.400,283.576 52.400 C 283.343 52.400,283.265 52.219,283.402 51.997 C 283.539 51.776,283.324 51.473,282.925 51.325 C 282.526 51.178,281.525 50.369,280.700 49.528 C 278.670 47.459,278.000 47.518,278.000 49.767 C 278.000 52.110,278.409 53.277,278.842 52.171 C 279.065 51.602,279.151 51.793,279.172 52.900 C 279.187 53.725,279.380 54.400,279.600 54.400 C 279.820 54.400,280.000 54.850,280.000 55.400 C 280.000 56.022,280.227 56.400,280.600 56.400 C 280.973 56.400,281.200 56.778,281.200 57.400 C 281.200 58.022,281.427 58.400,281.800 58.400 C 282.200 58.400,282.400 58.800,282.400 59.600 C 282.400 60.260,282.566 60.800,282.768 60.800 C 282.971 60.800,283.255 61.340,283.400 62.000 C 283.545 62.660,283.817 63.200,284.005 63.200 C 284.193 63.200,284.472 63.605,284.627 64.100 C 284.781 64.595,285.109 65.132,285.354 65.294 C 285.667 65.500,285.651 65.590,285.300 65.594 C 285.025 65.597,284.800 65.791,284.800 66.024 C 284.800 66.257,284.980 66.336,285.200 66.200 C 285.420 66.064,285.600 66.323,285.600 66.776 C 285.600 67.242,285.861 67.600,286.200 67.600 C 286.601 67.600,286.800 68.001,286.800 68.813 C 286.800 69.521,287.049 70.121,287.400 70.255 C 287.742 70.387,288.000 70.983,288.000 71.643 C 288.000 72.279,288.166 72.800,288.368 72.800 C 288.571 72.800,288.855 73.340,289.000 74.000 C 289.145 74.660,289.429 75.200,289.632 75.200 C 289.834 75.200,290.000 75.560,290.000 76.000 C 290.000 76.444,290.267 76.800,290.600 76.800 C 290.973 76.800,291.200 77.178,291.200 77.800 C 291.200 78.350,291.380 78.800,291.600 78.800 C 291.820 78.800,292.000 79.138,292.000 79.551 C 292.000 79.964,292.270 80.526,292.600 80.800 C 292.930 81.074,293.200 81.563,293.200 81.886 C 293.200 82.209,293.560 82.931,294.000 83.491 C 294.440 84.050,294.800 84.754,294.800 85.054 C 294.800 85.354,294.980 85.600,295.200 85.600 C 295.420 85.600,295.579 85.735,295.553 85.900 C 295.392 86.915,295.693 87.601,296.300 87.606 C 296.800 87.611,296.857 87.703,296.499 87.930 C 296.117 88.173,296.173 88.434,296.735 89.038 C 297.140 89.473,297.795 90.857,298.191 92.114 C 298.586 93.371,299.065 94.400,299.255 94.400 C 299.445 94.400,299.571 94.535,299.536 94.700 C 299.416 95.268,300.086 96.400,300.543 96.400 C 300.794 96.400,301.027 96.874,301.061 97.453 C 301.094 98.031,301.290 98.616,301.496 98.752 C 301.702 98.889,302.460 100.260,303.181 101.800 C 303.902 103.340,304.684 105.008,304.918 105.508 C 305.211 106.132,305.436 106.265,305.641 105.934 C 305.815 105.652,305.992 106.020,306.069 106.826 C 306.149 107.661,306.396 108.161,306.700 108.100 C 306.989 108.042,307.200 108.405,307.200 108.957 C 307.200 109.818,308.116 110.630,308.900 110.464 C 309.065 110.429,309.200 110.580,309.200 110.800 C 309.200 111.020,309.524 111.200,309.920 111.200 C 310.316 111.200,310.854 111.414,311.115 111.675 C 311.376 111.936,311.989 112.210,312.477 112.285 C 312.966 112.359,313.463 112.571,313.583 112.756 C 313.702 112.941,314.223 113.224,314.739 113.386 C 316.189 113.838,317.200 115.077,317.200 116.400 C 317.200 117.060,317.380 117.600,317.600 117.600 C 317.820 117.600,318.000 117.857,318.000 118.171 C 318.000 118.486,318.240 118.982,318.533 119.275 C 318.825 119.568,319.191 120.309,319.344 120.920 C 319.498 121.532,319.798 121.925,320.012 121.793 C 320.225 121.661,320.400 122.024,320.400 122.600 C 320.400 123.196,320.572 123.541,320.800 123.400 C 321.027 123.259,321.200 123.600,321.200 124.189 C 321.200 124.759,321.454 125.322,321.764 125.441 C 322.074 125.561,322.437 126.095,322.572 126.629 C 322.706 127.163,322.992 127.600,323.208 127.600 C 323.423 127.600,323.600 127.870,323.600 128.200 C 323.600 128.604,324.024 128.809,324.900 128.828 C 325.970 128.851,326.058 128.914,325.400 129.182 C 324.670 129.480,324.700 129.534,325.738 129.807 C 326.570 130.025,326.731 130.198,326.338 130.447 C 325.965 130.683,326.138 130.790,326.900 130.794 C 327.523 130.797,328.000 131.022,328.000 131.311 C 328.000 131.866,329.388 133.200,329.965 133.200 C 330.161 133.200,331.104 133.987,332.060 134.948 C 333.017 135.910,334.385 136.994,335.100 137.358 C 335.815 137.723,336.400 138.207,336.400 138.434 C 336.400 138.661,336.580 138.736,336.800 138.600 C 337.020 138.464,337.200 138.547,337.200 138.785 C 337.200 139.023,337.636 139.416,338.169 139.659 C 338.702 139.902,339.255 140.563,339.397 141.129 C 339.579 141.855,339.749 142.006,339.975 141.641 C 340.197 141.281,340.379 141.464,340.575 142.241 C 340.793 143.113,340.935 143.231,341.221 142.779 C 341.495 142.346,341.589 142.478,341.594 143.300 C 341.597 143.905,341.780 144.400,342.000 144.400 C 342.220 144.400,342.400 144.610,342.400 144.866 C 342.400 145.312,342.969 146.027,344.500 147.503 C 344.885 147.874,345.200 148.331,345.200 148.517 C 345.200 148.979,346.252 150.000,346.728 150.000 C 346.940 150.000,347.226 150.450,347.364 151.000 C 347.502 151.550,347.792 152.000,348.008 152.000 C 348.223 152.000,348.400 152.371,348.400 152.824 C 348.400 153.277,348.565 153.545,348.767 153.420 C 348.970 153.295,349.259 153.759,349.411 154.450 C 349.614 155.374,349.780 155.560,350.037 155.153 C 350.315 154.714,350.389 154.744,350.394 155.300 C 350.397 155.685,350.670 156.000,351.000 156.000 C 351.340 156.000,351.600 156.359,351.600 156.829 C 351.600 158.306,352.549 158.804,355.271 158.753 C 357.275 158.715,357.551 158.642,356.600 158.400 C 355.454 158.108,355.477 158.090,357.100 157.997 C 358.035 157.944,358.980 157.855,359.200 157.800 C 359.420 157.745,360.095 157.656,360.700 157.603 L 361.800 157.505 360.600 157.200 C 359.529 156.927,359.604 156.890,361.300 156.847 C 362.345 156.821,363.200 156.643,363.200 156.451 C 363.200 156.259,364.119 156.013,365.243 155.906 C 366.366 155.798,367.401 155.526,367.543 155.301 C 367.684 155.077,368.586 154.803,369.547 154.694 C 370.508 154.584,371.408 154.317,371.547 154.101 C 371.686 153.885,372.864 153.577,374.164 153.417 C 375.786 153.218,376.351 153.014,375.964 152.769 C 375.572 152.521,375.843 152.410,376.850 152.406 C 379.208 152.396,381.130 151.926,380.181 151.592 C 379.673 151.413,380.346 151.215,382.104 151.026 C 383.591 150.866,384.705 150.570,384.580 150.368 C 384.451 150.159,385.421 150.000,386.819 150.000 C 389.006 150.000,389.255 150.079,389.012 150.700 C 388.148 152.912,386.430 158.430,386.178 159.800 C 386.017 160.680,385.724 161.505,385.528 161.632 C 385.332 161.760,385.060 162.570,384.924 163.432 C 384.788 164.295,384.510 165.109,384.308 165.242 C 384.105 165.376,383.839 166.231,383.717 167.142 C 383.595 168.054,383.293 168.803,383.047 168.806 C 382.801 168.809,382.870 168.987,383.200 169.200 C 383.600 169.458,383.633 169.590,383.300 169.594 C 383.025 169.597,382.800 169.971,382.800 170.424 C 382.800 170.877,382.640 171.148,382.445 171.028 C 382.249 170.907,381.968 171.616,381.820 172.604 C 381.672 173.592,381.402 174.400,381.221 174.400 C 381.039 174.400,380.765 175.240,380.611 176.268 C 380.412 177.594,380.227 177.971,379.971 177.568 C 379.733 177.190,379.610 177.712,379.606 179.124 C 379.603 180.357,379.441 181.149,379.221 181.013 C 379.008 180.881,378.718 181.872,378.559 183.282 C 378.364 185.009,378.186 185.540,377.988 184.993 C 377.785 184.434,377.609 184.907,377.391 186.600 C 377.162 188.375,377.000 188.792,376.769 188.200 C 376.508 187.532,376.452 187.598,376.428 188.604 C 376.409 189.434,376.027 190.117,375.200 190.800 C 374.540 191.345,374.000 192.018,374.000 192.296 C 374.000 192.573,373.730 192.800,373.400 192.800 C 373.070 192.800,372.800 193.070,372.800 193.400 C 372.800 193.730,372.530 194.000,372.200 194.000 C 371.870 194.000,371.600 194.193,371.600 194.429 C 371.600 194.932,370.406 196.212,370.387 195.729 C 370.380 195.548,370.110 195.749,369.787 196.176 C 369.464 196.604,369.200 196.818,369.200 196.653 C 369.200 196.488,368.987 196.484,368.727 196.645 C 368.401 196.847,368.495 197.033,369.027 197.241 C 369.701 197.505,369.710 197.547,369.100 197.572 C 368.715 197.587,368.400 197.793,368.400 198.029 C 368.400 198.512,367.409 199.600,366.969 199.600 C 366.526 199.600,364.000 202.305,364.000 202.780 C 364.000 203.011,363.826 203.200,363.613 203.200 C 363.156 203.200,360.294 205.988,360.713 206.025 C 360.871 206.039,360.583 206.218,360.074 206.422 C 359.565 206.626,359.261 206.975,359.398 207.197 C 359.535 207.418,359.367 207.600,359.024 207.600 C 358.681 207.600,358.400 207.870,358.400 208.200 C 358.400 208.530,358.130 208.800,357.800 208.800 C 357.470 208.800,357.245 208.939,357.300 209.108 C 357.451 209.572,354.378 212.855,350.014 216.894 C 349.126 217.715,348.400 218.581,348.400 218.817 C 348.400 219.054,348.233 219.144,348.029 219.018 C 347.825 218.892,347.542 219.154,347.400 219.600 C 347.258 220.046,346.975 220.308,346.771 220.182 C 346.567 220.056,346.400 220.133,346.400 220.354 C 346.400 220.575,345.500 221.642,344.400 222.724 C 343.300 223.807,342.400 224.897,342.400 225.147 C 342.400 225.396,342.220 225.600,342.000 225.600 C 341.780 225.600,341.597 226.095,341.594 226.700 C 341.590 227.485,341.487 227.642,341.237 227.247 C 340.981 226.842,340.810 227.044,340.600 228.000 C 340.390 228.956,340.219 229.158,339.963 228.753 C 339.685 228.314,339.611 228.344,339.606 228.900 C 339.603 229.285,339.825 229.614,340.100 229.632 C 340.414 229.651,340.380 229.750,340.007 229.896 C 338.971 230.302,338.400 231.111,338.400 232.171 C 338.400 232.819,338.178 233.200,337.800 233.200 C 337.419 233.200,337.190 233.601,337.172 234.300 C 337.148 235.246,337.100 235.289,336.834 234.607 C 336.576 233.947,336.477 234.066,336.244 235.307 C 336.073 236.218,335.737 236.800,335.382 236.800 C 335.062 236.800,334.800 237.070,334.800 237.400 C 334.800 237.730,334.609 238.000,334.376 238.000 C 334.143 238.000,334.064 238.180,334.200 238.400 C 334.336 238.620,334.257 238.800,334.024 238.800 C 333.791 238.800,333.600 238.978,333.600 239.195 C 333.600 239.413,333.329 239.908,332.997 240.295 C 332.665 240.683,332.399 241.140,332.406 241.310 C 332.413 241.481,331.965 242.042,331.410 242.556 C 330.854 243.071,330.400 243.615,330.400 243.765 C 330.400 243.915,329.783 245.003,329.029 246.182 C 328.275 247.360,327.765 248.432,327.896 248.562 C 328.026 248.693,327.853 248.800,327.511 248.800 C 327.118 248.800,326.692 249.465,326.357 250.600 C 326.065 251.590,325.595 252.400,325.313 252.400 C 325.031 252.400,324.800 252.766,324.800 253.213 C 324.800 253.659,324.530 254.129,324.200 254.255 C 323.524 254.515,323.354 257.051,323.998 257.267 C 324.216 257.340,324.513 259.065,324.657 261.100 C 324.839 263.661,325.074 264.800,325.422 264.800 C 325.790 264.800,325.973 266.256,326.111 270.300 C 326.231 273.809,326.680 277.827,327.351 281.400 C 327.929 284.480,328.761 289.790,329.199 293.200 C 329.637 296.610,330.162 299.850,330.366 300.400 C 330.570 300.950,330.826 302.546,330.935 303.946 C 331.044 305.347,331.328 306.688,331.566 306.926 C 332.227 307.587,332.087 308.000,331.200 308.000 C 330.756 308.000,330.400 308.267,330.400 308.600 C 330.400 308.930,330.130 309.200,329.800 309.200 C 329.470 309.200,329.200 309.360,329.200 309.557 C 329.200 309.753,328.729 310.032,328.153 310.176 C 327.577 310.321,327.202 310.535,327.319 310.653 C 327.529 310.863,326.192 312.400,325.800 312.400 C 325.690 312.400,324.880 313.120,324.000 314.000 C 323.120 314.880,322.284 315.600,322.143 315.600 C 322.002 315.600,321.391 316.119,320.785 316.753 C 320.179 317.387,319.125 318.236,318.442 318.639 C 317.759 319.042,317.200 319.604,317.200 319.886 C 317.200 320.169,316.930 320.400,316.600 320.400 C 316.270 320.400,316.000 320.580,316.000 320.800 C 316.000 321.020,315.806 321.200,315.569 321.200 C 315.332 321.200,314.624 321.695,313.994 322.300 C 310.291 325.861,309.032 327.000,308.802 327.000 C 308.408 327.000,307.200 328.293,307.200 328.714 C 307.200 328.917,306.615 329.272,305.900 329.501 C 304.955 329.804,304.819 329.940,305.400 329.999 C 306.079 330.068,306.049 330.124,305.200 330.375 C 304.650 330.538,304.245 330.880,304.300 331.135 C 304.356 331.395,303.915 331.612,303.300 331.628 C 302.340 331.653,302.301 331.697,303.000 331.978 C 303.764 332.286,303.759 332.307,302.884 332.450 C 302.380 332.533,301.986 332.780,302.008 333.000 C 302.029 333.220,301.632 333.506,301.124 333.635 C 300.616 333.765,300.245 334.080,300.300 334.335 C 300.355 334.591,300.040 334.800,299.600 334.800 C 299.160 334.800,298.800 334.968,298.800 335.173 C 298.800 335.378,298.416 335.668,297.947 335.817 C 297.359 336.003,297.245 336.181,297.581 336.388 C 297.912 336.593,297.788 336.762,297.194 336.918 C 296.709 337.044,296.437 337.336,296.583 337.573 C 296.728 337.808,296.567 338.000,296.224 338.000 C 295.482 338.000,295.361 340.943,295.990 343.694 C 297.617 350.811,297.697 359.200,296.137 359.200 C 295.878 359.200,295.607 359.335,295.533 359.500 C 295.460 359.665,294.732 360.373,293.916 361.074 C 292.721 362.100,292.565 362.383,293.116 362.527 C 293.492 362.626,293.170 362.731,292.400 362.760 C 291.340 362.800,291.146 362.906,291.600 363.200 C 292.076 363.508,291.993 363.590,291.200 363.600 C 290.025 363.614,288.578 364.361,289.600 364.425 C 289.930 364.446,289.685 364.651,289.055 364.880 C 288.196 365.193,288.046 365.383,288.455 365.642 C 288.846 365.890,288.718 365.991,288.000 366.000 C 287.207 366.010,287.124 366.092,287.600 366.400 C 288.115 366.733,288.101 366.796,287.500 366.844 C 287.115 366.875,286.652 366.923,286.471 366.950 C 285.986 367.024,284.800 368.283,284.800 368.725 C 284.800 368.935,284.422 369.206,283.960 369.326 C 283.497 369.447,283.238 369.738,283.383 369.973 C 283.528 370.208,283.367 370.400,283.024 370.400 C 282.507 370.400,282.400 370.989,282.400 373.824 C 282.400 375.802,282.245 377.151,282.033 377.020 C 281.830 376.895,281.541 377.359,281.389 378.050 C 281.196 378.931,281.015 379.147,280.784 378.774 C 280.549 378.395,280.371 378.576,280.163 379.406 C 279.903 380.442,279.836 380.484,279.563 379.785 C 279.323 379.170,279.244 379.303,279.200 380.400 C 279.154 381.557,279.084 381.661,278.800 381.000 C 278.506 380.316,278.452 380.301,278.428 380.900 C 278.413 381.285,278.170 381.600,277.889 381.600 C 277.229 381.600,276.000 383.034,276.000 383.805 C 276.000 384.132,275.794 384.400,275.543 384.400 C 275.292 384.400,273.675 385.795,271.951 387.500 C 270.227 389.205,268.587 390.804,268.308 391.054 C 268.029 391.303,267.352 392.068,266.804 392.754 C 266.257 393.439,265.537 394.003,265.204 394.006 C 264.721 394.011,264.706 394.080,265.134 394.351 C 265.536 394.606,265.453 394.745,264.794 394.918 C 264.313 395.043,264.027 395.319,264.157 395.531 C 264.288 395.743,264.115 396.024,263.772 396.155 C 263.430 396.287,263.261 396.576,263.398 396.797 C 263.535 397.019,263.393 397.200,263.082 397.200 C 262.459 397.200,261.138 398.381,259.600 400.311 C 259.050 401.001,258.375 401.574,258.100 401.583 C 257.825 401.592,257.600 401.870,257.600 402.200 C 257.600 402.530,257.420 402.800,257.200 402.800 C 256.980 402.800,256.800 403.070,256.800 403.400 C 256.800 403.730,256.530 404.000,256.200 404.000 C 255.870 404.000,255.600 404.180,255.600 404.400 C 255.600 404.620,255.330 404.800,255.000 404.800 C 254.670 404.800,254.400 404.999,254.400 405.243 C 254.400 405.487,253.410 406.661,252.200 407.852 C 250.990 409.043,250.000 410.204,250.000 410.432 C 250.000 410.660,249.808 410.728,249.573 410.583 C 249.338 410.438,249.048 410.696,248.928 411.155 C 248.807 411.615,248.550 411.892,248.355 411.772 C 248.160 411.651,248.000 411.833,248.000 412.176 C 248.000 412.519,247.730 412.800,247.400 412.800 C 247.070 412.800,246.800 412.980,246.800 413.200 C 246.800 413.946,245.331 415.074,243.963 415.379 C 240.188 416.220,239.200 416.390,236.800 416.612 C 235.370 416.745,233.840 417.012,233.400 417.205 C 232.960 417.399,231.160 417.734,229.400 417.951 C 227.640 418.167,225.390 418.529,224.400 418.754 C 223.410 418.980,221.829 419.173,220.887 419.183 C 219.706 419.195,219.100 419.396,218.932 419.834 C 218.736 420.344,218.623 420.363,218.350 419.934 C 218.097 419.534,218.011 419.526,218.006 419.900 C 218.002 420.260,217.050 420.400,214.600 420.400 L 211.200 420.400 211.172 418.700 C 211.150 417.383,211.066 417.180,210.800 417.800 C 210.484 418.534,210.453 418.518,210.423 417.600 C 210.357 415.652,209.912 414.525,209.561 415.421 C 209.300 416.088,209.252 416.046,209.228 415.133 C 209.185 413.496,208.768 412.609,208.350 413.266 C 208.135 413.606,208.000 413.145,207.978 412.000 C 207.952 410.624,207.863 410.388,207.600 411.000 C 207.297 411.706,207.253 411.669,207.228 410.687 C 207.213 410.076,206.930 409.471,206.600 409.345 C 206.258 409.213,206.000 408.617,206.000 407.957 C 206.000 407.195,205.795 406.800,205.400 406.800 C 205.027 406.800,204.800 406.422,204.800 405.800 C 204.800 405.250,204.609 404.800,204.376 404.800 C 204.143 404.800,204.064 404.620,204.200 404.400 C 204.336 404.180,204.257 404.000,204.024 404.000 C 203.791 404.000,203.600 403.730,203.600 403.400 C 203.600 403.070,203.330 402.800,203.000 402.800 C 202.670 402.800,202.421 402.665,202.447 402.500 C 202.600 401.531,202.322 400.800,201.800 400.800 C 201.400 400.800,201.200 400.400,201.200 399.600 C 201.200 398.940,201.020 398.400,200.800 398.400 C 200.580 398.400,200.400 398.130,200.400 397.800 C 200.400 397.470,200.085 397.197,199.700 397.194 C 199.102 397.189,199.087 397.131,199.600 396.800 C 200.000 396.542,200.033 396.410,199.700 396.406 C 199.425 396.403,199.200 396.040,199.200 395.600 C 199.200 395.156,198.933 394.800,198.600 394.800 C 198.270 394.800,198.000 394.590,198.000 394.334 C 198.000 393.588,196.677 390.800,196.323 390.800 C 196.145 390.800,196.000 390.612,196.000 390.383 C 196.000 390.154,195.817 389.749,195.593 389.483 C 193.931 387.512,193.600 386.991,193.600 386.339 C 193.600 385.932,193.424 385.600,193.210 385.600 C 192.995 385.600,192.452 384.835,192.003 383.900 C 191.067 381.953,190.321 380.692,189.928 380.394 C 189.779 380.280,189.452 378.570,189.203 376.594 C 188.487 370.907,188.387 370.400,187.982 370.400 C 187.772 370.400,187.600 369.619,187.600 368.664 C 187.600 367.709,187.332 366.044,187.004 364.964 C 186.677 363.884,186.407 362.246,186.404 361.324 C 186.402 360.402,186.245 359.552,186.056 359.435 C 185.867 359.318,185.605 358.452,185.475 357.511 C 184.965 353.819,184.318 351.485,183.962 352.048 C 183.682 352.490,183.611 352.466,183.606 351.929 C 183.603 351.559,183.354 351.011,183.053 350.710 C 182.752 350.409,182.372 349.742,182.209 349.228 C 181.979 348.504,181.834 348.419,181.562 348.847 C 181.316 349.236,181.209 349.043,181.200 348.200 C 181.186 346.865,180.456 345.303,180.359 346.400 C 180.329 346.730,180.182 346.460,180.030 345.800 C 179.879 345.140,179.541 344.645,179.278 344.700 C 178.990 344.760,178.800 344.314,178.800 343.576 C 178.800 342.863,178.633 342.456,178.400 342.600 C 178.180 342.736,178.000 342.489,178.000 342.052 C 178.000 341.615,177.730 340.987,177.400 340.657 C 177.070 340.327,176.800 339.864,176.800 339.629 C 176.800 339.393,176.640 339.200,176.443 339.200 C 176.247 339.200,175.974 338.750,175.836 338.200 C 175.698 337.650,175.408 337.200,175.192 337.200 C 174.977 337.200,174.800 336.840,174.800 336.400 C 174.800 335.956,174.533 335.600,174.200 335.600 C 173.827 335.600,173.600 335.222,173.600 334.600 C 173.600 333.978,173.373 333.600,173.000 333.600 C 172.670 333.600,172.400 333.330,172.400 333.000 C 172.400 332.670,172.085 332.387,171.700 332.372 C 171.101 332.348,171.116 332.294,171.800 332.000 C 172.484 331.706,172.499 331.652,171.900 331.628 C 171.515 331.613,171.200 331.330,171.200 331.000 C 171.200 330.670,170.885 330.386,170.500 330.368 C 170.082 330.350,170.001 330.256,170.300 330.135 C 170.575 330.024,170.800 329.758,170.800 329.543 C 170.800 329.328,170.620 329.264,170.400 329.400 C 170.153 329.552,170.000 328.871,170.000 327.624 C 170.000 326.288,169.830 325.589,169.500 325.568 C 169.100 325.543,169.100 325.496,169.500 325.335 C 169.781 325.222,170.000 324.446,170.000 323.567 C 170.000 322.441,170.169 322.000,170.600 322.000 C 171.059 322.000,171.200 321.494,171.200 319.843 C 171.200 318.294,171.369 317.621,171.800 317.455 C 172.180 317.310,172.400 316.696,172.400 315.784 C 172.400 314.991,172.670 314.073,173.000 313.743 C 173.330 313.413,173.600 312.455,173.600 311.614 C 173.600 310.624,173.812 310.004,174.200 309.855 C 174.613 309.697,174.800 309.052,174.800 307.789 C 174.800 306.779,174.960 306.051,175.155 306.172 C 175.588 306.440,175.987 305.062,175.995 303.276 C 175.998 302.497,176.164 302.054,176.400 302.200 C 176.646 302.352,176.815 301.629,176.840 300.324 C 176.869 298.750,176.955 298.459,177.169 299.200 C 177.939 301.861,178.273 288.591,177.718 277.400 L 177.400 271.000 177.177 275.000 L 176.955 279.000 176.877 273.876 C 176.832 270.885,176.647 268.847,176.433 268.980 C 176.230 269.105,175.946 268.665,175.801 268.003 C 175.655 267.342,175.371 266.800,175.168 266.800 C 174.966 266.800,174.800 266.530,174.800 266.200 C 174.800 265.870,174.530 265.600,174.200 265.600 C 173.825 265.600,173.600 265.221,173.600 264.587 C 173.600 264.031,173.330 263.471,173.000 263.345 C 172.670 263.218,172.400 262.684,172.400 262.157 C 172.400 261.573,172.166 261.200,171.800 261.200 C 171.464 261.200,171.200 260.843,171.200 260.387 C 171.200 259.941,170.930 259.471,170.600 259.345 C 170.258 259.213,170.000 258.617,170.000 257.957 C 170.000 257.321,169.820 256.800,169.600 256.800 C 169.380 256.800,169.200 256.524,169.200 256.187 C 169.200 255.851,168.930 255.471,168.600 255.345 C 168.270 255.218,168.000 254.877,168.000 254.586 C 168.000 254.295,167.767 253.819,167.483 253.529 C 167.199 253.238,166.718 252.370,166.414 251.600 C 166.110 250.830,165.532 249.878,165.131 249.484 C 164.729 249.091,164.400 248.506,164.400 248.184 C 164.400 247.863,164.220 247.600,164.000 247.600 C 163.780 247.600,163.600 247.330,163.600 247.000 C 163.600 246.670,163.330 246.400,163.000 246.400 C 162.625 246.400,162.400 246.021,162.400 245.387 C 162.400 244.831,162.130 244.271,161.800 244.145 C 161.470 244.018,161.200 243.700,161.200 243.437 C 161.200 242.711,160.243 240.807,159.876 240.803 C 159.698 240.801,159.664 240.620,159.800 240.400 C 159.936 240.180,159.857 240.000,159.624 240.000 C 159.391 240.000,159.200 239.730,159.200 239.400 C 159.200 239.070,158.936 238.800,158.613 238.800 C 158.255 238.800,158.115 238.565,158.255 238.200 C 158.382 237.870,158.276 237.600,158.019 237.600 C 157.763 237.600,157.664 237.420,157.800 237.200 C 157.936 236.980,157.857 236.800,157.624 236.800 C 157.391 236.800,157.200 236.530,157.200 236.200 C 157.200 235.870,157.020 235.600,156.800 235.600 C 156.580 235.600,156.400 235.330,156.400 235.000 C 156.400 234.670,156.055 234.055,155.633 233.633 C 155.212 233.212,154.955 232.778,155.063 232.670 C 155.172 232.562,154.863 232.347,154.377 232.193 C 153.732 231.988,153.633 231.827,154.012 231.593 C 154.679 231.181,153.611 230.014,152.529 229.972 C 151.856 229.946,151.860 229.920,152.571 229.642 C 153.260 229.372,153.271 229.313,152.671 229.083 C 152.302 228.941,152.000 228.549,152.000 228.213 C 152.000 227.876,151.820 227.600,151.600 227.600 C 150.994 227.600,151.121 226.422,151.800 225.743 C 152.148 225.395,152.400 224.417,152.400 223.414 C 152.400 222.247,152.595 221.611,153.000 221.455 C 153.396 221.303,153.600 220.677,153.600 219.613 C 153.600 218.726,153.741 218.000,153.913 218.000 C 154.085 218.000,154.461 217.145,154.748 216.100 C 155.634 212.881,156.469 210.260,157.047 208.886 C 157.991 206.644,157.785 204.462,156.603 204.165 C 156.054 204.027,155.693 203.773,155.800 203.599 C 156.031 203.227,155.052 202.800,153.967 202.800 C 153.545 202.800,153.200 202.620,153.200 202.400 C 153.200 202.180,152.435 201.997,151.500 201.994 C 150.418 201.990,149.994 201.865,150.334 201.650 C 150.991 201.232,150.104 200.815,148.467 200.772 C 147.554 200.748,147.512 200.700,148.179 200.439 C 149.139 200.063,147.917 199.645,145.600 199.558 L 144.200 199.505 145.400 199.200 C 146.395 198.947,146.190 198.878,144.200 198.800 C 142.314 198.726,142.057 198.647,143.000 198.435 L 144.200 198.165 142.600 197.887 C 141.720 197.734,140.460 197.583,139.800 197.552 C 138.607 197.495,138.608 197.493,140.000 197.200 C 140.777 197.037,141.033 196.882,140.576 196.853 C 140.124 196.824,139.404 196.536,138.976 196.213 C 138.549 195.890,137.945 195.620,137.634 195.613 C 136.988 195.598,136.699 195.350,133.400 191.966 C 124.440 182.776,122.744 181.541,121.684 183.436 C 121.488 183.786,121.209 184.056,121.064 184.036 C 119.451 183.817,117.145 184.112,116.657 184.600 C 116.303 184.954,115.325 185.200,114.271 185.200 C 113.053 185.200,112.412 185.391,112.255 185.800 C 112.090 186.230,111.418 186.400,109.884 186.400 C 108.706 186.400,106.945 186.643,105.971 186.939 C 99.755 188.832,95.690 189.964,94.020 190.267 C 93.469 190.367,92.923 190.573,92.809 190.724 C 92.694 190.876,92.240 191.047,91.800 191.105 C 88.981 191.476,86.144 192.102,85.820 192.423 C 85.601 192.640,80.886 192.800,74.707 192.800 C 65.536 192.800,63.941 192.887,63.745 193.400 C 63.442 194.188,58.003 194.282,57.994 193.500 C 57.990 193.167,57.858 193.200,57.600 193.600 C 57.269 194.113,57.211 194.098,57.206 193.500 C 57.203 193.115,56.930 192.800,56.600 192.800 C 56.270 192.800,56.000 192.607,56.000 192.371 C 56.000 191.875,55.011 190.808,54.529 190.784 C 54.348 190.775,53.577 190.235,52.815 189.584 C 52.053 188.933,51.264 188.400,51.061 188.400 C 50.858 188.400,50.271 187.946,49.756 187.390 C 49.242 186.835,48.726 186.385,48.610 186.390 C 47.500 186.441,47.200 186.315,47.200 185.800 C 47.200 185.470,46.930 185.200,46.600 185.200 C 46.270 185.200,46.000 185.023,46.000 184.808 C 46.000 184.592,45.563 184.306,45.029 184.172 C 44.495 184.037,43.961 183.674,43.841 183.364 C 43.722 183.054,43.304 182.792,42.913 182.783 C 42.521 182.774,41.758 182.234,41.219 181.583 C 40.679 180.932,40.004 180.400,39.719 180.400 C 39.433 180.400,39.200 180.220,39.200 180.000 C 39.200 179.780,39.007 179.600,38.771 179.600 C 38.275 179.600,37.000 178.407,37.000 177.942 C 37.000 177.768,36.685 177.258,36.300 176.808 C 35.915 176.359,35.600 175.855,35.600 175.688 C 35.600 175.522,35.144 174.714,34.586 173.893 C 34.028 173.072,33.694 172.400,33.844 172.400 C 33.994 172.400,33.652 171.969,33.083 171.442 C 32.515 170.915,32.158 170.375,32.291 170.242 C 32.424 170.109,32.323 170.000,32.067 170.000 C 31.810 170.000,31.600 169.640,31.600 169.200 C 31.600 168.756,31.333 168.400,31.000 168.400 C 30.670 168.400,30.421 168.265,30.447 168.100 C 30.600 167.131,30.322 166.400,29.800 166.400 C 29.470 166.400,29.200 166.130,29.200 165.800 C 29.200 165.470,28.885 165.187,28.500 165.172 C 27.901 165.148,27.916 165.094,28.600 164.800 C 29.284 164.506,29.299 164.452,28.700 164.428 C 28.184 164.407,27.998 164.058,27.994 163.100 C 27.989 162.114,27.894 161.945,27.600 162.400 C 27.284 162.889,27.211 162.839,27.206 162.133 C 27.196 160.699,26.751 159.834,26.350 160.466 C 26.106 160.853,26.011 160.760,26.006 160.133 C 25.996 158.699,25.551 157.834,25.150 158.466 C 24.926 158.820,24.810 158.553,24.806 157.676 C 24.803 156.948,24.642 156.450,24.449 156.570 C 24.255 156.689,23.980 156.205,23.837 155.494 C 23.632 154.477,23.494 154.329,23.194 154.800 C 22.899 155.264,22.811 155.147,22.806 154.287 C 22.803 153.672,22.532 153.072,22.200 152.945 C 21.870 152.818,21.600 152.464,21.600 152.157 C 21.600 151.851,21.420 151.600,21.200 151.600 C 20.980 151.600,20.800 151.268,20.800 150.861 C 20.800 150.455,20.440 149.707,20.000 149.200 C 19.560 148.693,19.200 148.035,19.200 147.739 C 19.200 147.442,18.968 147.200,18.685 147.200 C 18.402 147.200,18.140 146.798,18.103 146.306 C 18.066 145.814,17.848 145.349,17.618 145.273 C 17.388 145.196,17.200 144.878,17.200 144.567 C 17.200 144.255,16.885 143.986,16.500 143.968 C 16.082 143.950,16.001 143.856,16.300 143.735 C 16.575 143.624,16.800 143.358,16.800 143.143 C 16.800 142.928,16.620 142.864,16.400 143.000 C 16.166 143.145,16.000 142.730,16.000 142.000 C 16.000 141.270,15.834 140.855,15.600 141.000 C 15.380 141.136,15.200 140.917,15.200 140.513 C 15.200 139.716,13.896 138.404,13.095 138.394 C 12.706 138.389,12.707 138.320,13.101 138.070 C 13.482 137.828,13.423 137.561,12.850 136.945 C 12.436 136.502,11.964 135.716,11.800 135.200 C 11.636 134.684,11.170 133.905,10.765 133.470 C 10.359 133.035,10.122 132.526,10.237 132.339 C 10.353 132.153,10.257 132.000,10.024 132.000 C 9.411 132.000,9.503 131.239,10.200 130.543 C 10.721 130.022,11.002 128.877,10.847 127.900 C 10.821 127.735,11.070 127.600,11.400 127.600 C 11.735 127.600,12.000 127.244,12.000 126.795 C 12.000 126.352,12.165 125.677,12.366 125.295 C 12.966 124.158,14.000 121.700,14.000 121.411 C 14.000 121.264,14.270 120.873,14.600 120.543 C 14.930 120.213,15.200 119.506,15.200 118.971 C 15.200 118.437,15.380 118.000,15.600 118.000 C 15.820 118.000,16.000 117.447,16.000 116.771 C 16.000 116.096,16.270 115.273,16.600 114.943 C 16.930 114.613,17.213 113.681,17.228 112.871 C 17.249 111.756,17.331 111.590,17.563 112.185 C 17.770 112.713,17.951 112.006,18.117 110.019 C 18.253 108.397,18.551 106.954,18.779 106.813 C 19.007 106.672,19.312 105.666,19.457 104.578 C 19.602 103.490,19.964 102.456,20.260 102.280 C 20.568 102.098,20.800 101.281,20.800 100.380 C 20.800 99.511,20.980 98.800,21.200 98.800 C 21.420 98.800,21.600 97.810,21.600 96.600 C 21.600 94.911,21.739 94.400,22.200 94.400 C 22.642 94.400,22.812 93.901,22.847 92.500 C 22.888 90.870,22.933 90.771,23.165 91.800 L 23.435 93.000 23.713 91.400 C 23.866 90.520,24.011 89.170,24.035 88.400 C 24.076 87.113,24.106 87.081,24.400 88.000 C 24.631 88.722,24.746 88.167,24.813 86.000 C 24.885 83.658,24.965 83.307,25.178 84.400 C 25.421 85.643,25.485 85.486,25.747 83.000 C 26.186 78.847,26.280 78.438,26.396 80.200 L 26.500 81.800 26.820 80.000 C 26.997 79.010,27.180 77.390,27.227 76.400 L 27.314 74.600 27.600 76.200 C 27.854 77.621,27.893 77.498,27.943 75.100 C 27.988 72.992,28.132 72.400,28.600 72.400 C 28.930 72.400,29.200 72.130,29.200 71.800 C 29.200 71.470,29.470 71.200,29.800 71.200 C 30.130 71.200,30.400 71.050,30.400 70.868 C 30.400 70.685,30.895 70.280,31.500 69.968 C 32.105 69.655,32.803 69.220,33.051 69.000 C 33.299 68.780,33.908 68.330,34.405 68.000 C 35.769 67.093,36.798 65.920,36.563 65.539 C 36.447 65.353,36.768 65.197,37.276 65.194 C 37.941 65.189,38.049 65.092,37.662 64.847 C 37.269 64.597,37.424 64.430,38.241 64.225 C 39.019 64.030,39.201 63.848,38.841 63.625 C 38.481 63.403,38.664 63.221,39.441 63.025 C 40.313 62.807,40.431 62.665,39.979 62.379 C 39.530 62.094,39.604 62.011,40.313 62.006 C 40.814 62.003,41.329 61.730,41.455 61.400 C 41.582 61.070,42.026 60.800,42.443 60.800 C 42.859 60.800,43.200 60.549,43.200 60.243 C 43.200 59.936,43.481 59.578,43.825 59.446 C 44.169 59.314,44.339 59.024,44.202 58.803 C 44.057 58.569,44.425 58.397,45.076 58.394 C 45.851 58.390,46.033 58.282,45.662 58.047 C 45.265 57.795,45.401 57.636,46.178 57.441 C 46.758 57.296,47.125 57.002,46.993 56.788 C 46.861 56.575,47.039 56.400,47.389 56.400 C 47.739 56.400,48.129 56.130,48.255 55.800 C 48.382 55.470,48.667 55.200,48.890 55.200 C 49.112 55.200,49.992 54.480,50.846 53.600 C 51.700 52.720,52.502 52.000,52.628 52.000 C 53.128 52.000,54.000 50.816,54.006 50.129 C 54.011 49.512,54.072 49.492,54.400 50.000 C 54.658 50.400,54.790 50.433,54.794 50.100 C 54.797 49.825,55.070 49.600,55.400 49.600 C 55.730 49.600,56.000 49.336,56.000 49.013 C 56.000 48.655,56.235 48.515,56.600 48.655 C 56.980 48.801,57.200 48.650,57.200 48.243 C 57.200 47.889,57.470 47.600,57.800 47.600 C 58.130 47.600,58.403 47.285,58.406 46.900 C 58.411 46.302,58.469 46.287,58.800 46.800 C 59.114 47.285,59.189 47.228,59.194 46.500 C 59.197 46.001,59.448 45.600,59.757 45.600 C 60.063 45.600,60.428 45.143,60.568 44.584 C 60.709 44.025,60.985 43.667,61.183 43.789 C 61.381 43.912,61.647 43.683,61.774 43.282 C 61.901 42.881,62.994 41.548,64.203 40.320 C 65.411 39.092,66.400 37.927,66.400 37.732 C 66.400 37.536,67.031 36.781,67.802 36.053 C 68.573 35.326,69.103 34.566,68.979 34.365 C 68.854 34.164,68.943 34.000,69.176 34.000 C 69.409 34.000,69.600 33.730,69.600 33.400 C 69.600 33.070,69.870 32.800,70.200 32.800 C 70.720 32.800,70.882 32.385,70.772 31.331 C 70.757 31.184,71.252 30.838,71.872 30.564 C 72.492 30.290,72.730 30.039,72.400 30.007 C 72.037 29.972,72.166 29.803,72.726 29.578 C 73.235 29.374,73.539 29.025,73.402 28.803 C 73.265 28.582,73.433 28.400,73.776 28.400 C 74.119 28.400,74.400 28.196,74.400 27.947 C 74.400 27.698,74.805 27.143,75.300 26.713 C 75.795 26.284,76.200 25.783,76.200 25.600 C 76.200 25.417,76.602 24.919,77.093 24.493 C 77.584 24.067,77.869 23.602,77.726 23.459 C 77.583 23.317,77.677 23.200,77.933 23.200 C 78.190 23.200,78.400 22.930,78.400 22.600 C 78.400 22.270,78.670 22.000,79.000 22.000 C 79.330 22.000,79.600 21.749,79.600 21.443 C 79.600 21.136,79.870 20.782,80.200 20.655 C 80.530 20.529,80.800 19.969,80.800 19.413 C 80.800 18.779,81.025 18.400,81.400 18.400 C 81.730 18.400,82.000 18.130,82.000 17.800 C 82.000 17.470,82.270 17.200,82.600 17.200 C 82.930 17.200,83.200 17.020,83.200 16.800 C 83.200 16.580,83.470 16.400,83.800 16.400 C 84.130 16.400,84.400 16.130,84.400 15.800 C 84.400 15.470,84.580 15.200,84.800 15.200 C 85.020 15.200,85.200 14.939,85.200 14.619 C 85.200 13.935,90.101 14.110,90.333 14.803 C 90.408 15.026,92.018 15.200,94.000 15.200 C 96.089 15.200,97.590 15.370,97.672 15.616 C 97.887 16.260,110.086 16.341,110.300 15.700 C 110.412 15.364,111.376 15.200,113.233 15.200 C 114.755 15.200,116.000 15.043,116.000 14.852 C 116.000 14.660,117.125 14.382,118.500 14.234 C 119.875 14.087,121.540 13.805,122.200 13.608 C 122.860 13.411,124.030 13.165,124.800 13.062 C 128.297 12.592,132.270 11.875,133.000 11.583 C 133.440 11.406,135.134 11.166,136.765 11.049 C 138.396 10.932,139.837 10.664,139.967 10.454 C 140.096 10.244,141.687 9.943,143.501 9.784 C 145.316 9.626,146.800 9.329,146.800 9.125 C 146.800 8.920,146.980 8.864,147.200 9.000 C 147.420 9.136,147.600 9.057,147.600 8.824 C 147.600 8.591,148.230 8.400,149.000 8.400 C 149.978 8.400,150.400 8.581,150.400 9.000 M257.700 33.489 C 256.985 33.578,255.815 33.578,255.100 33.489 C 254.385 33.401,254.970 33.328,256.400 33.328 C 257.830 33.328,258.415 33.401,257.700 33.489 M178.565 289.200 C 178.565 293.050,178.625 294.625,178.698 292.700 C 178.771 290.775,178.771 287.625,178.698 285.700 C 178.625 283.775,178.565 285.350,178.565 289.200 M379.645 286.277 C 377.578 286.830,376.400 287.558,376.400 288.283 C 376.400 288.469,376.085 288.899,375.700 289.238 C 374.480 290.310,372.800 292.534,372.800 293.077 C 372.800 293.365,372.530 293.600,372.200 293.600 C 371.870 293.600,371.600 293.881,371.600 294.224 C 371.600 294.567,371.420 294.736,371.200 294.600 C 370.967 294.456,370.800 294.863,370.800 295.576 C 370.800 296.397,370.603 296.800,370.200 296.800 C 369.870 296.800,369.600 297.070,369.600 297.400 C 369.600 297.730,369.330 298.000,369.000 298.000 C 368.670 298.000,368.400 298.270,368.400 298.600 C 368.400 298.930,368.220 299.200,368.000 299.200 C 367.780 299.200,367.600 299.470,367.600 299.800 C 367.600 300.130,367.285 300.413,366.900 300.428 C 366.301 300.452,366.316 300.506,367.000 300.800 C 367.676 301.090,367.603 301.148,366.533 301.172 C 364.723 301.212,363.778 301.613,364.466 302.050 C 364.810 302.267,364.429 302.392,363.400 302.400 C 362.373 302.408,361.991 302.533,362.332 302.750 C 362.708 302.988,362.494 303.161,361.606 303.339 C 360.904 303.479,360.458 303.770,360.597 303.995 C 360.735 304.218,360.491 304.400,360.056 304.400 C 358.951 304.400,357.967 304.823,358.200 305.199 C 358.307 305.373,357.946 305.627,357.397 305.765 C 356.849 305.903,356.400 306.192,356.400 306.408 C 356.400 306.623,356.040 306.800,355.600 306.800 C 355.156 306.800,354.800 307.067,354.800 307.400 C 354.800 307.800,354.400 308.000,353.600 308.000 C 352.800 308.000,352.400 308.200,352.400 308.600 C 352.400 309.019,351.978 309.200,351.000 309.200 C 350.230 309.200,349.600 309.380,349.600 309.600 C 349.600 309.820,349.330 310.000,349.000 310.000 C 348.670 310.000,348.400 310.270,348.400 310.600 C 348.400 310.930,348.130 311.200,347.800 311.200 C 347.427 311.200,347.200 311.578,347.200 312.200 C 347.200 312.822,346.973 313.200,346.600 313.200 C 346.127 313.200,345.988 313.814,345.943 316.100 C 345.897 318.454,345.839 318.699,345.634 317.400 C 345.323 315.429,344.805 319.106,344.794 323.359 C 344.790 324.846,344.656 325.591,344.449 325.266 C 343.957 324.490,343.612 326.059,343.605 329.100 C 343.602 330.827,343.445 331.602,343.100 331.606 C 342.767 331.610,342.800 331.742,343.200 332.000 C 343.713 332.331,343.698 332.389,343.100 332.394 C 342.551 332.399,342.400 332.745,342.400 334.000 C 342.400 334.880,342.220 335.600,342.000 335.600 C 341.780 335.600,341.587 336.005,341.572 336.500 C 341.545 337.356,341.528 337.361,341.211 336.600 C 340.940 335.947,340.823 336.128,340.575 337.585 C 340.343 338.943,340.204 339.182,339.992 338.585 C 339.757 337.923,339.668 338.004,339.425 339.100 C 339.266 339.815,338.971 340.400,338.768 340.400 C 338.566 340.400,338.387 340.985,338.372 341.700 C 338.350 342.714,338.277 342.831,338.042 342.229 C 337.696 341.347,337.200 342.150,337.200 343.590 C 337.200 343.988,336.930 344.418,336.600 344.545 C 336.270 344.671,336.000 345.231,336.000 345.787 C 336.000 346.344,335.811 346.800,335.579 346.800 C 335.348 346.800,334.970 347.340,334.740 348.000 C 334.510 348.660,334.159 349.200,333.961 349.200 C 333.491 349.200,333.489 352.684,333.959 352.975 C 334.157 353.097,334.440 354.503,334.588 356.098 C 334.905 359.513,335.140 360.485,335.581 360.212 C 335.758 360.102,336.058 362.845,336.247 366.306 C 336.563 372.093,336.610 372.359,336.823 369.600 L 337.056 366.600 337.128 369.667 C 337.209 373.131,337.509 374.387,338.050 373.534 C 338.280 373.169,338.390 373.358,338.394 374.129 C 338.401 375.376,339.202 376.400,340.171 376.400 C 340.517 376.400,340.800 376.545,340.800 376.723 C 340.800 376.901,341.490 377.351,342.334 377.723 C 343.926 378.425,347.200 378.654,347.200 378.063 C 347.200 377.877,350.170 377.614,353.799 377.477 C 357.429 377.341,360.749 377.041,361.178 376.812 C 361.607 376.582,362.445 376.354,363.040 376.305 C 363.686 376.252,364.197 375.931,364.307 375.512 C 364.408 375.125,364.650 374.908,364.845 375.028 C 365.040 375.149,365.200 374.965,365.200 374.620 C 365.200 374.275,365.560 373.684,366.000 373.307 C 366.440 372.930,366.800 372.202,366.800 371.687 C 366.800 371.159,366.976 370.861,367.205 371.003 C 367.430 371.142,367.718 370.708,367.855 370.027 C 367.990 369.352,368.257 368.800,368.450 368.800 C 368.643 368.800,368.813 368.125,368.828 367.300 C 368.850 366.124,368.927 365.973,369.182 366.600 C 369.482 367.336,369.532 367.312,369.798 366.300 C 369.957 365.695,370.208 365.200,370.356 365.200 C 370.577 365.200,371.418 363.517,371.805 362.300 C 371.857 362.135,371.945 361.910,372.000 361.800 C 372.055 361.690,372.123 361.426,372.150 361.213 C 372.178 361.000,372.493 360.483,372.852 360.064 C 373.211 359.646,373.719 358.652,373.981 357.857 C 374.244 357.062,374.628 356.306,374.836 356.178 C 375.043 356.050,375.109 355.777,374.983 355.572 C 374.856 355.368,374.951 355.200,375.194 355.200 C 375.437 355.200,375.584 354.975,375.521 354.700 C 375.393 354.140,377.994 348.675,378.488 348.466 C 378.662 348.392,378.703 348.167,378.579 347.966 C 378.455 347.765,378.522 347.600,378.730 347.600 C 379.091 347.600,379.733 346.124,379.643 345.500 C 379.619 345.335,379.780 345.200,380.000 345.200 C 380.220 345.200,380.400 344.930,380.400 344.600 C 380.400 344.270,380.610 344.000,380.867 344.000 C 381.123 344.000,381.218 343.885,381.077 343.744 C 380.936 343.603,381.074 343.018,381.383 342.444 C 381.692 341.870,382.362 340.500,382.873 339.400 C 383.383 338.300,383.935 337.340,384.100 337.267 C 384.265 337.193,384.400 336.628,384.400 336.009 C 384.400 335.379,384.664 334.784,385.000 334.655 C 385.351 334.521,385.600 333.921,385.600 333.213 C 385.600 332.401,385.799 332.000,386.200 332.000 C 386.595 332.000,386.800 331.605,386.800 330.843 C 386.800 330.183,387.058 329.587,387.400 329.455 C 387.730 329.329,388.000 328.769,388.000 328.213 C 388.000 327.579,388.225 327.200,388.600 327.200 C 388.973 327.200,389.200 326.822,389.200 326.200 C 389.200 325.578,389.427 325.200,389.800 325.200 C 390.200 325.200,390.400 324.800,390.400 324.000 C 390.400 323.340,390.580 322.800,390.800 322.800 C 391.020 322.800,391.213 322.305,391.228 321.700 C 391.252 320.771,391.304 320.721,391.561 321.379 C 391.916 322.287,392.379 321.087,392.401 319.200 C 392.410 318.407,392.492 318.324,392.800 318.800 C 393.086 319.243,393.191 318.982,393.200 317.800 C 393.208 316.771,393.333 316.390,393.550 316.734 C 394.108 317.613,394.401 316.273,394.395 312.867 C 394.388 309.185,394.038 307.402,393.561 308.621 C 393.379 309.085,393.224 307.945,393.175 305.800 C 393.115 303.106,393.021 302.552,392.800 303.600 C 392.507 304.991,392.505 304.987,392.403 303.100 C 392.346 302.055,392.255 301.020,392.200 300.800 C 392.145 300.580,392.060 299.815,392.010 299.100 C 391.924 297.853,391.907 297.841,391.600 298.800 C 391.362 299.545,391.262 299.136,391.212 297.200 C 391.163 295.351,391.045 294.831,390.800 295.400 C 390.518 296.056,390.450 295.948,390.424 294.800 C 390.362 292.155,389.904 290.143,389.562 291.017 C 389.321 291.635,389.250 291.524,389.228 290.487 C 389.211 289.710,388.955 289.081,388.600 288.945 C 388.270 288.818,388.000 288.464,388.000 288.157 C 388.000 287.851,387.730 287.600,387.400 287.600 C 387.070 287.600,386.800 287.422,386.800 287.205 C 386.800 286.987,386.076 286.694,385.191 286.552 C 384.306 286.411,383.486 286.139,383.368 285.947 C 383.090 285.499,382.294 285.570,379.645 286.277 M381.761 297.224 C 381.860 297.761,381.957 298.650,381.976 299.200 C 382.005 299.997,382.091 300.078,382.400 299.600 C 382.680 299.166,382.789 299.526,382.794 300.900 C 382.797 301.945,382.980 302.800,383.200 302.800 C 383.420 302.800,383.600 303.597,383.600 304.571 C 383.600 305.546,383.842 306.585,384.138 306.881 C 384.433 307.176,384.774 308.291,384.894 309.359 C 385.014 310.426,385.285 311.412,385.496 311.549 C 386.059 311.918,385.951 313.133,385.333 313.370 C 385.040 313.483,384.800 314.011,384.800 314.545 C 384.800 315.078,384.530 315.618,384.200 315.745 C 383.870 315.871,383.600 316.431,383.600 316.987 C 383.600 317.544,383.420 318.000,383.200 318.000 C 382.980 318.000,382.800 318.193,382.800 318.429 C 382.800 318.664,382.530 319.127,382.200 319.457 C 381.870 319.787,381.600 320.505,381.600 321.052 C 381.600 321.621,381.427 321.940,381.195 321.797 C 380.971 321.658,380.682 322.090,380.547 322.767 C 380.412 323.438,380.145 323.889,379.951 323.770 C 379.758 323.650,379.600 324.026,379.600 324.605 C 379.600 325.184,379.330 325.927,379.000 326.257 C 378.670 326.587,378.400 327.384,378.400 328.029 C 378.400 328.803,378.197 329.200,377.800 329.200 C 377.400 329.200,377.200 329.600,377.200 330.400 C 377.200 331.060,377.032 331.600,376.827 331.600 C 376.622 331.600,376.328 332.005,376.173 332.500 C 376.019 332.995,375.781 333.490,375.646 333.600 C 375.095 334.049,374.000 336.523,373.994 337.332 C 373.989 337.960,373.894 338.053,373.650 337.666 C 373.232 337.009,372.815 337.896,372.772 339.533 C 372.747 340.489,372.708 340.516,372.400 339.800 C 372.099 339.101,372.046 339.088,371.978 339.700 C 371.935 340.085,371.855 340.580,371.800 340.800 C 371.745 341.020,371.665 341.605,371.622 342.100 C 371.547 342.963,371.530 342.967,371.200 342.200 C 370.947 341.610,370.838 341.978,370.788 343.600 C 370.739 345.201,370.644 345.528,370.442 344.800 C 370.084 343.515,369.624 344.514,369.553 346.733 C 369.506 348.184,369.502 348.187,369.236 347.000 L 368.966 345.800 368.683 347.150 C 368.527 347.893,368.379 348.973,368.353 349.550 C 368.306 350.577,368.299 350.574,368.000 349.400 C 367.727 348.326,367.690 348.398,367.647 350.087 C 367.611 351.553,367.471 351.926,367.024 351.754 C 366.615 351.597,366.373 351.939,366.185 352.939 C 366.040 353.712,365.669 354.441,365.361 354.560 C 365.052 354.678,364.800 355.119,364.800 355.538 C 364.800 355.958,364.530 356.526,364.200 356.800 C 363.870 357.074,363.600 357.481,363.600 357.705 C 363.600 357.928,363.072 358.970,362.426 360.020 C 361.780 361.069,361.195 362.259,361.126 362.664 C 361.057 363.069,360.910 363.490,360.800 363.600 C 360.048 364.352,359.662 365.556,360.114 365.740 C 360.387 365.851,360.294 365.951,359.900 365.968 C 359.515 365.986,359.200 366.270,359.200 366.600 C 359.200 366.930,359.009 367.200,358.776 367.200 C 358.543 367.200,358.464 367.380,358.600 367.600 C 358.737 367.822,358.436 368.002,357.924 368.005 C 356.283 368.015,355.067 368.470,355.666 368.849 C 355.973 369.044,353.946 369.190,350.900 369.194 L 345.600 369.200 345.600 367.600 C 345.600 366.444,345.433 366.000,345.000 366.000 C 344.519 366.000,344.397 365.383,344.387 362.900 C 344.379 360.810,344.183 359.547,343.787 359.024 C 342.934 357.895,342.944 350.184,343.800 349.855 C 344.130 349.729,344.400 349.169,344.400 348.613 C 344.400 348.056,344.625 347.598,344.900 347.595 C 345.175 347.593,345.739 346.883,346.154 346.018 C 346.568 345.152,347.153 344.350,347.454 344.235 C 347.754 344.119,348.000 343.757,348.000 343.430 C 348.000 343.103,348.450 342.172,349.000 341.362 C 349.550 340.551,350.000 339.553,350.000 339.144 C 350.000 338.735,350.270 338.400,350.600 338.400 C 350.930 338.400,351.200 338.130,351.200 337.800 C 351.200 337.470,351.359 337.200,351.553 337.200 C 351.748 337.200,351.983 335.996,352.077 334.525 C 352.177 332.950,352.443 331.786,352.724 331.692 C 353.049 331.584,353.200 330.279,353.200 327.567 C 353.200 325.189,353.360 323.600,353.600 323.600 C 353.820 323.600,354.000 322.995,354.000 322.256 C 354.000 319.095,354.479 317.200,355.278 317.200 C 355.701 317.200,355.936 317.020,355.800 316.800 C 355.660 316.574,355.989 316.400,356.557 316.400 C 357.109 316.400,357.718 316.119,357.910 315.775 C 358.213 315.233,358.882 314.948,360.124 314.831 C 360.302 314.814,360.336 314.620,360.200 314.400 C 360.060 314.173,360.396 314.000,360.976 314.000 C 361.539 314.000,362.000 313.834,362.000 313.632 C 362.000 313.429,362.540 313.145,363.200 313.000 C 363.860 312.855,364.400 312.574,364.400 312.376 C 364.400 312.178,364.850 311.902,365.400 311.764 C 365.950 311.626,366.400 311.397,366.400 311.254 C 366.400 311.112,366.985 310.759,367.700 310.471 C 368.415 310.183,369.450 309.678,370.000 309.349 C 370.550 309.020,371.315 308.651,371.700 308.529 C 372.085 308.407,372.400 308.058,372.400 307.753 C 372.400 307.449,372.593 307.200,372.829 307.200 C 373.362 307.200,374.400 306.190,374.400 305.671 C 374.400 305.458,374.940 304.707,375.600 304.000 C 376.260 303.293,376.800 302.591,376.800 302.440 C 376.800 302.289,377.499 301.415,378.352 300.500 C 379.250 299.537,379.714 298.757,379.452 298.649 C 379.204 298.547,379.315 298.449,379.700 298.432 C 380.085 298.414,380.400 298.130,380.400 297.800 C 380.400 297.470,380.580 297.200,380.800 297.200 C 381.020 297.200,381.200 296.900,381.200 296.533 C 381.200 295.616,381.543 296.038,381.761 297.224 M305.734 348.000 C 305.734 349.650,305.805 350.325,305.891 349.500 C 305.978 348.675,305.978 347.325,305.891 346.500 C 305.805 345.675,305.734 346.350,305.734 348.000 M306.937 357.000 C 306.939 358.760,307.009 359.430,307.093 358.489 C 307.178 357.549,307.177 356.109,307.091 355.289 C 307.005 354.470,306.936 355.240,306.937 357.000 M210.100 429.497 C 211.585 429.574,214.015 429.574,215.500 429.497 C 216.985 429.420,215.770 429.357,212.800 429.357 C 209.830 429.357,208.615 429.420,210.100 429.497 " stroke="none" fill="#040404" fill-rule="evenodd"></path><path id="path1" d="" stroke="none" fill="#080404" fill-rule="evenodd"></path><path id="path2" d="" stroke="none" fill="#080404" fill-rule="evenodd"></path><path id="path3" d="" stroke="none" fill="#080404" fill-rule="evenodd"></path><path id="path4" d="" stroke="none" fill="#080404" fill-rule="evenodd"></path><path id="path5" d="" stroke="none" fill="#080404" fill-rule="evenodd"></path><path id="path6" d="" stroke="none" fill="#080404" fill-rule="evenodd"></path><path id="path7" d="" stroke="none" fill="#080404" fill-rule="evenodd"></path><path id="path8" d="" stroke="none" fill="#080404" fill-rule="evenodd"></path></g></svg>