<svg id="svg" version="1.1" width="400" height="424.4274809160305" viewBox="0 0 400 424.4274809160305" xmlns="http://www.w3.org/2000/svg" xmlns:xlink="http://www.w3.org/1999/xlink" ><g id="svgg"><path id="path0" d="M147.862 0.181 C 141.681 0.728,129.380 4.424,120.679 8.348 C 111.552 12.463,106.058 13.837,100.305 13.441 C 88.238 12.611,85.657 12.760,80.303 14.594 C 75.328 16.298,69.549 20.533,65.935 25.122 C 64.983 26.331,61.928 29.903,61.309 30.532 C 61.110 30.734,60.509 31.410,59.973 32.034 C 59.438 32.657,57.180 35.158,54.956 37.592 C 52.731 40.026,50.303 42.690,49.560 43.513 C 48.817 44.335,46.453 46.763,44.307 48.908 C 42.161 51.053,39.494 53.804,38.381 55.020 C 37.267 56.236,35.876 57.749,35.291 58.381 C 34.705 59.014,33.790 60.049,33.257 60.681 C 32.725 61.314,32.021 62.110,31.692 62.450 C 31.364 62.791,30.335 64.025,29.405 65.192 C 28.475 66.360,27.142 68.032,26.443 68.908 C 21.889 74.615,18.193 81.278,15.491 88.650 C 14.942 90.149,14.385 91.614,14.254 91.906 C 13.318 93.985,12.842 98.147,12.207 109.774 C 12.012 113.338,11.776 115.892,11.495 117.477 C 11.045 120.017,11.051 120.301,11.551 120.301 C 11.831 120.301,12.042 120.182,12.099 119.991 C 13.321 115.892,13.821 114.013,14.135 112.340 C 14.344 111.221,14.594 109.987,14.689 109.598 C 14.784 109.208,15.066 107.536,15.317 105.882 C 16.716 96.640,18.674 91.247,23.230 84.081 C 23.492 83.670,23.706 83.289,23.706 83.236 C 23.706 83.147,25.458 80.549,27.302 77.903 C 28.513 76.167,29.868 74.551,33.018 71.087 C 35.832 67.992,36.672 67.133,39.275 64.696 C 51.851 52.919,63.420 41.513,67.758 36.616 C 71.683 32.184,76.205 27.580,77.753 26.439 C 78.142 26.152,78.606 25.786,78.784 25.626 C 79.496 24.986,82.783 23.508,84.476 23.068 C 86.946 22.426,90.194 22.335,96.329 22.736 C 102.936 23.167,107.441 22.974,110.776 22.116 C 112.121 21.770,115.943 20.478,116.586 20.153 C 116.926 19.980,118.697 19.236,120.522 18.500 C 127.976 15.490,130.424 14.486,130.707 14.321 C 131.223 14.021,136.191 12.236,138.778 11.420 C 150.660 7.677,159.333 7.925,164.001 12.142 C 165.669 13.649,165.744 14.486,164.444 17.107 C 160.944 24.162,164.080 30.739,173.286 35.650 C 173.967 36.013,175.122 36.654,175.851 37.074 C 178.253 38.456,184.802 41.426,192.658 44.696 C 204.985 49.826,208.082 49.459,210.085 42.631 C 210.812 40.156,210.886 39.986,211.676 39.009 C 214.882 35.046,225.090 34.178,235.441 36.988 C 239.030 37.963,238.989 37.956,239.311 37.634 C 239.784 37.160,239.146 36.770,236.215 35.741 C 219.558 29.894,209.681 31.551,205.756 40.851 C 205.346 41.823,204.897 42.713,204.757 42.829 C 204.468 43.069,202.805 42.954,202.277 42.657 C 202.095 42.554,201.389 42.236,200.708 41.950 C 197.948 40.789,190.445 37.219,189.931 36.821 C 189.826 36.740,188.505 36.034,186.997 35.254 C 176.212 29.673,172.412 26.971,171.032 23.903 C 170.561 22.857,170.670 22.347,171.936 19.662 C 173.818 15.666,174.042 14.396,173.291 11.951 C 171.622 6.508,166.070 2.102,158.779 0.432 C 157.312 0.096,150.575 -0.059,147.862 0.181 M274.126 39.566 C 271.098 39.700,265.424 40.037,262.442 40.261 C 260.589 40.399,258.579 40.513,257.975 40.513 C 257.099 40.513,256.877 40.569,256.877 40.789 C 256.877 40.941,256.957 41.015,257.054 40.955 C 257.152 40.895,257.231 40.930,257.231 41.033 C 257.231 41.136,257.152 41.221,257.054 41.221 C 256.957 41.221,256.877 41.330,256.877 41.463 C 256.877 41.848,259.339 42.033,270.234 42.469 C 276.678 42.727,276.398 42.664,276.542 43.877 C 276.770 45.802,276.707 50.571,276.445 51.198 C 276.093 52.040,275.487 52.189,272.405 52.189 L 269.764 52.189 269.885 52.764 C 270.281 54.636,271.680 58.293,274.741 65.458 C 275.634 67.550,276.725 70.137,277.163 71.207 C 277.602 72.278,278.318 73.870,278.755 74.746 C 279.192 75.621,280.387 78.129,281.411 80.318 C 282.435 82.508,283.853 85.374,284.561 86.687 C 285.270 88.001,286.823 90.907,288.014 93.145 C 289.204 95.383,290.440 97.612,290.759 98.098 C 291.078 98.585,292.117 100.336,293.068 101.990 C 295.525 106.262,296.332 107.633,298.609 111.397 C 300.811 115.036,307.359 125.094,308.265 126.227 C 308.575 126.617,309.297 127.612,309.867 128.439 C 311.232 130.418,319.509 141.495,320.649 142.868 C 321.139 143.457,322.385 145.010,323.418 146.318 C 324.452 147.625,325.566 148.980,325.895 149.328 C 326.224 149.677,327.607 151.184,328.969 152.679 C 333.963 158.157,337.436 161.109,342.326 164.031 C 347.506 167.127,358.272 167.777,367.802 165.569 C 369.541 165.166,374.529 163.666,374.790 163.467 C 375.431 162.980,383.860 160.426,386.146 160.026 C 388.935 159.538,388.852 159.345,387.478 163.114 C 384.825 170.392,378.316 180.934,371.517 188.966 C 370.495 190.172,369.370 191.519,369.017 191.958 C 368.663 192.396,367.704 193.470,366.884 194.343 C 366.065 195.216,365.003 196.369,364.525 196.904 C 363.503 198.049,359.728 201.938,355.506 206.194 C 351.889 209.841,347.062 214.926,344.247 218.055 C 343.114 219.315,341.084 221.568,339.736 223.062 C 334.281 229.108,330.867 233.654,327.558 239.275 C 326.985 240.248,326.303 241.380,326.041 241.792 C 325.228 243.069,322.594 248.530,321.538 251.128 C 320.984 252.490,320.422 253.843,320.288 254.135 C 318.755 257.488,316.666 266.077,317.323 266.329 C 317.764 266.498,317.813 266.402,318.895 263.246 C 319.445 261.641,320.277 259.531,320.744 258.558 C 321.210 257.585,321.800 256.275,322.054 255.647 C 323.526 252.014,330.746 240.418,332.413 239.009 C 332.471 238.961,333.073 238.204,333.751 237.329 C 334.762 236.023,337.843 232.446,338.245 232.110 C 338.303 232.061,339.555 230.708,341.026 229.102 C 342.497 227.497,344.526 225.417,345.535 224.481 C 346.543 223.545,347.926 222.233,348.607 221.565 C 349.288 220.896,350.243 220.000,350.730 219.572 C 351.216 219.144,352.808 217.659,354.268 216.272 C 355.728 214.885,357.534 213.204,358.283 212.537 C 361.460 209.702,368.123 203.451,371.097 200.514 C 373.829 197.816,375.280 196.244,379.164 191.774 C 389.851 179.475,397.832 164.326,399.863 152.480 C 400.133 150.908,400.978 151.169,393.558 150.528 C 388.080 150.055,382.863 151.014,372.799 154.343 C 361.042 158.233,352.926 158.614,346.861 155.561 C 344.010 154.127,342.662 153.042,337.539 148.060 C 335.828 146.396,331.684 141.724,329.311 138.784 C 328.053 137.225,326.763 135.632,326.445 135.246 C 326.127 134.859,324.933 133.334,323.791 131.858 C 322.650 130.381,321.119 128.402,320.389 127.460 C 316.196 122.047,310.430 113.973,306.117 107.475 C 304.438 104.945,302.992 102.790,302.904 102.686 C 302.816 102.582,301.607 100.671,300.218 98.440 C 298.828 96.209,297.354 93.866,296.943 93.233 C 296.069 91.891,294.206 88.828,294.206 88.732 C 294.206 88.696,293.479 87.445,292.590 85.952 C 290.782 82.915,288.919 79.673,286.864 75.984 C 286.104 74.622,285.427 73.467,285.359 73.419 C 285.122 73.249,276.869 57.072,276.869 56.776 C 276.869 56.675,277.796 56.145,278.929 55.601 L 280.989 54.610 280.879 51.055 C 280.740 46.595,280.013 41.430,279.305 39.876 C 279.102 39.429,278.293 39.381,274.126 39.566 M275.918 55.386 L 276.295 56.460 275.851 56.629 C 275.288 56.843,273.831 57.172,273.761 57.101 C 273.731 57.072,274.060 56.499,274.492 55.828 C 274.923 55.157,275.276 54.542,275.276 54.460 C 275.276 53.999,275.591 54.453,275.918 55.386 M6.634 133.682 C 2.144 134.594,-0.168 137.342,0.051 141.510 C 0.426 148.683,4.831 155.288,13.725 162.015 C 15.254 163.172,18.698 166.467,20.051 168.067 C 21.542 169.832,23.173 173.464,24.497 177.974 C 27.323 187.593,30.795 191.776,39.009 195.453 C 46.321 198.727,54.521 199.656,62.893 198.159 C 69.008 197.065,74.583 195.580,83.909 192.558 C 90.332 190.477,94.668 189.554,99.335 189.273 C 106.082 188.867,108.111 189.358,112.517 192.464 C 116.266 195.107,118.007 196.100,122.247 198.012 C 126.272 199.828,133.258 200.004,141.353 198.493 C 146.437 197.544,148.871 197.111,148.909 197.148 C 148.929 197.167,148.790 197.897,148.601 198.769 C 146.041 210.557,145.517 214.716,145.546 222.999 C 145.578 231.769,146.515 238.168,148.418 242.608 C 149.158 244.336,149.787 243.406,149.297 241.309 C 148.212 236.672,148.659 222.179,150.024 217.691 C 150.112 217.399,150.393 216.165,150.647 214.949 C 152.053 208.210,154.461 200.155,156.120 196.639 C 157.130 194.496,157.748 193.047,158.165 191.842 L 158.478 190.937 157.567 190.739 C 154.248 190.016,147.627 190.038,141.707 190.791 C 133.153 191.881,128.144 191.541,124.281 189.609 C 122.496 188.716,119.347 186.720,118.574 185.991 C 117.375 184.859,112.266 181.781,110.622 181.198 C 107.178 179.978,106.097 179.850,100.487 179.992 C 92.717 180.189,89.940 180.746,77.930 184.514 C 67.498 187.787,66.254 188.131,62.548 188.765 C 56.294 189.834,49.617 189.643,44.598 188.251 C 42.806 187.755,39.712 186.475,39.452 186.122 C 39.403 186.056,38.846 185.694,38.213 185.316 C 36.206 184.119,35.015 182.730,33.778 180.143 C 32.273 176.994,32.324 177.110,31.210 174.259 C 27.748 165.392,24.418 161.648,15.038 156.075 C 9.302 152.667,5.543 148.356,2.899 142.155 C 1.756 139.471,3.072 136.829,6.428 135.073 C 8.261 134.114,8.377 133.328,6.634 133.682 M159.987 250.791 C 159.860 251.121,160.476 252.729,161.166 253.870 C 161.430 254.308,161.989 255.303,162.408 256.081 C 163.385 257.898,165.831 261.624,167.461 263.777 C 168.749 265.479,170.158 267.640,171.816 270.456 C 172.317 271.307,173.417 273.038,174.260 274.303 C 180.117 283.089,180.170 284.212,175.112 292.292 C 174.156 293.818,173.375 295.108,173.375 295.159 C 173.375 295.210,173.180 295.538,172.943 295.889 C 170.946 298.830,168.596 304.868,167.814 309.067 C 167.659 309.894,167.434 311.008,167.314 311.544 C 166.810 313.775,167.021 321.656,167.685 325.430 C 168.565 330.432,172.261 344.101,173.205 345.849 C 173.375 346.163,174.514 349.926,176.290 356.037 C 177.793 361.211,178.823 364.560,179.120 365.237 C 179.248 365.529,179.727 366.922,180.185 368.333 C 183.207 377.641,188.725 389.317,190.887 390.977 C 190.951 391.026,191.566 391.822,192.255 392.747 C 192.953 393.683,194.824 395.719,196.482 397.346 C 204.120 404.843,203.549 403.820,203.989 410.792 C 204.336 416.299,204.585 417.105,206.459 418.801 C 209.445 421.503,214.719 422.680,220.522 421.941 C 221.203 421.854,222.713 421.658,223.877 421.506 C 225.040 421.354,226.334 421.230,226.751 421.230 C 227.468 421.230,227.510 421.202,227.510 420.724 L 227.510 420.218 225.520 420.093 C 219.125 419.692,213.731 418.552,211.643 417.162 C 209.282 415.590,209.428 416.135,209.496 409.143 C 209.564 402.157,209.585 402.257,207.284 398.630 C 206.771 397.820,204.289 394.906,202.650 393.189 C 200.917 391.372,200.163 390.418,199.046 388.623 C 198.452 387.668,197.966 386.848,197.966 386.800 C 197.966 386.752,197.529 386.051,196.997 385.242 C 195.371 382.773,193.290 378.398,191.927 374.584 C 191.620 373.724,191.307 372.941,191.232 372.844 C 191.012 372.557,189.628 367.976,187.620 360.889 C 186.588 357.248,185.473 353.432,185.142 352.410 C 184.810 351.389,183.535 347.408,182.308 343.565 C 181.081 339.721,179.730 335.502,179.306 334.188 C 174.416 319.049,174.692 308.938,180.281 298.452 C 185.586 288.499,186.383 285.443,184.820 281.066 C 183.510 277.402,178.087 270.212,170.544 262.143 C 165.991 257.272,164.346 255.400,162.583 253.083 C 160.582 250.453,160.234 250.146,159.987 250.791 M324.348 267.395 C 322.296 268.832,322.218 279.525,324.139 295.887 C 325.779 309.857,323.369 315.310,312.782 321.576 C 311.371 322.411,309.858 323.314,309.421 323.582 C 308.983 323.851,306.833 325.020,304.644 326.182 C 302.455 327.343,300.196 328.604,299.624 328.985 C 299.052 329.366,297.968 330.075,297.215 330.562 C 290.653 334.799,285.714 342.145,285.714 347.666 C 285.714 348.667,286.585 348.675,286.942 347.678 C 287.403 346.390,290.012 342.964,291.677 341.461 C 294.866 338.580,299.962 336.023,308.978 332.778 C 325.403 326.868,332.952 318.858,333.920 306.312 C 334.116 303.771,333.169 296.453,332.416 294.687 C 332.324 294.471,331.930 293.009,331.540 291.438 C 331.151 289.866,330.303 286.841,329.657 284.715 C 325.415 270.757,325.073 269.364,325.590 268.128 C 325.746 267.754,325.874 267.379,325.874 267.294 C 325.874 267.042,324.745 267.116,324.348 267.395 M378.328 294.635 C 376.881 294.997,375.127 296.149,371.918 298.847 C 370.258 300.243,368.008 303.260,365.946 306.855 C 364.263 309.790,362.239 310.841,357.099 311.452 C 349.445 312.362,347.781 312.997,344.690 316.188 C 341.199 319.792,339.934 324.041,339.147 334.808 C 338.406 344.959,338.385 345.042,334.731 352.587 C 332.122 357.974,331.672 359.058,331.173 361.159 C 329.784 367.009,332.132 371.607,338.030 374.589 C 340.194 375.682,340.099 375.138,337.527 371.694 C 334.557 367.716,334.742 364.539,338.225 359.743 C 338.646 359.164,339.715 357.696,340.601 356.479 C 345.945 349.146,346.647 347.269,348.078 336.488 C 349.142 328.475,349.369 327.310,350.384 324.690 C 351.594 321.569,351.892 321.401,358.779 319.952 C 366.723 318.281,369.673 315.650,372.378 307.828 C 373.463 304.690,374.038 303.293,374.714 302.146 C 374.999 301.663,375.232 301.225,375.232 301.174 C 375.232 300.859,378.210 296.782,379.025 295.981 C 380.529 294.503,380.337 294.132,378.328 294.635 M380.744 301.327 C 378.746 306.653,378.030 309.052,375.846 317.736 C 374.433 323.355,373.875 325.180,372.979 327.112 C 372.686 327.744,372.064 329.177,371.597 330.296 C 370.460 333.018,368.096 337.631,366.859 339.538 C 366.307 340.389,365.856 341.131,365.856 341.187 C 365.856 341.597,356.429 355.124,355.456 356.110 C 355.321 356.247,354.881 356.804,354.480 357.348 C 354.078 357.892,352.705 359.730,351.429 361.433 C 348.310 365.594,346.985 367.441,345.288 369.990 C 344.502 371.170,343.806 372.176,343.740 372.225 C 343.516 372.392,342.135 374.790,342.035 375.188 C 341.771 376.233,342.176 376.299,343.411 375.413 C 348.021 372.104,350.712 370.090,352.412 368.673 C 353.530 367.741,354.962 366.587,355.595 366.110 C 358.411 363.983,366.676 355.813,368.827 353.030 C 373.314 347.222,376.422 342.392,377.956 338.844 C 378.285 338.084,378.831 336.864,379.168 336.134 C 382.959 327.938,383.901 317.085,382.205 301.150 C 382.050 299.688,381.326 299.776,380.744 301.327 M296.556 345.290 C 295.698 345.761,293.429 347.909,292.117 349.491 C 291.472 350.270,290.732 351.146,290.474 351.437 C 289.595 352.430,287.132 355.756,286.122 357.315 C 285.569 358.169,285.062 358.908,284.994 358.956 C 284.852 359.059,281.822 363.693,281.822 363.807 C 281.822 363.849,281.133 365.024,280.292 366.418 C 275.113 374.992,273.457 378.609,269.953 389.003 C 265.613 401.880,262.486 405.754,249.182 414.743 C 248.029 415.522,246.460 416.616,241.861 419.850 C 240.851 420.560,239.816 421.323,239.561 421.546 C 239.306 421.769,238.563 422.306,237.910 422.740 C 236.021 423.994,235.807 424.704,237.373 424.521 C 238.867 424.346,244.645 422.554,246.528 421.681 C 246.820 421.546,247.935 421.104,249.005 420.698 C 266.721 413.985,273.879 407.253,278.633 392.835 C 278.953 391.862,279.277 390.986,279.351 390.889 C 279.426 390.792,279.903 389.398,280.413 387.793 C 281.839 383.297,284.189 377.151,285.361 374.852 C 285.920 373.755,287.550 369.855,289.329 365.360 C 290.265 362.995,291.107 360.926,291.201 360.760 C 291.295 360.595,291.936 358.987,292.625 357.187 C 294.785 351.549,295.817 349.014,296.617 347.376 C 297.683 345.195,297.668 344.679,296.556 345.290 " stroke="none" fill="#040404" fill-rule="evenodd"></path><path id="path1" d="" stroke="none" fill="#080404" fill-rule="evenodd"></path><path id="path2" d="" stroke="none" fill="#080404" fill-rule="evenodd"></path><path id="path3" d="" stroke="none" fill="#080404" fill-rule="evenodd"></path><path id="path4" d="" stroke="none" fill="#080404" fill-rule="evenodd"></path><path id="path5" d="" stroke="none" fill="#080404" fill-rule="evenodd"></path><path id="path6" d="" stroke="none" fill="#080404" fill-rule="evenodd"></path><path id="path7" d="" stroke="none" fill="#080404" fill-rule="evenodd"></path><path id="path8" d="" stroke="none" fill="#080404" fill-rule="evenodd"></path></g></svg>