<svg height="512pt" viewBox="0 0 512 512" width="512pt" xmlns="http://www.w3.org/2000/svg"><path d="m320 64c0 35.347656-28.652344 64-64 64s-64-28.652344-64-64 28.652344-64 64-64 64 28.652344 64 64zm0 0" fill="#ef5350"/><path d="m320 448c0 35.347656-28.652344 64-64 64s-64-28.652344-64-64 28.652344-64 64-64 64 28.652344 64 64zm0 0" fill="#8bc34a"/><path d="m128 256c0 35.347656-28.652344 64-64 64s-64-28.652344-64-64 28.652344-64 64-64 64 28.652344 64 64zm0 0" fill="#64b5f6"/><path d="m512 256c0 35.347656-28.652344 64-64 64s-64-28.652344-64-64 28.652344-64 64-64 64 28.652344 64 64zm0 0" fill="#fdd835"/><path d="m411.3125 84.6875-22.625 22.625 59.3125 59.3125 59.3125-59.3125-22.625-22.625-20.6875 20.6875v-105.375h-64v32h32v73.375zm0 0" fill="#b0bec5"/><path d="m336 0h32v32h-32zm0 0" fill="#90a4ae"/><path d="m480 336h32v32h-32zm0 0" fill="#90a4ae"/><path d="m480 432h-73.375l20.6875-20.6875-22.625-22.625-59.3125 59.3125 59.3125 59.3125 22.625-22.625-20.6875-20.6875h105.375v-64h-32zm0 0" fill="#b0bec5"/><path d="m100.6875 427.3125 22.625-22.625-59.3125-59.3125-59.3125 59.3125 22.625 22.625 20.6875-20.6875v105.375h64v-32h-32v-73.375zm0 0" fill="#b0bec5"/><path d="m144 480h32v32h-32zm0 0" fill="#90a4ae"/><path d="m32 80h73.375l-20.6875 20.6875 22.625 22.625 59.3125-59.3125-59.3125-59.3125-22.625 22.625 20.6875 20.6875h-105.375v64h32zm0 0" fill="#b0bec5"/><path d="m0 144h32v32h-32zm0 0" fill="#90a4ae"/><path d="m256 96c-29.742188 0-54.574219-20.464844-61.726562-48-1.34375 5.152344-2.273438 10.449219-2.273438 16 0 35.296875 28.703125 64 64 64s64-28.703125 64-64c0-5.550781-.929688-10.847656-2.273438-16-7.152343 27.535156-31.984374 48-61.726562 48zm0 0" fill="#e53935"/><path d="m256 480c-29.742188 0-54.574219-20.464844-61.726562-48-1.34375 5.152344-2.273438 10.449219-2.273438 16 0 35.296875 28.703125 64 64 64s64-28.703125 64-64c0-5.550781-.929688-10.847656-2.273438-16-7.152343 27.535156-31.984374 48-61.726562 48zm0 0" fill="#689f38"/><path d="m64 288c-29.742188 0-54.574219-20.464844-61.726562-48-1.34375 5.152344-2.273438 10.449219-2.273438 16 0 35.296875 28.703125 64 64 64s64-28.703125 64-64c0-5.550781-.929688-10.847656-2.273438-16-7.152343 27.535156-31.984374 48-61.726562 48zm0 0" fill="#42a5f5"/><path d="m448 288c-29.742188 0-54.574219-20.464844-61.726562-48-1.34375 5.152344-2.273438 10.449219-2.273438 16 0 35.296875 28.703125 64 64 64s64-28.703125 64-64c0-5.550781-.929688-10.847656-2.273438-16-7.152343 27.535156-31.984374 48-61.726562 48zm0 0" fill="#fbc02d"/></svg>