<svg height="512pt" viewBox="0 0 512 512" width="512pt" xmlns="http://www.w3.org/2000/svg"><path d="m224 80v160h176v32h-176v160h176v32h-208v-192h-80v-32h80v-192h208v32zm0 0" fill="#b0bec5"/><g fill="#90a4ae"><path d="m160 256c0 5.441406-.480469 10.878906-1.441406 16h-46.558594v-32h46.558594c.960937 5.121094 1.441406 10.558594 1.441406 16zm0 0"/><path d="m400 240v32h-46.558594c-.960937-5.121094-1.441406-10.558594-1.441406-16s.480469-10.878906 1.441406-16zm0 0"/><path d="m400 48v32h-46.558594c-.960937-5.121094-1.441406-10.558594-1.441406-16s.480469-10.878906 1.441406-16zm0 0"/><path d="m400 432v32h-46.558594c-.960937-5.121094-1.441406-10.558594-1.441406-16s.480469-10.878906 1.441406-16zm0 0"/></g><path d="m128 256c0 35.347656-28.652344 64-64 64s-64-28.652344-64-64 28.652344-64 64-64 64 28.652344 64 64zm0 0" fill="#ef5350"/><path d="m512 256c0 35.347656-28.652344 64-64 64s-64-28.652344-64-64 28.652344-64 64-64 64 28.652344 64 64zm0 0" fill="#fdd835"/><path d="m512 64c0 35.347656-28.652344 64-64 64s-64-28.652344-64-64 28.652344-64 64-64 64 28.652344 64 64zm0 0" fill="#64b5f6"/><path d="m512 448c0 35.347656-28.652344 64-64 64s-64-28.652344-64-64 28.652344-64 64-64 64 28.652344 64 64zm0 0" fill="#8bc34a"/><path d="m448 96c-29.742188 0-54.574219-20.464844-61.726562-48-1.34375 5.152344-2.273438 10.449219-2.273438 16 0 35.296875 28.703125 64 64 64s64-28.703125 64-64c0-5.550781-.929688-10.847656-2.273438-16-7.152343 27.535156-31.984374 48-61.726562 48zm0 0" fill="#42a5f5"/><path d="m448 288c-29.742188 0-54.574219-20.464844-61.726562-48-1.34375 5.152344-2.273438 10.449219-2.273438 16 0 35.296875 28.703125 64 64 64s64-28.703125 64-64c0-5.550781-.929688-10.847656-2.273438-16-7.152343 27.535156-31.984374 48-61.726562 48zm0 0" fill="#fbc02d"/><path d="m448 480c-29.742188 0-54.574219-20.464844-61.726562-48-1.34375 5.152344-2.273438 10.449219-2.273438 16 0 35.296875 28.703125 64 64 64s64-28.703125 64-64c0-5.550781-.929688-10.847656-2.273438-16-7.152343 27.535156-31.984374 48-61.726562 48zm0 0" fill="#689f38"/><path d="m64 288c-29.742188 0-54.574219-20.464844-61.726562-48-1.34375 5.152344-2.273438 10.449219-2.273438 16 0 35.296875 28.703125 64 64 64s64-28.703125 64-64c0-5.550781-.929688-10.847656-2.273438-16-7.152343 27.535156-31.984374 48-61.726562 48zm0 0" fill="#e53935"/></svg>