<?xml version="1.0" encoding="utf-8"?>
<!-- Generator: Adobe Illustrator 22.1.0, SVG Export Plug-In . SVG Version: 6.00 Build 0)  -->
<svg version="1.1" id="Layer_1" xmlns="http://www.w3.org/2000/svg" xmlns:xlink="http://www.w3.org/1999/xlink" wide="200px" height="84.8px"
	 viewBox="0 0 200 84.8" style="enable-background:new 0 0 200 84.8;" xml:space="preserve">
<style type="text/css">
	.st0{fill:#00AAAD;}
	.st1{fill:#F47920;}
	.st2{fill:#F47B20;}
	.st3{fill:#F47D20;}
	.st4{fill:#F57E20;}
	.st5{fill:#F58220;}
	.st6{fill:#F5841F;}
	.st7{fill:#F6861F;}
	.st8{fill:#F6891F;}
	.st9{fill:#F68B1F;}
	.st10{fill:#F78D1E;}
	.st11{fill:#F78E1E;}
	.st12{fill:#F7901E;}
	.st13{fill:#F7921E;}
	.st14{fill:#F8951D;}
	.st15{fill:#F8971D;}
	.st16{fill:#F8991D;}
	.st17{fill:#F99B1C;}
	.st18{fill:#F99D1C;}
	.st19{fill:#F99F1C;}
	.st20{fill:#FAA21B;}
	.st21{fill:#FAA41A;}
	.st22{fill:#FAA61A;}
	.st23{fill:#FBAA19;}
	.st24{fill:#FBAB18;}
	.st25{fill:#FBAD18;}
	.st26{fill:#FCAF17;}
	.st27{fill:#FCB11F;}
	.st28{fill:#FCB325;}
	.st29{fill:#FCB52E;}
	.st30{fill:#FDB733;}
	.st31{fill:#FDB93B;}
	.st32{fill:#FDBB40;}
	.st33{fill:#FDBD48;}
	.st34{fill:#FEBF50;}
	.st35{fill:#FEC155;}
	.st36{fill:#FEC45C;}
	.st37{fill:#FEC661;}
	.st38{fill:#FEC667;}
	.st39{fill:#FFCA6E;}
	.st40{fill:#FFCA72;}
	.st41{fill:#FFCE79;}
	.st42{fill:#FFCE7D;}
	.st43{fill:#FFD283;}
	.st44{fill:#FFD387;}
	.st45{fill:#FFD78D;}
	.st46{fill:#FFD793;}
	.st47{fill:#FFD997;}
	.st48{fill:#FFDB9D;}
	.st49{fill:#FFDDA2;}
	.st50{fill:#FFE0A8;}
	.st51{fill:#FFE2AE;}
	.st52{fill:#FFE4B3;}
	.st53{fill:#FFE6B9;}
	.st54{fill:#FFE9BE;}
	.st55{fill:#FFEBC4;}
	.st56{fill:#FFEDC9;}
	.st57{fill:#FFEFCF;}
</style>
<g>
	<g>
		<path class="st0" d="M111.8,69H110v-1.4h1.8V69z M111.8,69.9V75H110v-4.5L111.8,69.9z M124.3,71.5v1c0,1.2,0.3,1.3,1.1,1.3
			c0.2,0,0.6-0.1,0.8-0.2v1.2c-0.5,0.2-1,0.3-1.5,0.3c-1.9,0-2.2-0.9-2.2-2.4v-3.8l1.8-0.6v1.8h1.8v1.3H124.3z M116.9,73.5
			c0.7,0.2,1.6,0.4,2.2,0.4c0.5,0,0.8-0.1,0.8-0.4c0-0.1-0.1-0.2-0.3-0.3c-0.1,0-0.3-0.1-0.4-0.1c-0.3-0.1-0.6-0.1-0.8-0.2
			c-0.3-0.1-0.5-0.2-0.8-0.3c-0.4-0.2-0.7-0.6-0.7-1.2c0-1,1.1-1.6,2.6-1.6c0.8,0,1.6,0.2,2.1,0.3v1.1c-0.7-0.1-1.4-0.2-1.8-0.2
			c-0.4,0-0.7,0.1-0.7,0.4c0,0.1,0.1,0.2,0.2,0.2c0.1,0,0.2,0.1,0.4,0.1c1.3,0.3,2.4,0.6,2.4,1.6c0,1.1-1,1.6-2.6,1.6
			c-0.9,0-1.8-0.2-2.4-0.4V73.5z M116.4,71.6c-0.6,0-1.4,0.2-1.8,0.4l0,2.9h-1.7v-4c0.4,0.1,1.2,0.1,1.8-0.2
			c0.5-0.2,1.2-0.6,1.8-0.7V71.6z M105,75h-1.8v-5.5c0-1,0.8-1.9,2.5-1.9h3.3l0,1.4h-3.2c-0.5,0-0.8,0.2-0.8,0.5v1h3.8v1.5H105V75z
			 M169,70.9v2.3V75c-0.1,0-0.3,0-0.4,0c-0.3,0-0.7,0-1.1-0.4l-0.1,0c-0.4,0.4-1,0.5-1.5,0.5c-1.7,0-2.6-1-2.6-2.6
			c0-1.5,0.9-2.6,2.6-2.6c0.7,0,1.2,0.3,1.5,0.5C167.8,70.6,168.4,70.9,169,70.9 M167.3,71.7c-0.2-0.2-0.6-0.3-0.9-0.3
			c-0.9,0-1.2,0.5-1.2,1.2c0,0.7,0.3,1.2,1.2,1.2c0.4,0,0.7-0.1,0.9-0.3L167.3,71.7z M136,75c-0.5,0-0.9-0.2-1.2-0.5l-2.3-2.3
			l-1.2-1.2c-0.3-0.3-0.5-0.6-0.5-0.6l-0.1,0V75h-1.6v-7.4h0.5c0.5,0,0.9,0.2,1.2,0.5l2.3,2.3l1.2,1.2c0.3,0.3,0.5,0.6,0.5,0.6
			l0.1-4.6h1.6V75H136z M145.3,71.5v1c0,1.2,0.3,1.3,1.1,1.3c0.2,0,0.6-0.1,0.8-0.2v1.2c-0.5,0.2-1,0.3-1.5,0.3
			c-1.9,0-2.2-0.9-2.2-2.4v-3.8l1.8-0.6v1.8h1.8v1.3H145.3z M153.7,75.1c-2,0-2.9-1-2.9-2.6c0-1.5,0.9-2.6,2.9-2.6s2.9,1,2.9,2.6
			C156.6,74.1,155.7,75.1,153.7,75.1 M153.7,71.3c-0.9,0-1.2,0.6-1.2,1.2c0,0.7,0.3,1.2,1.2,1.2c0.9,0,1.2-0.5,1.2-1.2
			C154.8,71.9,154.5,71.3,153.7,71.3 M149.9,69.9V75h-1.8v-4.5L149.9,69.9z M159,75h-1.8v-4c0.8-0.1,1.2-0.3,1.9-0.5
			c0.5-0.2,1.3-0.4,1.7-0.4c1.4,0,1.9,0.7,1.9,1.7V75h-1.8v-2.8c0-0.6-0.3-0.7-0.8-0.7c-0.3,0-0.7,0.1-1,0.3L159,75z M170,75v-7.3
			l1.8-0.6V75H170z M142.8,70.9v2.3V75c-0.1,0-0.3,0-0.4,0c-0.3,0-0.7,0-1.1-0.4l-0.1,0c-0.4,0.4-1,0.5-1.5,0.5
			c-1.7,0-2.6-1-2.6-2.6c0-1.5,0.9-2.6,2.6-2.6c0.7,0,1.2,0.3,1.5,0.5C141.6,70.6,142.1,70.9,142.8,70.9 M141,71.7
			c-0.2-0.2-0.6-0.3-0.9-0.3c-0.9,0-1.2,0.5-1.2,1.2c0,0.7,0.3,1.2,1.2,1.2c0.4,0,0.7-0.1,0.9-0.3L141,71.7z M150,69h-1.8v-1.4h1.8
			V69z M195.5,75h-1.7v-7.2l1.7-0.6v4.6c0.8,0,1.1-0.2,1.2-0.5c0.2-0.3,0.1-0.8,0-1.2h1.8c0.3,0.9,0.1,1.9-1,2.5l-0.1,0L199,75h-2
			l-1.3-1.8h-0.2V75z M189.3,75h-1.8v-4c0.9-0.1,1.2-0.3,1.9-0.5c0.5-0.2,1.3-0.4,1.7-0.4c1.4,0,1.9,0.7,1.9,1.7V75h-1.8v-2.8
			c0-0.6-0.3-0.7-0.8-0.7c-0.3,0-0.7,0.1-1,0.3L189.3,75z M178.4,69.7c0-0.5-0.3-0.7-0.9-0.7h-1.1v1.5h1.1
			C178.1,70.4,178.4,70.2,178.4,69.7 M179.1,72.7c0-0.5-0.4-0.9-1.1-0.9h-1.6v1.8h1.6C178.7,73.6,179.1,73.2,179.1,72.7 M180.2,69.5
			c0,0.6-0.2,1.1-0.7,1.4l-0.1,0.1l0.2,0.1c0.9,0.3,1.3,1,1.3,1.8c0,1.1-0.9,2.1-2.7,2.1h-3.3v-7.4h2.9
			C179.4,67.6,180.2,68.5,180.2,69.5 M185.1,71.7c-0.2-0.2-0.6-0.3-0.9-0.3c-0.9,0-1.2,0.5-1.2,1.2c0,0.7,0.3,1.2,1.2,1.2
			c0.4,0,0.7-0.1,0.9-0.3L185.1,71.7z M186.8,70.9v2.3V75c-0.1,0-0.3,0-0.4,0c-0.3,0-0.7,0-1.1-0.4l-0.1,0c-0.4,0.4-1,0.5-1.5,0.5
			c-1.7,0-2.6-1-2.6-2.6c0-1.5,0.9-2.6,2.6-2.6c0.7,0,1.2,0.3,1.5,0.5C185.7,70.6,186.2,70.9,186.8,70.9"/>
		<path class="st0" d="M164.7,59.2c-2.1,0-4-0.9-5.4-2.2l-10.5-10.5l-5.3-5.3c-1.4-1.4-2.4-2.8-2.4-2.8l-0.4,0.1v20.8h-7.5V25.4h2.5
			c2.1,0,4,0.9,5.4,2.2l10.5,10.5l5.3,5.3c1.4,1.4,2.4,2.8,2.4,2.8l0.3-0.1l0.1-20.8h7.5v33.8H164.7z M111.3,59.2h-8.1V34.1
			c0-4.7,3.7-8.7,11.6-8.7h16l0,6.4h-15.5c-2.1,0-3.4,0.9-3.9,2.4v4.8h17.8v7h-17.8V59.2z M197.1,34.1c0,2.6-1.1,5-3.4,6.5l-0.6,0.4
			l0.7,0.3c4.2,1.5,6.1,4.7,6.1,8.4c0,5.1-4.1,9.5-12.5,9.5h-15.7V25.4h13.7C193.5,25.4,197.1,29.4,197.1,34.1 M192,48.7
			c0-2.3-1.8-4-4.9-4h-7.5v8.2h7.5C190.2,52.8,192,51.2,192,48.7 M189.1,35.1c0-2.1-1.5-3.4-4-3.4h-5.6v6.8h5.6
			C187.7,38.5,189.1,37.2,189.1,35.1"/>
	</g>
	<g>
		<path class="st1" d="M2.2,41.3C2.2,18.5,20.7,0,43.4,0c22.8,0,41.3,18.5,41.3,41.3c0,1.4,0,2.8-0.2,4.2
			c-4.7,18.3-21.3,31.8-41.1,31.8c-19.8,0-36.4-13.5-41-31.8C2.2,44.1,2.2,42.7,2.2,41.3"/>
		<path class="st1" d="M76.5,61.5c-9.4,6.5-20.7,10.3-33,10.3c-12.3,0-23.6-3.8-33-10.3c-3.7-4.6-6.5-10.1-8-16
			c-0.2-1.4-0.2-2.8-0.2-4.2C2.2,18.5,20.7,0,43.4,0c22.8,0,41.3,18.5,41.3,41.3c0,1.4,0,2.8-0.2,4.2C83,51.4,80.2,56.9,76.5,61.5"
			/>
		<path class="st2" d="M78.5,58.9c-9.7,7.5-21.8,12-35,12c-13.2,0-25.3-4.5-35-12c-2.7-4-4.8-8.5-6-13.4c-0.2-1.4-0.2-2.8-0.2-4.2
			C2.2,18.5,20.7,0,43.4,0c22.8,0,41.3,18.5,41.3,41.3c0,1.4,0,2.8-0.2,4.2C83.3,50.4,81.2,54.9,78.5,58.9"/>
		<path class="st3" d="M80.1,56.2c-9.9,8.5-22.7,13.7-36.7,13.7c-14,0-26.8-5.1-36.6-13.7c-1.9-3.3-3.4-6.9-4.4-10.7
			c-0.2-1.4-0.2-2.8-0.2-4.2C2.2,18.5,20.7,0,43.4,0c22.8,0,41.3,18.5,41.3,41.3c0,1.4,0,2.8-0.2,4.2C83.5,49.3,82,52.9,80.1,56.2"
			/>
		<path class="st4" d="M81.5,53.7c-9.9,9.5-23.3,15.3-38.1,15.3c-14.7,0-28.1-5.8-38-15.3c-1.3-2.6-2.3-5.3-3-8.2
			c-0.2-1.4-0.2-2.8-0.2-4.2C2.2,18.5,20.7,0,43.4,0c22.8,0,41.3,18.5,41.3,41.3c0,1.4,0,2.8-0.2,4.2C83.8,48.4,82.8,51.1,81.5,53.7
			"/>
		<path class="st5" d="M82.6,51.2c-9.9,10.3-23.8,16.8-39.2,16.8c-15.4,0-29.3-6.5-39.2-16.8c-0.7-1.8-1.4-3.7-1.9-5.7
			c-0.2-1.4-0.2-2.8-0.2-4.2C2.2,18.5,20.7,0,43.4,0c22.8,0,41.3,18.5,41.3,41.3c0,1.4,0,2.8-0.2,4.2C84,47.5,83.4,49.4,82.6,51.2"
			/>
		<path class="st6" d="M83.6,48.7C73.8,59.9,59.5,67,43.4,67c-16,0-30.4-7.1-40.1-18.3c-0.4-1-0.7-2.1-1-3.2
			c-0.2-1.4-0.2-2.8-0.2-4.2C2.2,18.5,20.7,0,43.4,0c22.8,0,41.3,18.5,41.3,41.3c0,1.4,0,2.8-0.2,4.2C84.2,46.6,83.9,47.7,83.6,48.7
			"/>
		<path class="st7" d="M84.3,46.3C74.7,58.3,60,66,43.4,66c-16.5,0-31.3-7.7-40.8-19.7c-0.1-0.3-0.2-0.5-0.2-0.8
			c-0.2-1.4-0.2-2.8-0.2-4.2C2.2,18.5,20.7,0,43.4,0c22.8,0,41.3,18.5,41.3,41.3c0,1.4,0,2.8-0.2,4.2C84.5,45.8,84.4,46,84.3,46.3"
			/>
		<path class="st8" d="M84.6,44.3c-9.3,12.6-24.3,20.8-41.2,20.8c-16.9,0-31.8-8.2-41.2-20.8c0-1-0.1-2-0.1-3
			C2.2,18.5,20.7,0,43.4,0c22.8,0,41.3,18.5,41.3,41.3C84.7,42.3,84.7,43.3,84.6,44.3"/>
		<path class="st9" d="M84.7,42.5c-9.1,13-24.2,21.6-41.3,21.6c-17.1,0-32.2-8.5-41.2-21.6v-1.2C2.2,18.5,20.7,0,43.4,0
			c22.8,0,41.3,18.5,41.3,41.3V42.5z"/>
		<path class="st10" d="M84.7,40.7c-8.8,13.5-24,22.4-41.3,22.4c-17.3,0-32.5-8.9-41.2-22.4C2.5,18.2,20.8,0,43.4,0
			C66.1,0,84.4,18.2,84.7,40.7"/>
		<path class="st11" d="M84.7,39c-8.5,13.9-23.8,23.1-41.2,23.1C26,62.2,10.7,52.9,2.2,39C3.4,17.3,21.4,0,43.4,0
			C65.5,0,83.5,17.3,84.7,39"/>
		<path class="st12" d="M84.6,37.3C76.4,51.6,61,61.2,43.4,61.2c-17.6,0-32.9-9.6-41.1-23.8C4.3,16.4,22,0,43.4,0
			C64.9,0,82.6,16.4,84.6,37.3"/>
		<path class="st13" d="M84.3,35.7c-7.8,14.6-23.2,24.6-40.9,24.6c-17.7,0-33.1-9.9-40.9-24.6C5.3,15.5,22.6,0,43.4,0
			C64.3,0,81.6,15.5,84.3,35.7"/>
		<path class="st14" d="M84.1,34c-7.4,14.9-22.8,25.2-40.7,25.2C25.6,59.2,10.2,48.9,2.8,34C6.3,14.7,23.1,0,43.4,0
			C63.8,0,80.7,14.7,84.1,34"/>
		<path class="st15" d="M83.8,32.4c-7,15.2-22.4,25.8-40.3,25.8c-17.9,0-33.3-10.6-40.3-25.8C7.2,13.9,23.7,0,43.4,0
			C63.2,0,79.8,13.9,83.8,32.4"/>
		<path class="st16" d="M83.4,30.9c-6.6,15.5-22,26.4-40,26.4c-17.9,0-33.3-10.8-39.9-26.4C8.1,13.1,24.3,0,43.4,0
			C62.7,0,78.8,13.1,83.4,30.9"/>
		<path class="st17" d="M83,29.4c-6.2,15.8-21.5,27-39.5,27c-18,0-33.3-11.2-39.5-27C9,12.4,24.8,0,43.4,0C62.1,0,77.9,12.4,83,29.4
			"/>
		<path class="st18" d="M82.5,27.9c-5.8,16-21.1,27.5-39.1,27.5c-18,0-33.3-11.4-39-27.5C10,11.6,25.3,0,43.4,0
			C61.6,0,76.9,11.6,82.5,27.9"/>
		<path class="st19" d="M82,26.4c-5.3,16.2-20.5,27.9-38.5,27.9c-18,0-33.2-11.7-38.5-27.9C10.9,11,25.9,0,43.4,0
			C61,0,76,11,82,26.4"/>
		<path class="st20" d="M81.4,25c-4.8,16.4-20,28.4-38,28.4c-18,0-33.1-12-37.9-28.4C11.8,10.3,26.4,0,43.4,0
			C60.5,0,75.1,10.3,81.4,25"/>
		<path class="st21" d="M80.8,23.6c-4.3,16.6-19.4,28.8-37.3,28.8c-17.9,0-33-12.2-37.3-28.8C12.8,9.6,27,0,43.4,0
			C59.9,0,74.2,9.6,80.8,23.6"/>
		<path class="st22" d="M80.1,22.3C76.3,39,61.3,51.5,43.4,51.5C25.6,51.5,10.6,39,6.8,22.3C13.7,9,27.5,0,43.4,0
			C59.4,0,73.2,9,80.1,22.3"/>
		<path class="st23" d="M79.4,21c-3.3,16.8-18.1,29.5-35.9,29.5C25.6,50.5,10.8,37.8,7.5,21C14.6,8.4,28,0,43.4,0
			C58.9,0,72.3,8.4,79.4,21"/>
		<path class="st24" d="M78.6,19.7c-2.8,16.9-17.5,29.9-35.2,29.9c-17.7,0-32.4-12.9-35.2-29.9C15.5,7.9,28.6,0,43.4,0
			C58.3,0,71.4,7.9,78.6,19.7"/>
		<path class="st25" d="M77.8,18.4c-2.2,17-16.8,30.1-34.4,30.1c-17.6,0-32.1-13.1-34.4-30.1C16.5,7.3,29.1,0,43.4,0
			C57.8,0,70.4,7.3,77.8,18.4"/>
		<path class="st26" d="M77,17.2c-1.7,17-16.1,30.4-33.6,30.4C26,47.6,11.6,34.2,9.9,17.2C17.4,6.8,29.6,0,43.4,0
			C57.3,0,69.5,6.8,77,17.2"/>
		<path class="st27" d="M76.1,16C75,33.1,60.8,46.6,43.4,46.6S11.9,33.1,10.8,16C18.4,6.3,30.2,0,43.4,0C56.7,0,68.5,6.3,76.1,16"/>
		<path class="st28" d="M75.2,14.8c-0.5,17.1-14.5,30.8-31.7,30.8c-17.2,0-31.2-13.7-31.7-30.8C19.3,5.8,30.7,0,43.4,0
			C56.2,0,67.6,5.8,75.2,14.8"/>
		<path class="st29" d="M12.8,13.9v-0.2C20.3,5.3,31.3,0,43.4,0c12.2,0,23.1,5.3,30.7,13.7v0.2c0,16.9-13.7,30.7-30.7,30.7
			C26.5,44.6,12.8,30.8,12.8,13.9"/>
		<path class="st30" d="M13.7,13.9c0-0.5,0-0.9,0-1.3C21.3,4.8,31.8,0,43.4,0c11.7,0,22.2,4.8,29.7,12.6c0,0.4,0,0.8,0,1.3
			c0,16.4-13.3,29.7-29.7,29.7C27,43.6,13.7,30.3,13.7,13.9"/>
		<path class="st31" d="M14.7,13.9c0-0.8,0-1.6,0.1-2.4C22.3,4.4,32.3,0,43.4,0C54.6,0,64.6,4.4,72,11.5c0.1,0.8,0.1,1.6,0.1,2.4
			c0,15.9-12.9,28.7-28.7,28.7C27.6,42.6,14.7,29.7,14.7,13.9"/>
		<path class="st32" d="M15.8,13.9c0-1.2,0-2.3,0.2-3.4C23.3,3.9,32.9,0,43.4,0C54,0,63.6,3.9,70.9,10.5c0.2,1.1,0.2,2.2,0.2,3.4
			c0,15.3-12.4,27.7-27.7,27.7C28.2,41.6,15.8,29.2,15.8,13.9"/>
		<path class="st33" d="M16.8,13.9c0-1.5,0.1-3,0.3-4.4C24.3,3.6,33.5,0,43.4,0c10,0,19.2,3.6,26.3,9.5c0.2,1.4,0.4,2.9,0.4,4.4
			c0,14.7-11.9,26.7-26.7,26.7C28.7,40.6,16.8,28.6,16.8,13.9"/>
		<path class="st34" d="M17.8,13.9c0-1.8,0.2-3.6,0.5-5.3C25.3,3.2,34,0,43.4,0c9.5,0,18.2,3.2,25.1,8.5c0.4,1.7,0.6,3.5,0.6,5.3
			c0,14.2-11.5,25.7-25.7,25.7C29.3,39.5,17.8,28.1,17.8,13.9"/>
		<path class="st35" d="M18.8,13.9c0-2.2,0.3-4.3,0.8-6.3C26.3,2.8,34.5,0,43.4,0c8.9,0,17.2,2.8,23.9,7.6c0.5,2,0.8,4.1,0.8,6.3
			c0,13.6-11.1,24.7-24.7,24.7C29.8,38.6,18.8,27.5,18.8,13.9"/>
		<path class="st36" d="M19.8,13.9c0-2.5,0.4-4.9,1.1-7.2C27.4,2.4,35.1,0,43.4,0C51.8,0,59.5,2.4,66,6.7c0.7,2.3,1.1,4.7,1.1,7.2
			c0,13.1-10.6,23.7-23.7,23.7C30.4,37.6,19.8,27,19.8,13.9"/>
		<path class="st37" d="M20.8,13.9c0-2.8,0.5-5.5,1.4-8C28.4,2.1,35.7,0,43.4,0c7.8,0,15,2.1,21.2,5.9c1,2.5,1.4,5.2,1.4,8
			c0,12.5-10.1,22.7-22.7,22.7C30.9,36.6,20.8,26.4,20.8,13.9"/>
		<path class="st38" d="M21.8,13.9c0-3.1,0.7-6.1,1.9-8.8C29.5,1.8,36.3,0,43.4,0c7.2,0,14,1.8,19.8,5.1c1.2,2.7,1.9,5.7,1.9,8.8
			c0,12-9.7,21.7-21.7,21.7C31.5,35.6,21.8,25.8,21.8,13.9"/>
		<path class="st39" d="M22.8,13.9c0-3.5,0.9-6.7,2.4-9.6C30.6,1.5,36.9,0,43.4,0C50,0,56.3,1.5,61.8,4.3c1.5,2.9,2.4,6.1,2.4,9.6
			c0,11.4-9.3,20.7-20.7,20.7C32,34.5,22.8,25.3,22.8,13.9"/>
		<path class="st40" d="M23.8,13.9c0-3.8,1.1-7.3,2.9-10.4C31.8,1.2,37.5,0,43.4,0c6,0,11.6,1.2,16.8,3.5c1.9,3,2.9,6.5,2.9,10.4
			c0,10.8-8.8,19.7-19.7,19.7C32.6,33.5,23.8,24.7,23.8,13.9"/>
		<path class="st41" d="M24.8,13.9c0-4.1,1.4-8,3.6-11.1C33,1,38.1,0,43.4,0c5.3,0,10.4,1,15.1,2.8c2.3,3.1,3.6,6.9,3.6,11.1
			c0,10.3-8.4,18.7-18.7,18.7C33.1,32.5,24.8,24.2,24.8,13.9"/>
		<path class="st42" d="M25.8,13.9c0-4.5,1.7-8.6,4.4-11.7C34.4,0.7,38.8,0,43.4,0c4.6,0,9.1,0.7,13.2,2.2c2.8,3.1,4.4,7.2,4.4,11.7
			c0,9.8-7.9,17.7-17.7,17.7C33.7,31.6,25.8,23.6,25.8,13.9"/>
		<path class="st43" d="M26.8,13.9c0-4.9,2.1-9.3,5.4-12.3c3.6-1,7.4-1.5,11.2-1.5c3.9,0,7.7,0.5,11.2,1.5C58,4.6,60.1,9,60.1,13.9
			c0,9.2-7.5,16.7-16.7,16.7C34.2,30.6,26.8,23.1,26.8,13.9"/>
		<path class="st44" d="M27.8,13.9c0-5.4,2.7-10.1,6.8-12.9c2.9-0.6,5.8-1,8.9-1c3.1,0,6,0.3,8.9,1c4.1,2.8,6.8,7.5,6.8,12.9
			c0,8.7-7,15.7-15.7,15.7C34.8,29.5,27.8,22.5,27.8,13.9"/>
		<path class="st45" d="M28.8,13.9c0-6,3.6-11.2,8.9-13.5C39.5,0.1,41.5,0,43.4,0c2,0,3.9,0.1,5.8,0.4c5.2,2.2,8.9,7.4,8.9,13.5
			c0,8.1-6.6,14.7-14.7,14.7C35.4,28.5,28.8,22,28.8,13.9"/>
		<path class="st46" d="M29.8,13.9c0-7.5,6.1-13.7,13.7-13.7c7.6,0,13.7,6.1,13.7,13.7c0,7.5-6.1,13.7-13.7,13.7
			C35.9,27.5,29.8,21.4,29.8,13.9"/>
		<path class="st47" d="M30.8,13.9c0-7,5.7-12.7,12.7-12.7c7,0,12.7,5.7,12.7,12.7c0,7-5.7,12.7-12.7,12.7
			C36.4,26.5,30.8,20.9,30.8,13.9"/>
		<path class="st48" d="M31.8,13.9c0-6.5,5.2-11.7,11.6-11.7c6.5,0,11.7,5.2,11.7,11.7c0,6.5-5.2,11.7-11.7,11.7
			C37,25.5,31.8,20.3,31.8,13.9"/>
		<path class="st49" d="M32.8,13.9c0-5.9,4.8-10.7,10.6-10.7c5.9,0,10.7,4.8,10.7,10.7c0,5.9-4.8,10.7-10.7,10.7
			C37.6,24.6,32.8,19.8,32.8,13.9"/>
		<path class="st50" d="M33.8,13.9c0-5.3,4.3-9.6,9.6-9.6c5.3,0,9.7,4.3,9.7,9.6c0,5.3-4.3,9.6-9.7,9.6
			C38.1,23.5,33.8,19.2,33.8,13.9"/>
		<path class="st51" d="M34.8,13.9c0-4.8,3.9-8.7,8.7-8.7c4.8,0,8.7,3.9,8.7,8.7c0,4.8-3.9,8.7-8.7,8.7
			C38.7,22.5,34.8,18.6,34.8,13.9"/>
		<path class="st52" d="M35.8,13.9c0-4.2,3.4-7.7,7.7-7.7c4.3,0,7.7,3.4,7.7,7.7c0,4.2-3.4,7.7-7.7,7.7
			C39.2,21.5,35.8,18.1,35.8,13.9"/>
		<path class="st53" d="M36.8,13.9c0-3.7,3-6.7,6.6-6.7c3.7,0,6.7,3,6.7,6.7c0,3.7-3,6.7-6.7,6.7C39.8,20.5,36.8,17.6,36.8,13.9"/>
		<path class="st54" d="M37.8,13.9c0-3.1,2.5-5.7,5.6-5.7c3.1,0,5.7,2.5,5.7,5.7c0,3.1-2.5,5.7-5.7,5.7C40.3,19.5,37.8,17,37.8,13.9
			"/>
		<path class="st55" d="M38.8,13.9c0-2.6,2.1-4.6,4.6-4.6c2.6,0,4.7,2.1,4.7,4.6c0,2.6-2.1,4.6-4.7,4.6
			C40.9,18.5,38.8,16.4,38.8,13.9"/>
		<path class="st56" d="M39.8,13.9c0-2,1.7-3.6,3.6-3.6c2,0,3.7,1.6,3.7,3.6c0,2-1.7,3.6-3.7,3.6C41.4,17.5,39.8,15.9,39.8,13.9"/>
		<path class="st57" d="M40.8,13.9c0-1.4,1.2-2.6,2.7-2.6c1.5,0,2.7,1.2,2.7,2.6c0,1.4-1.2,2.7-2.7,2.7C42,16.5,40.8,15.3,40.8,13.9
			"/>
		<path d="M40,51.9l-1.9-1.9c-3.9-1.2-8-1.9-12.3-1.9l13.8,13.8L40,51.9z M30.2,42.1l-8.8-8.8C19,33,16.5,32.8,14,32.8
			c-4.6,0-9.2,0.5-13.5,1.5c0.1-0.8,0.3-1.7,0.5-2.4c7.1-3.7,15.1-6,23.5-6.5l2.2,2.2l3,2.9c6.3-3,13.4-4.7,20.9-4.7
			c-0.4-0.5-0.8-1.1-1.2-1.7c-1.4-0.1-2.8-0.2-4.3-0.2c-4.9,0-9.6,0.7-14,2.1l-2.7-2.7c-1.9-0.2-3.8-0.3-5.7-0.3
			c-7-0.1-13.7,1-20,3.1c0.3-0.9,0.7-1.7,1-2.5c5-3.6,10.6-6.5,16.5-8.4L18.9,14c7.3-3.8,15.7-5.8,24.5-5.8c5.3,0,10.3,0.7,15.1,2.1
			c1.7,1.7,3.4,3.6,4.9,5.5c0.5-0.4,1-0.7,1.6-1.1c6.6,1.9,12.7,5,18.2,9c0.3,0.8,0.7,1.6,1,2.5c-5.1-1.7-10.4-2.7-15.9-3
			c0.6,1.1,1.2,2.1,1.7,3.2c5.6,1.1,11,2.9,15.9,5.5c0.2,0.8,0.3,1.6,0.5,2.4c-4.3-1-8.8-1.5-13.5-1.5h-0.2c0.4,1,0.7,2.1,1,3.1
			c4.6,0.8,9,2.1,13.2,3.9c0,0.5,0,0.9,0,1.3v0.4c-2.2-0.3-4.3-0.4-6.6-0.4c-4.3,0-8.5,0.5-12.5,1.3c-1.3-0.9-2.7-1.7-4.1-2.5
			l-8.2,8.2l-8.3,8.3L48,76.9c-1.5,0.2-3,0.2-4.6,0.2c-1.5,0-3-0.1-4.5-0.2l0.4-8.6l0.1-3.3L22.4,48l-0.3,0c-3.1,0.2-6.1,0.6-9,1.3
			c-0.3-0.7-0.6-1.3-0.9-2c2.1-1.1,4.3-2.1,6.7-2.9l-2.4-2.4c-0.7-0.1-1.5-0.2-2.2-0.3c-0.8-0.1-1.7-0.2-2.5-0.3
			c-1.7-0.1-3.4-0.2-5.1-0.2c-2.2,0-4.4,0.1-6.6,0.4v-0.4c0-0.5,0-0.9,0-1.3c6-2.6,12.5-4.1,19.3-4.6l7.2,7.2
			C27.8,42.3,29,42.2,30.2,42.1 M48.9,35.4l8,8l3.6-3.6l1-1c-4.1-2-8.5-3.4-13.1-4L48.9,35.4z M55.2,45.1L43.5,33.4l-0.6-0.6
			c-4.7,1.1-9.1,3-13.1,5.5l3.8,3.8c1.8-0.2,3.6-0.1,5.3,0.1c0.7,2.2,1.1,4.3,1.5,6.6l5.6,5.7L55.2,45.1z"/>
		<path class="st0" d="M2.5,45.3c4.6,18.3,21.2,31.8,40.9,31.8c19.8,0,36.3-13.5,41-31.8c0.8-0.1,1.7-0.2,2.4-0.3
			c-1.9,22.3-20.6,39.8-43.4,39.8C20.7,84.8,2,67.3,0.1,45.1C0.9,45.1,1.7,45.2,2.5,45.3"/>
	</g>
</g>
</svg>
