<?xml version="1.0" encoding="utf-8"?>
<!-- Generator: Adobe Illustrator 22.1.0, SVG Export Plug-In . SVG Version: 6.00 Build 0)  -->
<svg version="1.1" id="Layer_1" xmlns="http://www.w3.org/2000/svg" xmlns:xlink="http://www.w3.org/1999/xlink" wide="200px" height="99.4px"
	 viewBox="0 0 200 99.4" style="enable-background:new 0 0 200 99.4;" xml:space="preserve">
<style type="text/css">
	.st0{fill:#002B59;}
	.st1{fill:#FFFFFF;}
	.st2{fill:#FFD200;}
</style>
<g>
	<path class="st0" d="M2,97.4c-0.6,0.7-1.4,0.9-2,0.9v0.6h10.2v-0.6c-0.1,0-2.1,0-2.7-1C7.1,96.8,7,96.1,7,93.8v-6.2h3.9
		c1.6,0,2.4,0.1,3,0.7c0.7,0.7,0.7,1.8,0.7,1.8h1l0-6.6h-1c0,0,0,1.1-0.7,1.8c-0.6,0.6-1.4,0.7-3,0.7H7v-8.9h4.4
		c1.4,0,2.6,0,3.4,0.6c1.1,0.9,1,2.1,1,2.2h1v-4.4H0.1v0.7c0.5,0,1.4,0.2,1.8,0.7c0.7,0.6,0.8,1.3,0.8,4.2v11.3
		C2.7,95.6,2.7,96.7,2,97.4"/>
	<path class="st0" d="M75.3,93.6c0-3.5-2.2-4.8-4.3-6.1l-2.1-1.3c-1.9-1.1-2.9-1.8-2.9-3.6c0-1.4,0.7-3,3.9-2.9
		c3.1,0.1,3.8,2.7,3.9,3.5h0.9v-3.9c0,0-2.1-1-4.9-1c-5.2,0-7.4,2.4-7.4,5.4c0,2.9,1.3,4.1,3.9,5.7l1.9,1.2c2,1.2,3.3,1.9,3.3,4.1
		c0,1.8-1.4,3.3-4.2,3.3c-1.4,0-3.7-0.7-3.9-3.4h-1l0,3.9c0.8,0.3,2.2,1,4.9,1C70.5,99.4,75.3,98.6,75.3,93.6"/>
	<path class="st0" d="M31.3,79.5v-0.7h-8.8v0.7c0.7,0,1.3,0.3,1.6,0.6c0.5,0.5,0.6,1,0.6,3.2v10c0,2.7-0.1,3.6-0.6,4.2
		c-0.5,0.5-1.2,0.7-1.7,0.7v0.6h8.8v-0.6c-0.7,0-1.3-0.3-1.7-0.7c-0.5-0.5-0.6-1.1-0.6-3.3V84.3c0-2.7,0-3.4,0.6-4
		C30.1,79.7,30.8,79.5,31.3,79.5"/>
	<path class="st0" d="M98.1,82.9v-4H80.2v4h0.9c0-0.5,0.1-1.4,0.8-2c0.7-0.5,1.7-0.6,2.9-0.6H87v13.1c0,2.3,0,3.5-0.7,4.2
		c-0.6,0.5-1.6,0.7-2.2,0.7v0.6h10v-0.6c-0.8,0-1.8-0.2-2.2-0.7c-0.5-0.5-0.6-1.1-0.6-3.4V80.3h2.2c1.1,0,2.2,0.1,2.9,0.6
		c0.7,0.6,0.8,1.5,0.8,2H98.1z"/>
	<path class="st0" d="M168.2,91.5l-9.5-12.6h-6.6v0.7c0.7,0,1.3,0.3,1.6,0.6c0.5,0.5,0.6,1.1,0.6,3.3v9.9c0,2.7-0.1,3.6-0.6,4.2
		c-0.5,0.5-1.2,0.7-1.7,0.7v0.6h6.7v-0.6c-0.7,0-1.3-0.3-1.6-0.7c-0.5-0.5-0.6-1.1-0.6-3.3V82.6c0,0.1,0.3,0.6,0.9,1.4l11.3,14.9
		h2.8V84.4c0-2.7,0.1-3.6,0.6-4.2c0.5-0.5,1.2-0.7,1.7-0.7v-0.7h-6.8v0.7c0.7,0,1.3,0.3,1.7,0.6c0.5,0.5,0.6,1.1,0.6,3.3v9.7
		C169.3,93.2,169.1,92.6,168.2,91.5"/>
	<path class="st0" d="M195.4,88.8c0,5.8-2,8.8-7.1,8.8c-0.8,0-1.4,0-1.8-0.1c-0.7-0.2-0.8-0.6-0.8-1.5V80.4c0,0,0.6-0.1,2.4-0.1
		C191.4,80.2,195.4,81.5,195.4,88.8 M200,88.4c0-9.4-8.9-9.5-12.2-9.5h-8.6v0.7c0.7,0,1.3,0.3,1.6,0.6c0.5,0.5,0.6,1.1,0.6,3.3v9.9
		c0,2.7-0.1,3.6-0.6,4.2c-0.5,0.5-1.2,0.7-1.7,0.7v0.7h7.9c2.1,0,4.2,0,5.5-0.4C196.4,97.5,200,94.6,200,88.4"/>
	<path class="st0" d="M139.6,89.9h-5.4l1.9-4.8c0.7-1.8,0.9-2.7,0.9-2.8c0,0.2,0.1,0.9,0.8,2.7L139.6,89.9z M113.4,87.3
		c-0.3,0-1,0.1-1.4,0.1c-1.7,0-2.5,0-2.5,0V77c0,0,0.8-0.1,1.9-0.1c2.3,0,5.8,0.6,5.8,5.1C117.1,85.7,115.3,87,113.4,87.3
		 M148.6,98.9v-0.6c-0.8,0-1.2-0.4-1.4-0.7c-0.3-0.4-0.5-0.8-0.7-1.5l-6.7-17.2l-3,0l-7.2,16.5c-0.8,1.8-1.3,2.7-2.6,2.9
		c0,0-0.4,0-0.4,0c-1.6-0.1-2.9-1.3-4.7-3.2c-2.2-2.4-6.2-6.9-6.2-6.9c0.3-0.1,6.1-1.2,6.1-6.5c0-1.6-0.7-4.7-5.1-5.8
		c-1.5-0.4-3.8-0.4-5.3-0.4h-8.9v0.7c0.5,0,1.4,0.2,1.8,0.7c0.7,0.6,0.8,1.3,0.8,4.2v11.4c0,3.3,0,4.3-0.7,5c-0.6,0.7-1.4,0.9-2,0.9
		v0.6h9.6v-0.6c-0.5,0-1.3-0.2-1.8-0.7c-0.7-0.6-0.8-1.3-0.8-4.2V89h2c0.8,1.1,5.2,6.2,6.3,7.4c2,2.2,3.1,2.5,5.7,2.5h3.2h0.5h6.3
		v-0.7c-0.4,0-1.1-0.1-1.4-0.4c-0.2-0.2-0.3-0.4-0.3-0.8c0-0.5,0.2-1,0.5-1.9l1.5-3.9h6.6l1.5,3.9c0.3,0.7,0.5,1.4,0.5,1.8
		c0,0.4-0.1,0.6-0.3,0.8c-0.4,0.3-1.1,0.4-1.4,0.4v0.6H148.6z"/>
	<path class="st0" d="M46.9,89c-0.3,0.1-0.7,0.1-1.1,0.1c-1.1,0-1.9,0-1.9,0v-8.8c0,0,0.7-0.1,1.5-0.1c1.6,0,4.3,0.3,4.3,4.3
		C49.8,88.1,48,88.8,46.9,89 M58.5,99v-0.7c-1.5-0.1-2.6-1.2-3.9-2.6c-1.9-2.1-5.2-6-5.2-6c2.1-0.5,4.9-2.4,4.9-5.6
		c0-1.6-0.7-3.6-3.4-4.6c-1.4-0.5-3.2-0.7-5.1-0.7c-0.2,0-0.6,0-1,0h-7.3v0.7c0.7,0,1.3,0.3,1.6,0.6c0.5,0.5,0.6,1.1,0.6,3.3v10
		c0,2.7-0.1,3.6-0.6,4.1c-0.5,0.5-1.2,0.7-1.7,0.7v0.6h8.7v-0.6c-0.7,0-1.3-0.3-1.7-0.7C44,97.2,44,96.6,44,94.4v-3.9h1.4
		c0.4,0.5,3.5,4.7,4.8,6.2c1.4,1.7,2.2,2.5,5,2.5C57.5,99.2,58.5,99,58.5,99"/>
	<path class="st0" d="M63.8,31.3C63.8,14.3,80,0,99.9,0c19.9,0,36.1,14.3,36.1,31.3c0,16.9-16.1,31.3-36.1,31.3
		C80,62.5,63.8,48.2,63.8,31.3"/>
	<path class="st1" d="M66.3,31.2C66.3,15.1,81.3,2,99.9,2c18.5,0,33.6,13.1,33.6,29.3c0,16.2-15,29.3-33.6,29.3
		C81.3,60.5,66.3,47.4,66.3,31.2"/>
	<path class="st0" d="M67.8,31.2c0-15.4,14.4-28,32.1-28c17.7,0,32.1,12.5,32.1,28c0,15.4-14.4,28-32.1,28
		C82.2,59.2,67.8,46.7,67.8,31.2"/>
	<path class="st2" d="M75.9,31.2c0-11.5,10.7-20.9,24-20.9s24,9.4,24,20.9c0,11.5-10.7,20.9-24,20.9S75.9,42.8,75.9,31.2"/>
	<path class="st0" d="M104.8,22.5c0.8,1.4,0.8,3.3,0.6,4.6c-0.2,1.1-0.7,2.8-2.1,4.4c0.3,0,0.8-0.2,1.7-0.4c1.1-0.3,1.7-0.5,1.7-0.5
		s-0.1,0.4-0.3,0.6c0.5,0.1,1.9,0.4,4.9-0.4c0.6-0.1,1.4-0.4,1.7,0.1c0.5,1.1-0.8,1.4-0.8,1.4s0.5,0.5,2.1-0.1c1.1-0.4,1-1.4,1-1.4
		l0.5,0.7c0,0,1.1-1.5-0.6-2.4c-1.4-0.8-2.6,0-2.6,0s-1.1-0.4-2.9-0.8c-1.8-0.5-3.4-1.7-3.4-1.7s0.6,0.1,1.8-0.2
		c1.1-0.3,1.4-0.6,1.4-0.6l-0.1,0.7c0,0,1.2-0.4,2.6-2.3c0.8-1.1,1.2-2.4,1.2-2.4s0.3,0.1,0.6,0.4c0.2,0.3,0.4,0.8,0.4,0.8
		s0.9-0.7,0.8-1.5c-0.1-1-0.8-1.3-0.8-1.3l1.4,0.3c0,0-0.1-1.8-2.3-1.5c-1.9,0.3-1.8,2.5-1.8,2.5s-0.4,0.7-2.7,1.2
		C107.3,23.1,105.2,22.6,104.8,22.5"/>
	<path class="st0" d="M95,16.2c0,0-0.8,0.8-0.8,1.7c-0.2,2.5,0.5,2.3,1.1,4.7c0.7,2.9-1.1,5.8-1.1,5.8s1.8,0.9,3.8-0.6
		c1.5-1.2,0.7-3.4,0.7-3.4s0.9,0.9,0.7,2.3C99,28.3,98.1,29,98.1,29s2.3,0,3.5-1.7c1-1.5,0.1-3.4,0.1-3.4s0.6,0,1,1.3
		c0.4,1.3-0.4,2.7-0.4,2.7s1.8-0.5,2.3-2.2c0.2-0.8,0.2-1.5,0-2c-1.2-2.8-5-1.5-6.5-4.2c-0.4-0.8-0.6-1.4-0.6-2.2
		C96.5,17.3,95.6,16.9,95,16.2"/>
	<path class="st0" d="M93.7,23.2C95,25,94,27.7,92,28.9c-2,1.3-4.3,2.1-6.5,3c-3.2,1.3-3.4,6.4,1.1,4.5c0.8-0.3,1.9-1,2.7-1.6l0-0.2
		c0,0,0.1-0.8,1.1-1.5c2.3-1.6,2.4-0.7,3.4-1.8c0.7-0.8,0.9-1.9,0.9-1.9c0.4,0.1,1.7,0.2,2.7-0.3l-0.6,0.8c0,0,1.5,0,2.7-0.3
		c0.5-0.1,1.1-0.4,1.7-0.8l-0.2,0.5c0,0,1.5-0.5,2.3-1.1c0.4-0.3,0.9-0.6,1.2-1c-0.2,1.3-0.8,3-2.3,4.4c-2.2,2.1-6.5,2.1-6.5,2.1
		s2.2,1.4,2.6,4c0.3,1.5-0.6,3.1-2.5,3.4c-2,0.3-4.6,0.1-4.6,0.1s-1.1,1.1,0.1,2.6c1.2,1.4,3.1,1.9,3.1,1.9s2.7-0.5,3.7,0.9
		c0.5,0.8,0.1,1.6,0.1,1.6s-0.7-0.6-1.4-0.7c-0.8,0.4-0.9,0.5-1.7,0.7c-1.1,0.2-1.5-0.1-1.5-0.1s0.9-0.7,0.4-0.9
		c0.1,0-3.1-0.7-5.5-2.5c-1.7-1.3-2.1-2.1-2.1-2.1l0.6-0.2c0,0-0.9-0.7-1.1-1.4c-0.2-0.6,0-0.7,0-0.7s1,0.2,2.3-0.1
		c1.4-0.3,2.2-1.4,2.2-1.4s-0.1-0.1-0.6-1c-0.5-0.9-0.2-1.5-0.2-1.5c-2.1,1.4-5.5,3.3-7.2,0.4c-1.3-2.3,0.7-5,2.7-5.9
		c1.7-0.7,5.6-2.1,6.9-3.3c1-1,1.4-2.6,0.6-3.6c0,0-1.8,1.7-3.7,1.5c-1.6-0.1-2.6-1.5-2.6-1.5l0.5-0.1c0,0-0.5-0.3-0.7-0.8
		c-0.2-0.5,0-1.3,0-1.3s1.1,1.2,2.2,1c1.6-0.3,2-1.3,3.7-0.8C92.6,22.1,93.2,22.5,93.7,23.2"/>
	<path class="st0" d="M101.5,15.8l-0.7,0.6c0,0-0.1,0-0.4-0.4c-0.2-0.3-0.6-0.5-0.6-0.5s0.3,0.1,0.9,0.2
		C101.3,15.8,101.5,15.8,101.5,15.8 M104.3,15.5c-1.1-0.4-1.7-0.4-1.7-0.4s-0.5-0.6-2.1-0.8c-1.6-0.2-2.6,0.4-2.6,0.4
		s-0.8-0.2-1.5-0.2C95.3,14.6,95,15,95,15s0.5,1,1.4,1.3c1.1,0.3,1.8,0.2,1.8,0.2s-0.5,1.2,0.3,2.6c0.7,1.1,1.9,1.3,3,1.4
		c0.5,0.1,0.6,0.6,1.1,0.6c0.2,0,0.4-0.2,0.8-0.6c0.4-0.4,0.7-0.9,0.7-0.9l-0.1-0.2c0,0-0.7,0.4-1.6,0.2c-1.1-0.2-1.7-1.4-1.7-1.4
		s0.5-0.3,1.3-0.4c0.7,0,1.3,0.3,1.3,0.3s0,0.2,0,0.4c-0.1,0.2-0.2,0.3-0.2,0.3l0.1,0.2c0,0,1-0.6,1.7-1.9
		C105.7,15.9,105,15.7,104.3,15.5"/>
	<path class="st0" d="M97.5,34.1c0,0,0.6,0.1,1.3,1.7c0.5,1.1,0.4,2.1,0.4,2.1s1.5-0.5,2,0.9c0.7,1.7-2,2.5-2,2.5s0.5,1.8,3.2,3.4
		c2.6,1.5,3.7,1.4,3.7,1.4s0.5-0.7,1.5-0.4c0.9,0.2,0.1,1.3,0.1,1.3s0.7,0.3,1.8-0.2c0.8-0.3,0.8-0.6,0.8-0.6s0.3,0,0.7,0.1
		c0.3,0.1,0.7,0.4,0.7,0.4s0.2-1.3-1-2.2c-1.8-1.2-3.7-0.6-4-0.6c-1.7-0.5-3.1-2.5-3.1-2.5s1.8-0.9,2.7-3.2c0.3-0.8,1.5-4.7-3.4-4.9
		C100,33.2,97.5,34.1,97.5,34.1"/>
</g>
</svg>
