<?xml version="1.0" encoding="utf-8"?>
<!-- Generator: Adobe Illustrator 22.1.0, SVG Export Plug-In . SVG Version: 6.00 Build 0)  -->
<svg version="1.1" id="Layer_1" xmlns="http://www.w3.org/2000/svg" xmlns:xlink="http://www.w3.org/1999/xlink" wide="100px" height="61.2px"
	 viewBox="0 0 100 61.2" style="enable-background:new 0 0 100 61.2;" xml:space="preserve">
<style type="text/css">
	.st0{fill:#003D29;}
</style>
<g>
	<path class="st0" d="M63.5,51.8l-1.5,4.1H65L63.5,51.8z M61.5,56.9L61,58.3c-0.2,0.5-0.2,0.9-0.2,1.1c0,0.3,0.4,0.9,1.2,1v0.8h-3.9
		v-0.8c1.1-0.2,1.3-0.5,1.9-1.9l3-7.8l-0.4-0.9h3.1l3.5,9c0.5,1.2,0.8,1.6,1.6,1.6v0.8h-5.5v-0.8c0.7,0,1.2-0.3,1.2-0.8
		c0-0.1-0.2-0.8-0.2-0.8l-0.7-1.9H61.5z M49,58.6c0,1.2,0.5,1.8,1.6,1.8c1.6,0,2.6-0.8,2.6-2.3c0-1.5-1.1-2.5-2.6-2.5H49V58.6z
		 M50.6,54.9c0.8,0,1.2-0.1,1.6-0.5c0.4-0.4,0.7-0.9,0.7-1.5c0-0.8-0.3-1.5-0.9-1.9c-0.5-0.3-0.7-0.4-1.6-0.4H49v4.3H50.6z
		 M51.8,49.7c2.6,0,4.2,1,4.2,2.7c0,0.9-0.5,1.7-1.3,2.1c-0.6,0.3-0.9,0.4-1.8,0.6c2.2,0.4,3.4,1.4,3.4,2.9c0,1-0.7,2-1.6,2.5
		c-0.9,0.4-1.7,0.6-3.4,0.6h-6.7v-0.8c1.1,0,1.4-0.4,1.4-1.8v-6.2c0-1.4-0.3-1.8-1.3-1.8l-0.1-0.8H51.8z M34.1,58.4
		c0,1.5,0.5,2,1.8,2c0.6,0,1.3-0.1,1.8-0.3c1.3-0.6,2-2.2,2-4.3c0-0.9-0.1-1.7-0.4-2.4c-0.2-0.6-0.6-1.2-1-1.7
		c-0.8-0.8-1.5-1.1-3.3-1.1h-0.6h-0.4V58.4z M36.5,49.7c1.2,0,1.7,0.1,2.5,0.3c0.5,0.1,1,0.4,1.3,0.6c1.5,1,2.4,2.7,2.4,4.7
		c0,2.7-1.7,4.9-4.3,5.6c-0.8,0.2-1.4,0.3-3,0.3h-5.8v-0.8c1.2,0,1.5-0.4,1.5-1.8v-6.2c0-1.4-0.3-1.9-1.3-1.9l-0.1-0.8H36.5z
		 M83.4,52.8v4v1.5v1.2c0,0,0,0.4,0.2,1.6h-0.8l-8.1-8.6v4.9c0,1.3,0.1,2.1,0.4,2.5c0.3,0.4,0.8,0.5,1.3,0.5l0.1,0.8h-4.5v-0.8
		c0.9,0,1.5-0.4,1.6-1.1c0.1-0.4,0.1-0.7,0.1-1.4v-0.2v-6.2l-0.2-0.2c-0.6-0.5-1.1-0.7-1.6-0.8v-0.8h3.9c0,0,5.3,5.7,5.9,6.3
		c0.6,0.5,0.6,0.6,0.6,0.6v-4.5c0-0.7-0.2-1-0.3-1.1c-0.3-0.3-0.6-0.5-1.4-0.5v-0.8h4.2v0.8c-0.8,0-1,0.2-1.3,0.5
		c-0.1,0.1-0.2,0.4-0.2,1.1V52.8z M91.9,55.9v2.6c0,1.4,0.3,1.8,1.3,1.8l0.1,0.8h-5.8v-0.8h0.2c1,0,1.3-0.4,1.3-1.8v-6.2
		c0-1.4-0.3-1.9-1.3-1.9h-0.2v-0.8h5.9v0.8h-0.1c-1,0-1.3,0.4-1.3,1.9V55l2.4-2c0.8-0.7,1.4-1.4,1.4-1.8c0-0.4-0.3-0.7-0.8-0.7
		l-0.1-0.8h4.4v0.8c-1.1,0.3-1.2,0.3-2.4,1.4l-2.7,2.3l4,4.7c1,1.2,1.5,1.3,1.9,1.4l0,0.8h-2.1c-1.6,0-2.9-1.6-2.9-1.6L91.9,55.9z
		 M26.5,52.1h-1.1c-0.7-0.9-1.1-1.2-1.6-1.4c-0.4-0.2-0.8-0.3-1.4-0.3H20v4.3h1.5c1.3,0,1.8-0.1,2.2-0.6c0.2-0.3,0.3-0.4,0.4-0.9
		h1.1v3.7h-1.1c-0.1-0.6-0.5-1.1-1-1.3c-0.3-0.1-0.7-0.2-1.6-0.2H20v3.1c0,1.3,0.4,1.7,1.9,1.7c1.3,0,1.7,0,2.4-0.5
		c0.6-0.4,1-0.7,1.6-1.4l1.3-0.1l-0.5,2.8H15.6v-0.8h0.2c1,0,1.3-0.4,1.3-1.8v-6.2c0-1.4-0.3-1.9-1.3-1.9h-0.2v-0.8h10.9V52.1z
		 M11.3,52.8v4v1.5v1.2c0,0,0,0.4,0.2,1.6h-0.8l-8.1-8.6v4.9c0,1.3,0.1,2.1,0.4,2.5c0.3,0.4,0.8,0.5,1.3,0.5l0.1,0.8H0.1v-0.8
		c0.9,0,1.5-0.4,1.6-1.1c0.1-0.4,0.1-0.7,0.1-1.4v-0.2v-6.2l-0.2-0.2C1,50.8,0.5,50.6,0,50.5v-0.8h3.9c0,0,5.3,5.7,5.9,6.3
		c0.6,0.5,0.6,0.6,0.6,0.6v-4.5c0-0.7-0.2-1-0.3-1.1c-0.3-0.3-0.7-0.5-1.4-0.5v-0.8h4.2v0.8c-0.8,0-1,0.2-1.3,0.5
		c-0.1,0.1-0.2,0.4-0.2,1.1V52.8z"/>
	<path class="st0" d="M38.2,27.2v-16l5.9-4l5.9,4l5.9-4l5.9,4v16l-5.9,4l-5.9-4l-5.9,4L38.2,27.2z M44.1,21.6l11.8,8l4.7-3.2
		L39.5,12v14.5l4.6,3.1V21.6z M55.9,15.2V8.7L51.1,12L55.9,15.2z M66.9,19.2c0-9.4-7.6-17.1-16.9-17.1C40.7,2.1,33,9.8,33,19.2
		c0,9.4,7.6,17.1,16.9,17.1C59.3,36.3,66.9,28.6,66.9,19.2 M69,19.2c0,10.6-8.5,19.2-19,19.2c-10.4,0-19-8.6-19-19.2
		C31,8.6,39.6,0,50,0C60.4,0,69,8.6,69,19.2"/>
</g>
</svg>
