<svg id="Layer_1" data-name="Layer 1" xmlns="http://www.w3.org/2000/svg" viewBox="0 0 380.7 518.93"><defs><style>.cls-1{fill:#231f20;}</style></defs><title>q_black</title><path class="cls-1" d="M323.1,465.05c-4.05,19-40.4,50.62-73.29,50.62-50.17,0-61.25-38.24-67.56-68.35C95.69,438.18,33.78,389.58,9.85,306.63c-6.72-23.29-8.37-63-7-92,2.84-61.6,22-114.2,55.52-152.11,34.05-38.56,80.38-59,134-59.21h.56c105.71,0,185.43,95.52,185.43,222.2,0,22.65-4.16,66.39-10.93,86.18-25.3,73.89-75.88,121.41-142.67,134.18,5.18,20.48,11.38,24.24,25.12,24.24a35.14,35.14,0,0,0,32.45-21.7l4.56-11a7.33,7.33,0,0,1,9.25-4.11l17.79,6.33c4.68,1.67,9.43,14.82,9.9,19.75M136.45,327.21c49.52,0,68.06,30.19,80.07,75.26,71.76-10.76,116.18-78.23,116.18-177C332.7,123.84,276.17,52.33,192,47.53c-2.26-.13-4.52-.19-6.75-.19-47.63,0-90.28,28.84-114.11,77.14-16.71,33.87-26.29,73.26-26.29,108.06,0,53.17,11.89,91.27,38.46,122.85C94.9,342.11,116.63,327.21,136.45,327.21Zm-21.14,56.67c14.35,8.42,39.65,14.33,57.53,17.45C166.72,376.88,156.73,368,140,368,130.64,368,117.5,380.46,115.31,383.88Z"/></svg>
